<svg width="17" height="17" viewBox="0 0 17 17" fill="none" xmlns="http://www.w3.org/2000/svg">
<g clip-path="url(#clip0_380_5731)">
<path d="M15.2399 11.316C14.9364 11.1687 14.5743 11.3027 14.4313 11.6152C13.9086 12.7572 13.0869 13.7243 12.055 14.4118C10.9965 15.1172 9.76714 15.4901 8.50007 15.4901C7.61515 15.4901 6.75698 15.3117 5.94941 14.96C5.16916 14.6202 4.46828 14.1334 3.86617 13.5135C3.26416 12.8935 2.79153 12.1717 2.46151 11.3681C2.12 10.5366 1.94678 9.6528 1.94678 8.7414H2.38948C2.62758 8.7414 2.76304 8.4611 2.61966 8.26542L1.56945 6.8329C1.45407 6.67549 1.22446 6.67549 1.10908 6.8329L0.05877 8.26562C-0.0847086 8.4613 0.0508526 8.7416 0.288954 8.7416H0.731652C0.731652 9.82134 0.937118 10.8691 1.34235 11.8557C1.73369 12.8085 2.2937 13.6639 3.00694 14.3984C3.72018 15.1329 4.55093 15.7096 5.47601 16.1126C6.43411 16.53 7.45149 16.7416 8.49997 16.7416C10.0019 16.7416 11.4594 16.2993 12.715 15.4626C13.9374 14.648 14.9109 13.5021 15.5303 12.1488C15.6735 11.8361 15.5434 11.4634 15.2399 11.316Z" fill="#E53E3E"/>
<path d="M16.7097 8.74214H16.267C16.267 7.6624 16.0615 6.61468 15.6563 5.62801C15.2649 4.67534 14.7049 3.81983 13.9917 3.08532C13.2785 2.35081 12.4477 1.7741 11.5226 1.3711C10.5645 0.95378 9.54714 0.742188 8.49867 0.742188C6.99678 0.742188 5.5393 1.18446 4.28362 2.02119C3.06125 2.83574 2.0877 3.9816 1.46831 5.33498C1.32522 5.6476 1.45527 6.02037 1.75884 6.16773C2.0624 6.31509 2.42438 6.18105 2.56748 5.86854C3.09022 4.72655 3.91189 3.75947 4.94376 3.07179C6.00227 2.36642 7.2315 1.99355 8.49867 1.99355C9.38358 1.99355 10.2417 2.17193 11.0493 2.52362C11.8296 2.86348 12.5305 3.35021 13.1326 3.97017C13.7346 4.59013 14.2072 5.31191 14.5372 6.11553C14.8787 6.94708 15.052 7.83084 15.052 8.74224H14.6093C14.3712 8.74224 14.2357 9.02254 14.3791 9.21822L15.4294 10.6509C15.5448 10.8083 15.7744 10.8083 15.8897 10.6509L16.9401 9.21822C17.0833 9.02244 16.9478 8.74214 16.7097 8.74214Z" fill="#E53E3E"/>
<path d="M8.49908 3.98306C8.57188 3.98306 8.63097 3.92231 8.63097 3.84724V3.29598C8.63097 3.22101 8.57198 3.16016 8.49908 3.16016C8.42618 3.16016 8.36719 3.22091 8.36719 3.29598V3.84724C8.36719 3.92221 8.42628 3.98306 8.49908 3.98306Z" fill="#A1B1C9"/>
<path d="M5.99574 4.45799C6.01206 4.48703 6.0416 4.50323 6.07192 4.50323C6.08679 4.50323 6.10195 4.49936 6.11576 4.4911C6.15776 4.46615 6.17224 4.41076 6.14791 4.36741L5.98048 4.06871C5.95615 4.02546 5.90247 4.01055 5.86037 4.0356C5.81837 4.06056 5.80389 4.11594 5.82822 4.1593L5.99574 4.45799Z" fill="#A1B1C9"/>
<path d="M3.95808 6.1494L4.24813 6.32181C4.26193 6.33006 4.27709 6.33394 4.29196 6.33394C4.32238 6.33394 4.35192 6.31774 4.36814 6.2887C4.39238 6.24545 4.37799 6.19006 4.33599 6.16501L4.04594 5.99259C4.00394 5.96763 3.95016 5.98245 3.92583 6.0257C3.90159 6.06895 3.91598 6.12434 3.95808 6.1494Z" fill="#A1B1C9"/>
<path d="M3.92584 11.4606C3.94215 11.4897 3.9717 11.5059 4.00202 11.5059C4.01689 11.5059 4.03205 11.502 4.04585 11.4938L4.3359 11.3213C4.3779 11.2964 4.39238 11.241 4.36805 11.1976C4.34372 11.1543 4.29004 11.1395 4.24794 11.1645L3.95789 11.3369C3.91599 11.362 3.9016 11.4173 3.92584 11.4606Z" fill="#A1B1C9"/>
<path d="M5.86042 13.452C5.87423 13.4603 5.88939 13.4641 5.90426 13.4641C5.93467 13.4641 5.96422 13.4479 5.98044 13.4189L6.14786 13.1202C6.1721 13.0769 6.15771 13.0216 6.11571 12.9965C6.07361 12.9715 6.01993 12.9864 5.9956 13.0296L5.82817 13.3283C5.80394 13.3717 5.81832 13.427 5.86042 13.452Z" fill="#A1B1C9"/>
<path d="M10.8838 12.9965C10.8418 13.0215 10.8273 13.0768 10.8517 13.1202L11.0191 13.4189C11.0354 13.4479 11.0649 13.4641 11.0953 13.4641C11.1101 13.4641 11.1253 13.4603 11.1391 13.452C11.1811 13.427 11.1956 13.3717 11.1712 13.3283L11.0038 13.0296C10.9796 12.9864 10.9258 12.9715 10.8838 12.9965Z" fill="#A1B1C9"/>
<path d="M12.6612 11.3213L12.9513 11.4937C12.9651 11.5019 12.9802 11.5058 12.9951 11.5058C13.0255 11.5058 13.055 11.4896 13.0713 11.4606C13.0955 11.4173 13.0811 11.3619 13.0391 11.3369L12.7491 11.1645C12.707 11.1395 12.6533 11.1543 12.629 11.1976C12.6047 11.2409 12.6191 11.2962 12.6612 11.3213Z" fill="#A1B1C9"/>
<path d="M12.7053 6.33399C12.7201 6.33399 12.7353 6.33011 12.7491 6.32186L13.0392 6.14944C13.0812 6.12448 13.0956 6.0691 13.0713 6.02575C13.047 5.98249 12.9933 5.96758 12.9512 5.99263L12.6612 6.16505C12.6192 6.19001 12.6047 6.24539 12.629 6.28875C12.6453 6.31778 12.6749 6.33399 12.7053 6.33399Z" fill="#A1B1C9"/>
<path d="M10.9277 4.50319C10.9581 4.50319 10.9877 4.48698 11.0039 4.45795L11.1713 4.15925C11.1955 4.116 11.1812 4.06062 11.1392 4.03556C11.0972 4.0106 11.0434 4.02542 11.019 4.06867L10.8516 4.36737C10.8274 4.41062 10.8418 4.466 10.8838 4.49106C10.8977 4.49931 10.9128 4.50319 10.9277 4.50319Z" fill="#A1B1C9"/>
<path d="M3.74922 8.87712C3.82202 8.87712 3.88111 8.81637 3.88111 8.74129C3.88111 8.66632 3.82211 8.60547 3.74922 8.60547H3.21392C3.14112 8.60547 3.08203 8.66622 3.08203 8.74129C3.08203 8.81627 3.14103 8.87712 3.21392 8.87712H3.74922Z" fill="#A1B1C9"/>
<path d="M8.36719 13.6358V14.1871C8.36719 14.2621 8.42618 14.3229 8.49908 14.3229C8.57198 14.3229 8.63097 14.2622 8.63097 14.1871V13.6358C8.63097 13.5609 8.57198 13.5 8.49908 13.5C8.42618 13.5 8.36719 13.5609 8.36719 13.6358Z" fill="#A1B1C9"/>
<path d="M13.253 8.87712H13.7883C13.8611 8.87712 13.9202 8.81637 13.9202 8.74129C13.9202 8.66632 13.8612 8.60547 13.7883 8.60547H13.253C13.1802 8.60547 13.1211 8.66622 13.1211 8.74129C13.1212 8.81637 13.1802 8.87712 13.253 8.87712Z" fill="#A1B1C9"/>
<path d="M7.86719 8.74329C7.86719 9.10373 8.15096 9.39597 8.50097 9.39597C8.64184 9.39597 8.77189 9.34864 8.87704 9.26859L11.0334 10.3342C11.0932 10.3638 11.1664 10.3431 11.2024 10.2837C11.2412 10.2201 11.2223 10.1361 11.1605 10.0963L9.13291 8.78953C9.13397 8.77421 9.13465 8.7588 9.13465 8.74319C9.13465 8.48377 8.9876 8.25965 8.77469 8.15445L8.63286 4.64199C8.62986 4.57229 8.57541 4.51482 8.50647 4.51184C8.43367 4.50875 8.37216 4.56702 8.36917 4.64199C8.36917 4.64199 8.2731 7.02012 8.22724 8.15455C8.01424 8.25975 7.86719 8.48387 7.86719 8.74329Z" fill="#E53E3E"/>
</g>
<defs>
<clipPath id="clip0_380_5731">
<rect width="17" height="16" fill="white" transform="translate(0 0.742188)"/>
</clipPath>
</defs>
</svg>
