<svg width="20" height="20" viewBox="0 0 20 20" fill="none" xmlns="http://www.w3.org/2000/svg">
<path fill-rule="evenodd" clip-rule="evenodd" d="M3 9.7069C3 8.7642 3.73349 8 4.6383 8H15.3617C16.2665 8 17 8.7642 17 9.7069V15.2931C17 16.2358 16.2665 17 15.3617 17H4.6383C3.73349 17 3 16.2358 3 15.2931V9.7069ZM4.6383 8.93103C4.22702 8.93103 3.89362 9.2784 3.89362 9.7069V15.2931C3.89362 15.7216 4.22702 16.069 4.6383 16.069H15.3617C15.773 16.069 16.1064 15.7216 16.1064 15.2931V9.7069C16.1064 9.2784 15.773 8.93103 15.3617 8.93103H4.6383Z" fill="#3AC1FF"/>
<path fill-rule="evenodd" clip-rule="evenodd" d="M4 6.5C4 6.22386 4.20664 6 4.46154 6H15.5385C15.7934 6 16 6.22386 16 6.5C16 6.77614 15.7934 7 15.5385 7H4.46154C4.20664 7 4 6.77614 4 6.5Z" fill="#3AC1FF"/>
<path fill-rule="evenodd" clip-rule="evenodd" d="M5 4.5C5 4.22386 5.21664 4 5.48387 4H14.5161C14.7834 4 15 4.22386 15 4.5C15 4.77614 14.7834 5 14.5161 5H5.48387C5.21664 5 5 4.77614 5 4.5Z" fill="#3AC1FF"/>
<path fill-rule="evenodd" clip-rule="evenodd" d="M10 11C9.00589 11 8.2 11.6716 8.2 12.5C8.2 13.3284 9.00589 14 10 14C10.9941 14 11.8 13.3284 11.8 12.5C11.8 11.6716 10.9941 11 10 11ZM7 12.5C7 11.1193 8.34315 10 10 10C11.6569 10 13 11.1193 13 12.5C13 13.8807 11.6569 15 10 15C8.34315 15 7 13.8807 7 12.5Z" fill="#3AC1FF"/>
<path fill-rule="evenodd" clip-rule="evenodd" d="M17 10.4375C17 10.7482 16.7761 11 16.5 11H16.1667C14.97 11 14 9.90869 14 8.5625C14 8.25184 14.2239 8 14.5 8C14.7761 8 15 8.25184 15 8.5625C15 9.28737 15.5223 9.875 16.1667 9.875H16.5C16.7761 9.875 17 10.1268 17 10.4375Z" fill="#3AC1FF"/>
<path fill-rule="evenodd" clip-rule="evenodd" d="M17 14.5625C17 14.2518 16.7761 14 16.5 14H16.1667C14.97 14 14 15.0913 14 16.4375C14 16.7482 14.2239 17 14.5 17C14.7761 17 15 16.7482 15 16.4375C15 15.7126 15.5223 15.125 16.1667 15.125H16.5C16.7761 15.125 17 14.8732 17 14.5625Z" fill="#3AC1FF"/>
<path fill-rule="evenodd" clip-rule="evenodd" d="M3 10.4375C3 10.7482 3.22386 11 3.5 11H3.83333C5.02995 11 6 9.90869 6 8.5625C6 8.25184 5.77614 8 5.5 8C5.22386 8 5 8.25184 5 8.5625C5 9.28737 4.47767 9.875 3.83333 9.875H3.5C3.22386 9.875 3 10.1268 3 10.4375Z" fill="#3AC1FF"/>
<path fill-rule="evenodd" clip-rule="evenodd" d="M3 14.5625C3 14.2518 3.22386 14 3.5 14H3.83333C5.02995 14 6 15.0913 6 16.4375C6 16.7482 5.77614 17 5.5 17C5.22386 17 5 16.7482 5 16.4375C5 15.7126 4.47767 15.125 3.83333 15.125H3.5C3.22386 15.125 3 14.8732 3 14.5625Z" fill="#3AC1FF"/>
</svg>
