<svg width="20" height="20" viewBox="0 0 20 20" fill="none" xmlns="http://www.w3.org/2000/svg">
<rect x="3" y="12.3633" width="8.55941" height="2.72345" rx="1.36172" fill="#F6F6F6" stroke="#3AC1FF"/>
<rect x="4.55469" y="4" width="8.55941" height="2.72345" rx="1.36172" stroke="#3AC1FF"/>
<rect x="3" y="6.72266" width="8.55941" height="2.72345" rx="1.36172" stroke="#3AC1FF"/>
<rect x="4.16797" y="9.44727" width="8.55941" height="2.72345" rx="1.36172" stroke="#3AC1FF"/>
<ellipse cx="12.4315" cy="12.0748" rx="4.56823" ry="4.57284" fill="#01C246" stroke="#3AC1FF"/>
<path d="M12.4554 15.0719C12.3399 15.0719 12.2424 15.0312 12.1627 14.9498C12.0831 14.8684 12.0433 14.7666 12.0433 14.6444V14.1925L12.2225 14.3574C11.9557 14.3452 11.7248 14.3106 11.5297 14.2536C11.3346 14.1966 11.1754 14.1396 11.052 14.0826C10.9485 14.0337 10.8748 13.9645 10.831 13.875C10.7912 13.7854 10.7753 13.6938 10.7832 13.6001C10.7952 13.5065 10.829 13.421 10.8848 13.3436C10.9405 13.2663 11.0122 13.2154 11.0997 13.191C11.1913 13.1625 11.2968 13.1747 11.4163 13.2276C11.4959 13.2724 11.6153 13.3192 11.7746 13.3681C11.9378 13.4129 12.1389 13.4353 12.3777 13.4353C12.5449 13.4353 12.6763 13.419 12.7719 13.3864C12.8714 13.3538 12.9411 13.3111 12.9809 13.2581C13.0247 13.2011 13.0466 13.1401 13.0466 13.0749C13.0466 13.0139 13.0307 12.963 12.9988 12.9223C12.9709 12.8775 12.9232 12.8388 12.8555 12.8062C12.7878 12.7696 12.6942 12.737 12.5748 12.7085L11.9 12.5619C11.5297 12.4765 11.253 12.334 11.0699 12.1345C10.8907 11.9309 10.8012 11.6683 10.8012 11.3467C10.8012 11.1024 10.8589 10.8846 10.9743 10.6932C11.0938 10.4978 11.259 10.339 11.47 10.2169C11.685 10.0947 11.9358 10.0174 12.2225 9.98479L12.0433 10.0886V9.67944C12.0433 9.5573 12.0831 9.45552 12.1627 9.37409C12.2424 9.29267 12.3399 9.25195 12.4554 9.25195C12.5748 9.25195 12.6743 9.29267 12.754 9.37409C12.8336 9.45552 12.8734 9.5573 12.8734 9.67944V10.0886L12.6942 9.97258C12.8455 9.97665 13.0088 10.0031 13.1839 10.052C13.3591 10.0968 13.5124 10.1599 13.6438 10.2413C13.7353 10.2901 13.799 10.3573 13.8349 10.4428C13.8747 10.5283 13.8886 10.6159 13.8767 10.7054C13.8687 10.7909 13.8369 10.8683 13.7811 10.9375C13.7294 11.0067 13.6577 11.0535 13.5661 11.0779C13.4785 11.0983 13.373 11.082 13.2496 11.0291C13.1581 10.9884 13.0545 10.9558 12.9391 10.9314C12.8276 10.9029 12.6843 10.8886 12.5091 10.8886C12.2981 10.8886 12.1349 10.9273 12.0194 11.0047C11.9079 11.082 11.8522 11.1818 11.8522 11.3039C11.8522 11.3853 11.8841 11.4545 11.9478 11.5115C12.0154 11.5645 12.1369 11.6113 12.312 11.652L12.9928 11.8047C13.371 11.8902 13.6497 12.0327 13.8289 12.2322C14.012 12.4276 14.1036 12.6821 14.1036 12.9955C14.1036 13.2398 14.0459 13.4556 13.9304 13.6429C13.815 13.8302 13.6537 13.9828 13.4467 14.1009C13.2436 14.219 13.0068 14.2963 12.736 14.333L12.8734 14.1864V14.6444C12.8734 14.7666 12.8336 14.8684 12.754 14.9498C12.6783 15.0312 12.5788 15.0719 12.4554 15.0719Z" fill="white"/>
</svg>
