<svg width="16" height="16" viewBox="0 0 16 16" fill="none" xmlns="http://www.w3.org/2000/svg">
<path fill-rule="evenodd" clip-rule="evenodd" d="M9.17578 11.2872C9.17578 10.641 9.69961 10.1172 10.3458 10.1172C10.8772 10.1172 11.3258 10.4715 11.4685 10.9567C11.6641 10.8985 11.8713 10.8672 12.0858 10.8672C12.4154 10.8672 12.7278 10.941 13.0073 11.0731C12.8983 9.69859 11.7483 8.61719 10.3458 8.61719C8.87118 8.61719 7.67578 9.81259 7.67578 11.2872C7.67578 12.6897 8.75718 13.8397 10.1317 13.9487C9.99962 13.6692 9.92578 13.3568 9.92578 13.0272C9.92578 12.8127 9.95705 12.6055 10.0153 12.4099C9.53005 12.2672 9.17578 11.8186 9.17578 11.2872Z" fill="#3AC1FF"/>
<path d="M14.1838 13.2071C14.1838 14.2675 13.3241 15.1271 12.2638 15.1271C11.2034 15.1271 10.3438 14.2675 10.3438 13.2071C10.3438 12.1467 11.2034 11.2871 12.2638 11.2871C13.3241 11.2871 14.1838 12.1467 14.1838 13.2071Z" stroke="#3AC1FF" stroke-width="1.5"/>
<path d="M5.26042 3.86719L5.00091 2.95893C4.81992 2.32545 5.39244 1.73353 6.0316 1.89332V1.89332C6.82455 2.09155 7.66226 1.9996 8.39333 1.63407L8.81993 1.42076C9.26366 1.1989 9.76618 1.59125 9.65856 2.07554L9.26042 3.86719" stroke="#3AC1FF" stroke-width="1.5"/>
<path d="M2.85938 4.79561C2.85938 4.27531 3.28117 3.85352 3.80147 3.85352H10.7102C11.2305 3.85352 11.6523 4.27531 11.6523 4.79561C11.6523 5.31592 11.2305 5.73771 10.7102 5.73771H3.80147C3.28117 5.73771 2.85938 5.31592 2.85938 4.79561Z" stroke="#3AC1FF" stroke-width="1.5"/>
<path d="M10.0963 5.8457L11.1728 7.74954M9.12253 14.6386H5.3882C2.70108 14.6386 0.987496 11.9065 2.26146 9.65337L4.41439 5.8457" stroke="#3AC1FF" stroke-width="1.5" stroke-linecap="round"/>
</svg>
