<svg width="163" height="168" viewBox="0 0 163 168" fill="none" xmlns="http://www.w3.org/2000/svg">
<g clip-path="url(#clip0_441_11979)">
<path d="M37.6437 64.4368C49.6209 64.4368 59.3304 54.7088 59.3304 42.7086C59.3304 30.7085 49.6209 20.9805 37.6437 20.9805C25.6665 20.9805 15.957 30.7085 15.957 42.7086C15.957 54.7088 25.6665 64.4368 37.6437 64.4368Z" fill="#EBEBEB"/>
<path d="M37.6429 59.3023C46.7871 59.3023 54.1999 51.8753 54.1999 42.7137C54.1999 33.552 46.7871 26.125 37.6429 26.125C28.4988 26.125 21.0859 33.552 21.0859 42.7137C21.0859 51.8753 28.4988 59.3023 37.6429 59.3023Z" fill="white"/>
<path d="M37.6428 54.5693C44.1766 54.5693 49.4732 49.2625 49.4732 42.7163C49.4732 36.17 44.1766 30.8633 37.6428 30.8633C31.1091 30.8633 25.8125 36.17 25.8125 42.7163C25.8125 49.2625 31.1091 54.5693 37.6428 54.5693Z" fill="#EBEBEB"/>
<path d="M37.6497 49.262C41.2619 49.262 44.1901 46.3282 44.1901 42.7091C44.1901 39.0901 41.2619 36.1562 37.6497 36.1562C34.0376 36.1562 31.1094 39.0901 31.1094 42.7091C31.1094 46.3282 34.0376 49.262 37.6497 49.262Z" fill="white"/>
<path d="M34.6914 42.7144C34.696 44.348 36.0196 45.6742 37.6501 45.6696C39.2806 45.665 40.6043 44.3388 40.5997 42.7052C40.5951 41.0716 39.2761 39.75 37.6456 39.75C36.0151 39.75 34.6914 41.0762 34.6914 42.7098V42.7144Z" fill="#EBEBEB"/>
<path d="M8.02519 12.3641L7.35156 13.0391L35.3782 41.1193L36.0518 40.4444L8.02519 12.3641Z" fill="#A6A6A6"/>
<path d="M33.9805 41.7274L37.6445 42.714L36.6644 39.043L33.9805 41.7274Z" fill="#A6A6A6"/>
<path d="M3 10.8726L8.25335 16.136L12.3754 17.398L11.1159 13.268L5.86255 8L7.12207 12.13L3 10.8726Z" fill="#A6A6A6"/>
<path d="M114.796 8.15625H47.2007C43.3903 8.19242 40.3276 11.3268 40.3636 15.1564V154.999C40.3316 158.829 43.3903 161.963 47.2007 161.999H114.796C118.606 161.963 121.669 158.829 121.641 154.999V15.1564C121.669 11.3228 118.606 8.19242 114.796 8.15625ZM117.363 150.679C117.363 154.36 114.62 157.338 111.237 157.338H50.7671C47.3766 157.338 44.6338 154.36 44.6338 150.679V20.4568C44.6338 12.9583 47.3766 12.5926 50.7671 12.5926H62.8819C63.5856 12.5926 64.1614 13.3963 64.1614 14.3929V14.8229C64.1614 17.1576 65.4328 17.1657 66.9922 17.1657H94.9962C96.5715 17.1657 97.835 17.1657 97.835 14.8229V14.3929C97.835 13.3963 98.4027 12.5926 99.1184 12.5926H111.229C114.612 12.5926 117.355 13.5892 117.355 20.4568L117.363 150.679Z" fill="#263238"/>
<path d="M117.386 20.5716V150.794C117.386 154.475 114.643 157.453 111.26 157.453H50.7701C47.3795 157.453 44.6367 154.475 44.6367 150.794V20.5716C44.6367 13.0933 47.3795 12.6914 50.7701 12.6914H62.8849C63.5886 12.6914 64.1643 13.4951 64.1643 14.4917V14.9217C64.1643 17.2564 65.4358 17.2644 66.9951 17.2644H94.9951C96.5705 17.2644 97.8339 17.2644 97.8339 14.9217V14.5078C97.8339 13.5112 98.4017 12.7075 99.1174 12.7075H111.228C114.623 12.6914 117.386 13.7041 117.386 20.5716Z" fill="white"/>
<path d="M84.8196 14.2452H77.1788C76.9189 14.2452 76.707 14.0323 76.707 13.7711C76.707 13.5099 76.9189 13.2969 77.1788 13.2969H84.8196C85.0794 13.2969 85.2914 13.5099 85.2914 13.7711C85.2914 14.0323 85.0794 14.2452 84.8196 14.2452Z" fill="white"/>
<path d="M60.7947 15.507L60.6787 15.6235L60.6107 15.6919C59.987 15.069 58.9794 15.069 58.3557 15.6919C58.3317 15.6718 58.3117 15.6476 58.2917 15.6235C58.2517 15.5874 58.2158 15.5472 58.1758 15.507C58.2278 15.4668 58.2757 15.4186 58.3237 15.3784C58.4277 15.29 58.5436 15.2177 58.6676 15.1574C58.8115 15.0851 58.9634 15.0328 59.1194 15.0047L59.3473 14.9766H59.5472H59.6991C59.8351 14.9926 59.971 15.0248 60.099 15.073C60.1989 15.1092 60.2909 15.1534 60.3828 15.2056C60.4788 15.2619 60.5668 15.3262 60.6507 15.3945L60.7747 15.507H60.7947Z" fill="#A6A6A6"/>
<path d="M58.7269 16.0748C58.6669 16.0105 58.6069 15.9502 58.543 15.8899C59.0587 15.3675 59.8984 15.3635 60.4222 15.8859L60.4262 15.8899L60.2422 16.0748C59.8224 15.6528 59.1427 15.6528 58.7269 16.0748Z" fill="#A6A6A6"/>
<path d="M60.0537 16.2568L59.8697 16.4416C59.6538 16.2286 59.31 16.2286 59.0941 16.4416C59.0301 16.3813 58.9701 16.317 58.9102 16.2568C59.218 15.9393 59.7258 15.9353 60.0417 16.2447C60.0457 16.2487 60.0497 16.2528 60.0537 16.2568Z" fill="#A6A6A6"/>
<path d="M59.6444 16.6141C59.6444 16.7065 59.5724 16.7788 59.4804 16.7788C59.3885 16.7829 59.3165 16.7105 59.3125 16.6181V16.6141C59.3125 16.5217 59.3885 16.4453 59.4804 16.4453C59.5724 16.4453 59.6444 16.5176 59.6444 16.6101V16.6141Z" fill="#A6A6A6"/>
<path d="M49.3711 15.869C49.3711 15.5998 49.587 15.3828 49.8549 15.3828C50.1228 15.3828 50.3387 15.5998 50.3387 15.869C50.3387 16.1383 50.1228 16.3553 49.8549 16.3553C49.587 16.3553 49.3711 16.1383 49.3711 15.869Z" fill="#A6A6A6"/>
<path d="M50.8945 15.869C50.8945 15.5998 51.1104 15.3828 51.3783 15.3828C51.6462 15.3828 51.8621 15.5998 51.8621 15.869C51.8621 16.1383 51.6462 16.3553 51.3783 16.3553C51.1104 16.3553 50.8945 16.1383 50.8945 15.869Z" fill="#A6A6A6"/>
<path d="M52.4102 15.869C52.4102 15.5998 52.6261 15.3828 52.894 15.3828C53.1618 15.3828 53.3777 15.5998 53.3777 15.869C53.3777 16.1383 53.1618 16.3553 52.894 16.3553H52.89C52.6261 16.3553 52.4102 16.1383 52.4102 15.8731V15.869Z" fill="#A6A6A6"/>
<path d="M53.9336 15.869C53.9336 15.5998 54.1495 15.3828 54.4174 15.3828C54.6853 15.3828 54.9012 15.5998 54.9012 15.869C54.9012 16.1383 54.6853 16.3553 54.4174 16.3553H54.4134C54.1495 16.3553 53.9336 16.1383 53.9336 15.8731V15.869Z" fill="#A6A6A6"/>
<path d="M55.4492 15.869C55.4492 15.5998 55.6651 15.3828 55.933 15.3828C56.2009 15.3828 56.4168 15.5998 56.4168 15.869C56.4168 16.1383 56.2009 16.3553 55.933 16.3553C55.6651 16.3553 55.4492 16.1383 55.4492 15.869Z" fill="#A6A6A6"/>
<path d="M111.911 16.9339H107.984V15.1055H111.911V16.9339ZM108.184 16.733H111.711V15.3064H108.192L108.184 16.733Z" fill="#A6A6A6"/>
<path d="M110.84 15.4102H108.309V16.6157H110.84V15.4102Z" fill="#A6A6A6"/>
<path d="M112.254 15.5273H111.906V16.5038H112.254V15.5273Z" fill="#A6A6A6"/>
<path d="M85.1766 7.11328H76.8242V26.8641H85.1766V7.11328Z" fill="#3F42FF"/>
<path d="M85.1726 26.8594C85.1726 26.8594 84.373 30.8778 80.9984 30.8778C77.6239 30.8778 76.8242 26.8594 76.8242 26.8594H85.1726Z" fill="#3F42FF"/>
<path opacity="0.1" d="M85.1726 26.8594C85.1726 26.8594 84.373 30.8778 80.9984 30.8778C77.6239 30.8778 76.8242 26.8594 76.8242 26.8594H85.1726Z" fill="black"/>
<path d="M76.8212 26.8641H68.4688L69.3204 7.11328H76.8212V26.8641Z" fill="white"/>
<path d="M76.8225 26.8669L68.47 26.9191H68.4141C68.4141 26.9191 69.2137 7.1402 69.2137 7.11207V7.01562H69.3057H76.8065H76.8904C76.9224 7.09198 76.8385 16.9131 76.8584 16.9935L76.8065 26.8468L76.8225 26.8669ZM76.8225 26.8669L76.7705 16.9694L76.7425 7.11609L76.8225 7.19646L69.3217 7.21655L69.4216 7.12011C69.3936 7.12011 68.598 27.1 68.47 26.8106L76.8225 26.8629V26.8669Z" fill="#263238"/>
<path d="M76.8252 26.8594C76.8252 26.8594 76.0255 30.8778 72.643 30.8778C69.2604 30.8778 68.4688 26.8594 68.4688 26.8594H76.8252Z" fill="#EBEBEB"/>
<path d="M68.4696 26.8641H60.1172L61.8205 7.11328H69.3212L68.4696 26.8641Z" fill="#3F42FF"/>
<path d="M68.4696 26.8594C68.4696 26.8594 67.67 30.8778 64.2914 30.8778C60.9128 30.8778 60.1172 26.8594 60.1172 26.8594H68.4696Z" fill="#3F42FF"/>
<path opacity="0.1" d="M68.4696 26.8594C68.4696 26.8594 67.67 30.8778 64.2914 30.8778C60.9128 30.8778 60.1172 26.8594 60.1172 26.8594H68.4696Z" fill="black"/>
<path d="M60.1141 26.8641H51.7617L54.3206 7.11328H61.8214L60.1141 26.8641Z" fill="white"/>
<path d="M60.1155 26.8669L51.7631 26.9191H51.7031C51.7031 26.9191 54.214 7.13618 54.214 7.10403V7.01562H54.302H61.8028H61.8908V7.10403L61.0111 17.0176L60.1075 26.8669H60.1155ZM60.1155 26.8669L60.9152 16.9654L61.7388 7.10805L61.8188 7.19646L54.318 7.21655L54.414 7.12814C54.386 7.12814 51.8751 27.116 51.7591 26.8187L60.1115 26.8709L60.1155 26.8669Z" fill="#263238"/>
<path d="M60.1141 26.8594C60.1141 26.8594 59.3145 30.8778 55.9359 30.8778C52.5574 30.8778 51.7617 26.8594 51.7617 26.8594H60.1141Z" fill="#EBEBEB"/>
<path d="M51.7587 26.8641H43.4062L46.8168 7.11328H54.3136L51.7587 26.8641Z" fill="#3F42FF"/>
<path d="M51.7627 26.8594C51.7627 26.8594 50.963 30.8778 47.5885 30.8778C44.2139 30.8778 43.4062 26.8594 43.4062 26.8594H51.7627Z" fill="#3F42FF"/>
<path opacity="0.1" d="M51.7627 26.8594C51.7627 26.8594 50.963 30.8778 47.5885 30.8778C44.2139 30.8778 43.4062 26.8594 43.4062 26.8594H51.7627Z" fill="black"/>
<path d="M43.4152 26.8679H35.0508L38.7812 9.58844C39.0891 8.16188 40.6004 7.12109 42.3796 7.12109H46.8137L43.4152 26.8679Z" fill="white"/>
<path d="M43.4164 26.865L35.064 26.9172H35V26.8529C35.5238 24.3976 38.0387 12.6195 38.5025 10.4374C38.5825 9.87084 38.7424 9.32031 38.9783 8.80193C39.8619 7.19454 41.8211 6.90923 43.4764 7.02174H46.8149H46.9149L46.8949 7.11417L45.1596 17.0077L43.4164 26.865ZM43.4164 26.865L45.0717 16.9594L46.747 7.09809L46.8269 7.19454H43.4884C41.889 7.09809 40.0218 7.35528 39.1582 8.89033C38.9303 9.39264 38.7744 9.92308 38.6984 10.4696L37.9827 13.7487L35.116 26.869L35.064 26.8047L43.4164 26.8569V26.865Z" fill="#263238"/>
<path d="M43.4187 26.8594C43.4187 26.8594 42.6191 30.8778 39.2445 30.8778C35.87 30.8778 35.0703 26.8594 35.0703 26.8594H43.4187Z" fill="#EBEBEB"/>
<path d="M85.1797 26.8641H93.5321L92.6805 7.11328H85.1797V26.8641Z" fill="white"/>
<path d="M85.1776 26.8663L93.53 26.8141L93.4781 26.8663L92.5944 7.11954L92.6944 7.21599L85.1936 7.1959L85.2736 7.11553L85.2456 16.9688L85.1936 26.8663H85.1776ZM85.1776 26.8663L85.1256 17.013L85.0977 7.11553V7.03516H85.1816H92.6824H92.7744V7.1316C92.7744 7.20393 93.574 26.8744 93.574 26.9387H93.518L85.1656 26.8864L85.1776 26.8663Z" fill="#263238"/>
<path d="M93.5322 26.8594C93.5322 26.8594 92.7325 30.8778 89.358 30.8778C85.9834 30.8778 85.1758 26.8594 85.1758 26.8594H93.5322Z" fill="#EBEBEB"/>
<path d="M93.5313 26.8641H101.884L100.18 7.11328H92.6797L93.5313 26.8641Z" fill="#3F42FF"/>
<path d="M101.884 26.8594C101.884 26.8594 101.084 30.8778 97.7095 30.8778C94.3349 30.8778 93.5312 26.8594 93.5312 26.8594H101.884Z" fill="#3F42FF"/>
<path opacity="0.1" d="M101.884 26.8594C101.884 26.8594 101.084 30.8778 97.7095 30.8778C94.3349 30.8778 93.5312 26.8594 93.5312 26.8594H101.884Z" fill="black"/>
<path d="M101.887 26.8641H110.239L107.68 7.11328H100.18L101.887 26.8641Z" fill="white"/>
<path d="M101.889 26.8663L110.241 26.8141C110.125 27.1757 107.626 7.04721 107.586 7.12356L107.682 7.21197L100.193 7.1959L100.273 7.10749C100.693 12.0301 101.505 21.9397 101.901 26.8663H101.889ZM101.889 26.8663L100.993 17.017L100.109 7.12356V7.03516H100.193H107.694H107.79C107.818 7.17982 110.297 26.786 110.321 26.9387H110.261L101.909 26.8864L101.889 26.8663Z" fill="#263238"/>
<path d="M110.239 26.8594C110.239 26.8594 109.439 30.8778 106.065 30.8778C102.69 30.8778 101.887 26.8594 101.887 26.8594H110.239Z" fill="#EBEBEB"/>
<path d="M110.242 26.8641H118.595L115.184 7.11328H107.688L110.242 26.8641Z" fill="#3F42FF"/>
<path d="M118.587 26.8594C118.587 26.8594 117.787 30.8778 114.405 30.8778C111.022 30.8778 110.23 26.8594 110.23 26.8594H118.587Z" fill="#3F42FF"/>
<path opacity="0.1" d="M118.587 26.8594C118.587 26.8594 117.787 30.8778 114.405 30.8778C111.022 30.8778 110.23 26.8594 110.23 26.8594H118.587Z" fill="black"/>
<path d="M118.582 26.8679H126.935L123.204 9.58844C122.896 8.16188 121.385 7.12109 119.606 7.12109H115.184L118.582 26.8679Z" fill="white"/>
<path d="M118.584 26.8675L126.937 26.8153L126.885 26.8796L124.018 13.7593L123.302 10.4802C123.226 9.9337 123.071 9.40326 122.843 8.90095C121.979 7.36589 120.12 7.10871 118.512 7.20515H115.174L115.254 7.10871C116.11 12.0233 117.785 21.9369 118.584 26.8675ZM118.584 26.8675L116.829 17.0223L115.106 7.1288L115.086 7.03638H115.186H118.524C120.472 6.87966 122.843 7.43823 123.322 9.62829C123.922 12.4412 126.361 23.8617 127.001 26.8675V26.9318H126.937L118.584 26.8675Z" fill="#263238"/>
<path d="M126.946 26.8594C126.946 26.8594 126.146 30.8778 122.772 30.8778C119.397 30.8778 118.598 26.8594 118.598 26.8594H126.946Z" fill="#EBEBEB"/>
<path d="M100.438 65.5469H61.5703V104.61H100.438V65.5469Z" fill="#3F42FF"/>
<path d="M93.7715 84.2462H68.2305V80.6055H93.7715V84.2462Z" fill="white"/>
<path d="M92.3466 83.4727L91.503 96.9787H70.5L69.6523 83.4727H92.3466Z" fill="white"/>
<path d="M83.7109 82.0137C83.7109 83.5206 82.4954 84.7422 80.9961 84.7422C79.4967 84.7422 78.2812 83.5206 78.2812 82.0137C78.2812 80.5068 79.4967 79.2852 80.9961 79.2852C82.4914 79.2892 83.7069 80.5068 83.7109 82.0137Z" fill="white"/>
<path d="M77.4221 86.3949V94.1666C77.4261 94.5484 77.1223 94.8618 76.7424 94.8658C76.7384 94.8658 76.7384 94.8658 76.7344 94.8658H76.6225C76.3066 94.8618 76.0507 94.6046 76.0547 94.2872V86.3949C76.0587 86.0814 76.3106 85.8283 76.6225 85.8243H76.8464C77.1583 85.8202 77.4181 86.0734 77.4221 86.3868C77.4221 86.3909 77.4221 86.3909 77.4221 86.3949Z" fill="#3F42FF"/>
<path d="M81.68 86.3948V94.1665C81.684 94.5483 81.3801 94.8617 81.0003 94.8657C80.9963 94.8657 80.9963 94.8657 80.9923 94.8657H80.8803C80.5644 94.8617 80.3085 94.6045 80.3125 94.2871V86.3948C80.3165 86.0813 80.5684 85.8322 80.8803 85.8282H81.1042C81.4161 85.8242 81.676 86.0773 81.68 86.3908V86.3948Z" fill="#3F42FF"/>
<path d="M85.93 86.3949V94.1666C85.934 94.5484 85.6301 94.8618 85.2503 94.8658C85.2463 94.8658 85.2463 94.8658 85.2423 94.8658H85.1303C84.8144 94.8618 84.5585 94.6046 84.5625 94.2872V86.3949C84.5665 86.0814 84.8184 85.8283 85.1303 85.8243H85.3542C85.6661 85.8202 85.926 86.0734 85.93 86.3868C85.93 86.3909 85.93 86.3909 85.93 86.3949Z" fill="#3F42FF"/>
<path d="M88.4484 81.7938H87.2489V74.5766H74.7503V81.7938H73.5508V73.3711H88.4484V81.7938Z" fill="white"/>
<path d="M105.127 69.8584C107.488 67.2499 107.298 63.2115 104.703 60.8385C102.107 58.4655 98.0893 58.6565 95.7282 61.265C93.3672 63.8736 93.5572 67.912 96.1526 70.285C98.7481 72.658 102.766 72.467 105.127 69.8584Z" fill="#455A64"/>
<path d="M101.751 64.8856C102.171 65.2995 102.407 65.8661 102.407 66.4568C102.411 67.6905 101.419 68.6951 100.192 68.6991C99.6 68.6991 99.0283 68.4661 98.6085 68.0401C98.3966 67.8593 98.3686 67.5338 98.5485 67.3208C98.7284 67.1078 99.0523 67.0797 99.2642 67.2605C99.2842 67.2766 99.3042 67.2967 99.3242 67.3208C99.5481 67.5498 99.8559 67.6744 100.176 67.6744C100.5 67.6784 100.808 67.5498 101.035 67.3208C101.267 67.0917 101.395 66.7823 101.395 66.4568C101.395 66.1353 101.267 65.8259 101.035 65.6049C100.812 65.3758 100.504 65.2432 100.184 65.2432C100.044 65.2513 99.9079 65.191 99.8159 65.0825C99.62 64.8816 99.62 64.5601 99.8159 64.3592L100.728 63.4269H99.2762C98.9963 63.4028 98.7924 63.1536 98.8164 62.8723C98.8364 62.6272 99.0323 62.4303 99.2762 62.4102H101.919C102.199 62.4062 102.427 62.6272 102.431 62.9085V62.9125C102.427 62.9969 102.407 63.0813 102.367 63.1536C102.343 63.2019 102.315 63.242 102.279 63.2822L101.147 64.4516C101.371 64.5561 101.579 64.7048 101.751 64.8856Z" fill="white"/>
<path d="M146.941 163.622H105.466C105.007 163.622 104.636 163.253 104.636 162.796V157.878C104.636 157.862 104.636 157.846 104.636 157.831C104.636 157.815 104.636 157.774 104.636 157.742L109.674 139.421L103.18 99.366L101.011 98.6161C100.587 98.4428 100.384 97.9607 100.559 97.5385C100.707 97.1762 101.09 96.9714 101.477 97.0407L104.152 97.9387C104.462 98.0301 104.69 98.2884 104.738 98.6066L111.336 139.314C111.355 139.405 111.355 139.5 111.336 139.591L106.466 157.147L145.092 159.878C145.308 159.894 145.507 159.989 145.653 160.146L147.552 162.245C147.86 162.585 147.831 163.105 147.489 163.41C147.337 163.546 147.141 163.622 146.938 163.622H146.941ZM106.305 161.974H145.073L144.646 161.501L106.305 158.788V161.974Z" fill="#C7C7C7"/>
<path d="M162.123 112.381H106.229C105.774 112.409 105.378 112.062 105.349 111.609C105.321 111.155 105.669 110.761 106.125 110.733C106.16 110.73 106.195 110.73 106.226 110.733H162.12C162.576 110.704 162.972 111.051 163 111.505C163.029 111.958 162.68 112.352 162.224 112.381C162.19 112.384 162.155 112.384 162.123 112.381Z" fill="#C7C7C7"/>
<path d="M110.514 139.715C110.362 139.699 110.251 139.561 110.267 139.409C110.28 139.28 110.384 139.176 110.514 139.164L152.502 136.93L160.769 111.475C160.817 111.33 160.972 111.252 161.114 111.299C161.114 111.299 161.114 111.299 161.117 111.299C161.26 111.349 161.333 111.504 161.282 111.645C161.282 111.649 161.279 111.652 161.279 111.655L152.952 137.289C152.917 137.399 152.819 137.475 152.705 137.481L110.53 139.712L110.514 139.715Z" fill="#C7C7C7"/>
<path d="M153.414 135.173H109.748C109.596 135.173 109.473 135.05 109.473 134.899C109.473 134.748 109.596 134.625 109.748 134.625C109.748 134.625 109.748 134.625 109.751 134.625H153.418C153.57 134.625 153.693 134.748 153.693 134.899C153.687 135.05 153.563 135.173 153.414 135.173Z" fill="#C7C7C7"/>
<path d="M154.526 131.822H109.232C109.081 131.822 108.957 131.699 108.957 131.548C108.957 131.396 109.081 131.273 109.232 131.273H154.526C154.678 131.273 154.802 131.396 154.802 131.548C154.798 131.699 154.675 131.822 154.526 131.822Z" fill="#C7C7C7"/>
<path d="M155.55 128.49H108.721C108.569 128.475 108.458 128.336 108.474 128.185C108.487 128.056 108.591 127.952 108.721 127.939H155.55C155.702 127.923 155.842 128.034 155.857 128.185C155.873 128.336 155.762 128.475 155.611 128.49C155.588 128.494 155.569 128.494 155.55 128.49Z" fill="#C7C7C7"/>
<path d="M156.667 125.144H108.207C108.055 125.159 107.916 125.049 107.9 124.898C107.884 124.747 107.995 124.608 108.147 124.592C108.166 124.589 108.188 124.589 108.207 124.592H156.667C156.819 124.608 156.93 124.747 156.914 124.898C156.898 125.027 156.797 125.131 156.667 125.144Z" fill="#C7C7C7"/>
<path d="M157.725 121.802H107.701C107.549 121.802 107.426 121.679 107.426 121.528C107.426 121.377 107.549 121.254 107.701 121.254C107.701 121.254 107.701 121.254 107.704 121.254H157.728C157.88 121.254 158.004 121.377 158.004 121.528C158 121.679 157.877 121.802 157.725 121.802Z" fill="#C7C7C7"/>
<path d="M158.863 118.462H107.174C107.022 118.462 106.898 118.339 106.898 118.188C106.898 118.037 107.022 117.914 107.174 117.914H158.863C159.015 117.914 159.139 118.037 159.139 118.188C159.135 118.339 159.012 118.462 158.863 118.462Z" fill="#C7C7C7"/>
<path d="M159.954 115.119H106.666C106.514 115.119 106.391 114.996 106.391 114.844C106.391 114.693 106.514 114.57 106.666 114.57C106.666 114.57 106.666 114.57 106.669 114.57H159.957C160.109 114.57 160.233 114.693 160.233 114.844C160.23 114.996 160.106 115.119 159.954 115.119Z" fill="#C7C7C7"/>
<path d="M114.288 139.381C114.143 139.381 114.022 139.27 114.013 139.125L111.892 111.579C111.879 111.431 111.99 111.298 112.142 111.286H112.145C112.297 111.276 112.427 111.387 112.443 111.538L114.564 139.066C114.573 139.217 114.462 139.346 114.31 139.359L114.288 139.381Z" fill="#C7C7C7"/>
<path d="M148.517 137.569C148.495 137.572 148.469 137.572 148.447 137.569C148.302 137.528 148.213 137.38 148.251 137.232L155.283 111.497C155.324 111.352 155.473 111.264 155.622 111.302C155.767 111.343 155.856 111.491 155.815 111.639L148.786 137.374C148.748 137.49 148.637 137.569 148.517 137.569Z" fill="#C7C7C7"/>
<path d="M118.698 139.159C118.549 139.156 118.426 139.036 118.423 138.888L117.738 111.565C117.735 111.414 117.856 111.288 118.008 111.281C118.156 111.281 118.28 111.401 118.286 111.549L118.967 138.875C118.971 139.026 118.85 139.152 118.698 139.159Z" fill="#C7C7C7"/>
<path d="M123.226 138.913C123.074 138.91 122.954 138.784 122.957 138.633L123.464 111.552C123.467 111.404 123.591 111.284 123.739 111.281C123.892 111.284 124.012 111.41 124.009 111.562L123.502 138.658C123.489 138.803 123.369 138.913 123.226 138.913Z" fill="#C7C7C7"/>
<path d="M143.704 137.783H143.65C143.504 137.754 143.406 137.612 143.435 137.467L148.776 111.518C148.807 111.376 148.947 111.282 149.092 111.304C149.238 111.335 149.333 111.474 149.308 111.619L143.967 137.568C143.938 137.691 143.83 137.779 143.704 137.783Z" fill="#C7C7C7"/>
<path d="M138.213 138.12H138.168C138.02 138.095 137.918 137.953 137.941 137.805L142.265 111.528C142.291 111.38 142.433 111.279 142.582 111.305C142.731 111.33 142.832 111.468 142.807 111.617V111.62L138.485 137.881C138.466 138.016 138.349 138.117 138.213 138.12Z" fill="#C7C7C7"/>
<path d="M127.858 138.653H127.836C127.687 138.644 127.573 138.515 127.583 138.363V138.36L129.599 111.538C129.612 111.387 129.742 111.274 129.894 111.286C130.046 111.299 130.16 111.428 130.15 111.579L128.133 138.401C128.121 138.543 128.001 138.653 127.858 138.653Z" fill="#C7C7C7"/>
<path d="M133.289 138.306H133.258C133.106 138.288 132.995 138.152 133.014 137.998C133.014 137.994 133.014 137.991 133.014 137.991L135.971 111.525C135.987 111.374 136.123 111.267 136.275 111.283C136.427 111.299 136.535 111.434 136.519 111.585L133.562 138.051C133.549 138.193 133.432 138.306 133.289 138.306Z" fill="#C7C7C7"/>
<path d="M110.847 167.914C112.556 167.914 113.94 166.536 113.94 164.836C113.94 163.136 112.556 161.758 110.847 161.758C109.139 161.758 107.754 163.136 107.754 164.836C107.754 166.536 109.139 167.914 110.847 167.914Z" fill="#263238"/>
<path d="M112.253 164.833C112.253 165.604 111.623 166.231 110.847 166.231C110.071 166.231 109.441 165.604 109.441 164.833C109.441 164.061 110.071 163.434 110.847 163.434C111.623 163.434 112.253 164.061 112.253 164.833Z" fill="#EBEBEB"/>
<path d="M138.527 167.914C140.235 167.914 141.62 166.536 141.62 164.836C141.62 163.136 140.235 161.758 138.527 161.758C136.818 161.758 135.434 163.136 135.434 164.836C135.434 166.536 136.818 167.914 138.527 167.914Z" fill="#263238"/>
<path d="M139.933 164.833C139.933 165.604 139.303 166.231 138.527 166.231C137.751 166.231 137.121 165.604 137.121 164.833C137.121 164.061 137.751 163.434 138.527 163.434C139.303 163.434 139.933 164.061 139.933 164.833Z" fill="#EBEBEB"/>
<path d="M103.305 99.5342C103.191 99.5342 103.077 99.5153 102.97 99.4743L98.6133 97.8296C98.1225 97.6437 97.8756 97.0987 98.0624 96.6103C98.2492 96.1219 98.7969 95.8762 99.2876 96.0621L103.657 97.7067C104.148 97.8926 104.391 98.4409 104.201 98.9292C104.062 99.2947 103.711 99.5342 103.318 99.5342H103.305Z" fill="#3F42FF"/>
<path d="M68.2195 168.014H18.8555L26.0554 117.633H61.0242L68.2195 168.014Z" fill="#37474F"/>
<path d="M61.0214 117.633L55.5391 168.014H68.2213L61.0214 117.633Z" fill="#455A64"/>
<path d="M35.9029 121.108L34.3594 120.782C34.3594 120.736 35.2754 116.505 36.2189 112.233C37.254 107.617 41.7883 105.492 45.576 106.102C48.4111 106.561 51.553 108.778 51.0721 113.513C50.5637 118.561 50.1561 120.97 50.1561 121.071L48.5988 120.819C48.5988 120.819 48.9927 118.368 49.492 113.357C49.8538 109.718 47.5683 108.03 45.3058 107.663C42.2417 107.167 38.573 108.87 37.7395 112.577C36.8051 116.822 35.912 121.067 35.9029 121.108Z" fill="#263238"/>
<path d="M56.207 167.628C57.2192 166.903 58.2726 166.251 59.3215 165.577C60.3703 164.902 61.4421 164.292 62.5275 163.677L62.6741 163.59L62.8115 163.691C63.6451 164.319 64.4787 164.948 65.2893 165.609C66.1 166.27 66.9153 166.921 67.6939 167.623C66.7779 167.082 65.926 166.504 65.0649 165.912C64.2038 165.32 63.3474 164.723 62.5046 164.108H62.784C61.7169 164.737 60.6314 165.343 59.5413 165.944C58.4513 166.545 57.3383 167.109 56.207 167.628Z" fill="white"/>
<path d="M62.6501 163.902C62.4348 160.69 62.2745 157.478 62.1234 154.266C61.9723 151.053 61.8623 147.841 61.7341 144.629C61.6058 141.417 61.5326 138.205 61.4639 134.992L61.3768 130.128C61.3768 128.522 61.3356 126.916 61.3402 125.301C61.4547 126.907 61.5326 128.513 61.6333 130.119L61.8715 134.942C62.0226 138.154 62.128 141.366 62.2562 144.579C62.3845 147.791 62.4577 151.003 62.5219 154.215C62.586 157.427 62.6501 160.681 62.6501 163.902Z" fill="white"/>
<path d="M37.2266 120.953C37.2312 122.114 36.2923 123.054 35.1335 123.059C33.9748 123.063 33.0358 122.123 33.0313 120.962C33.0267 119.801 33.9656 118.86 35.1244 118.855C35.1289 118.855 35.1289 118.855 35.1335 118.855C36.2877 118.86 37.222 119.796 37.2266 120.953Z" fill="#263238"/>
<path d="M51.3282 120.953C51.3328 122.114 50.3938 123.054 49.2351 123.059C48.0763 123.063 47.1374 122.123 47.1328 120.962C47.1282 119.801 48.0672 118.86 49.2259 118.855C49.2305 118.855 49.2305 118.855 49.2351 118.855C50.3893 118.86 51.3236 119.796 51.3282 120.953Z" fill="#263238"/>
<path d="M42.9382 168.015H0L6.26096 124.191H36.6773L42.9382 168.015Z" fill="#3F42FF"/>
<path d="M36.6787 124.191L31.9062 168.015H42.9397L36.6787 124.191Z" fill="#3F42FF"/>
<path opacity="0.1" d="M36.6787 124.191L31.9062 168.015H42.9397L36.6787 124.191Z" fill="black"/>
<path d="M14.8309 127.215L13.4844 126.93C13.4844 126.893 14.2721 123.209 15.1057 119.496C16.0217 115.476 19.9469 113.632 23.2399 114.164C25.7086 114.563 28.4429 116.49 28.0307 120.588C27.5727 124.998 27.2521 127.077 27.2384 127.164L25.8643 126.944C25.8643 126.921 26.2033 124.815 26.6429 120.455C26.959 117.289 24.9666 115.82 22.9789 115.499C20.3179 115.068 17.1255 116.55 16.4019 119.776C15.6141 123.502 14.8355 127.178 14.8309 127.215Z" fill="#263238"/>
<path d="M32.4883 167.678C33.3722 167.05 34.2837 166.472 35.1997 165.898C36.1157 165.324 37.0317 164.774 37.9844 164.241L38.1126 164.168L38.2271 164.255C38.9554 164.801 39.679 165.347 40.3843 165.921C41.0897 166.495 41.7996 167.064 42.4774 167.674C41.6988 167.215 40.9385 166.701 40.1874 166.187C39.4363 165.673 38.6943 165.15 37.9615 164.618H38.2088C37.2928 165.164 36.3355 165.691 35.3829 166.205C34.4302 166.719 33.473 167.229 32.4883 167.678Z" fill="white"/>
<path d="M38.094 164.435C37.9062 161.64 37.7642 158.845 37.636 156.051C37.5077 153.256 37.4115 150.457 37.297 147.658C37.1825 144.859 37.123 142.064 37.0634 139.265L36.9856 135.066C36.9856 133.666 36.9489 132.267 36.9535 130.867C37.0543 132.244 37.123 133.662 37.21 135.057L37.4161 139.251C37.5489 142.05 37.6405 144.845 37.755 147.644C37.8695 150.443 37.9291 153.238 37.984 156.037C38.039 158.836 38.094 161.635 38.094 164.435Z" fill="white"/>
<path d="M15.9805 127.074C15.9805 128.088 15.1606 128.909 14.1484 128.909C13.1362 128.909 12.3164 128.088 12.3164 127.074C12.3164 126.06 13.1362 125.238 14.1484 125.238C15.1606 125.238 15.9805 126.06 15.9805 127.074Z" fill="#263238"/>
<path d="M28.2461 127.074C28.2461 128.088 27.4263 128.909 26.4141 128.909C25.4019 128.909 24.582 128.088 24.582 127.074C24.582 126.06 25.4019 125.238 26.4141 125.238C27.4263 125.238 28.2461 126.06 28.2461 127.074Z" fill="#263238"/>
<path fill-rule="evenodd" clip-rule="evenodd" d="M138.033 103.493C137.451 103.131 136.943 102.603 136.169 102.681C135.871 102.713 135.935 102.465 135.935 102.3C135.935 99.377 135.921 96.4539 135.898 93.5354C135.898 93.3243 135.898 93.1453 136.141 93.0306C138.367 91.8972 139.324 89.6807 140.685 87.781C142.091 85.8766 142.663 83.4812 142.278 81.1455C142.182 80.4893 142.485 80.191 143.075 80.0579C143.79 79.8927 144.5 80.0855 144.743 80.5765C145.388 81.765 145.823 83.059 146.03 84.399C146.162 85.5095 145.768 86.5879 145.636 87.6846C145.535 88.4876 145.352 89.2815 145.201 90.0937C145.398 90.236 145.622 90.1626 145.833 90.1672H153.225C154.265 90.1672 154.773 90.4608 154.92 91.1492C155.084 92.0211 154.649 92.8975 153.857 93.2922C153.669 93.3885 153.339 93.2922 153.316 93.595C153.294 93.8979 153.637 93.8566 153.807 93.9759C154.723 94.5862 154.539 95.8482 153.513 96.587C153.262 96.7613 152.781 96.6787 152.771 97.0458C152.771 97.3349 153.229 97.3303 153.422 97.5368C154.145 98.2481 153.793 99.5789 152.716 100.12C152.57 100.166 152.423 100.221 152.286 100.29C152.162 100.373 152.043 100.465 152.286 100.634C153.353 101.391 153.335 102.47 152.263 103.236L151.942 103.466C151.553 103.704 151.1 103.805 150.646 103.755C146.781 103.778 142.915 103.791 139.054 103.796C138.683 103.837 138.317 103.727 138.033 103.493Z" fill="#EBEBEB"/>
<path fill-rule="evenodd" clip-rule="evenodd" d="M127.027 98.3769C127.027 96.5413 127.027 94.6645 127 92.806C127 92.4297 127.037 92.2416 127.499 92.2462C129.762 92.2691 132.02 92.2691 134.278 92.2462C134.736 92.2462 134.791 92.393 134.791 92.7877C134.791 96.523 134.804 100.258 134.827 103.994C134.827 104.453 134.704 104.604 134.227 104.599C132.038 104.599 129.844 104.599 127.65 104.627C127.105 104.627 127.032 104.443 127.037 103.966C127.055 102.089 127.032 100.235 127.027 98.3769Z" fill="#EBEBEB"/>
<path d="M104.145 38.4141L105.666 40.6855L108.295 41.4335L106.609 43.5811L106.71 46.3161L104.145 45.3753L101.585 46.3161L101.685 43.5811L100 41.4335L102.624 40.6855L104.145 38.4141Z" fill="#EBEBEB"/>
<path d="M115.872 38.4141L117.392 40.6855L120.017 41.4335L118.331 43.5811L118.432 46.3161L115.872 45.3753L113.311 46.3161L113.412 43.5811L111.727 41.4335L114.351 40.6855L115.872 38.4141Z" fill="#EBEBEB"/>
<path d="M127.59 38.4141L129.111 40.6855L131.735 41.4335L130.05 43.5811L130.155 46.3161L127.59 45.3753L125.03 46.3161L125.131 43.5811L123.445 41.4335L126.07 40.6855L127.59 38.4141Z" fill="#EBEBEB"/>
<path d="M139.317 38.4141L140.837 40.6855L143.462 41.4335L141.776 43.5811L141.877 46.3161L139.317 45.3753L136.752 46.3161L136.857 43.5811L135.172 41.4335L137.796 40.6855L139.317 38.4141Z" fill="#EBEBEB"/>
<path d="M148.233 46.6454L148.348 43.658L146.516 41.304L149.387 40.4872L151.05 38L152.717 40.4872L155.589 41.304L153.757 43.658L153.867 46.6454L151.064 45.6175L148.233 46.6454ZM151.036 45.1173L153.358 45.9708L153.267 43.4974L154.792 41.5472L152.415 40.8726L151.041 38.8168L149.667 40.8726L147.29 41.5472L148.815 43.4974L148.723 45.9708L151.036 45.1173Z" fill="#EBEBEB"/>
<path d="M151.04 45.3753V38.4141L149.519 40.6855L146.895 41.4335L148.58 43.5811L148.479 46.3161L151.04 45.3753Z" fill="#EBEBEB"/>
<path d="M10.0579 84.5483C10.6533 90.2476 15.7418 94.3867 21.4302 93.7902C23.6424 93.5607 25.7263 92.62 27.366 91.1103L32.5461 91.8904L29.9538 87.4025C30.6041 85.824 30.8514 84.1031 30.6682 82.4053C30.0728 76.7013 24.9752 72.5622 19.2822 73.1587C13.5891 73.7553 9.45791 78.8627 10.0579 84.5666V84.5483Z" fill="white"/>
<path d="M13.159 75.9727C17.2994 71.9346 23.9222 72.0218 27.9527 76.1655C30.8565 79.1528 31.7175 83.581 30.142 87.4449V87.2659L32.7206 91.763L32.9129 92.0979L32.5374 92.0383L27.3573 91.2398L27.4809 91.2031C26.0428 92.5109 24.2657 93.3874 22.3558 93.7408C21.8841 93.8279 21.4032 93.8784 20.9223 93.8876C20.4414 93.9151 19.9605 93.906 19.4841 93.8601C18.5269 93.7683 17.588 93.5434 16.6949 93.1947C15.8018 92.8551 14.959 92.3916 14.1941 91.818C13.8094 91.5381 13.4476 91.2307 13.1041 90.9003C12.7697 90.5607 12.4537 90.1982 12.1652 89.8173C8.94995 85.6185 9.38506 79.6714 13.1728 75.9865L13.159 75.9727ZM12.1789 89.7806C12.7514 90.5423 13.4384 91.2169 14.217 91.7675C14.9773 92.3366 15.8201 92.7909 16.7132 93.1167C17.6063 93.4471 18.5361 93.6536 19.4841 93.727C19.9559 93.7591 20.4276 93.7591 20.8994 93.727C21.3711 93.704 21.8429 93.649 22.3055 93.5526C24.165 93.1809 25.8825 92.2907 27.2657 90.992L27.3161 90.9461H27.3894L32.574 91.6758L32.3908 91.9465L29.7801 87.4678L29.7343 87.3852L29.771 87.2888C30.3435 85.8571 30.5954 84.3107 30.4992 82.7688C30.3985 81.2224 29.9496 79.7218 29.1847 78.3773C28.4061 77.0374 27.3481 75.881 26.084 74.9907C24.8062 74.1051 23.3406 73.5269 21.8062 73.2975C16.214 72.4347 10.9881 76.2802 10.127 81.8786C9.6965 84.6778 10.4431 87.5366 12.1881 89.7668L12.1789 89.7806Z" fill="#263238"/>
<path d="M19.2219 89.3798L14.793 84.8919L16.2815 83.4234L18.8647 86.0437L24.2371 77.6094L25.9958 78.7336L19.2219 89.3798Z" fill="#3F42FF"/>
</g>
<defs>
<clipPath id="clip0_441_11979">
<rect width="163" height="168" fill="white"/>
</clipPath>
</defs>
</svg>
