<svg width="20" height="20" viewBox="0 0 20 20" fill="none" xmlns="http://www.w3.org/2000/svg">
<path d="M2.70673 14.8083L1.95894 14.7507L2.70673 14.8083ZM17.2926 14.8083L18.0404 14.7507L17.2926 14.8083ZM16.8439 8.97493L16.0961 9.03245L16.8439 8.97493ZM3.15545 8.97493L3.90324 9.03245L3.15545 8.97493ZM7.50801 9.91667C7.92222 9.91667 8.25801 9.58088 8.25801 9.16667C8.25801 8.75245 7.92222 8.41667 7.50801 8.41667V9.91667ZM7.49967 8.41667C7.08546 8.41667 6.74967 8.75245 6.74967 9.16667C6.74967 9.58088 7.08546 9.91667 7.49967 9.91667V8.41667ZM12.508 9.91667C12.9222 9.91667 13.258 9.58088 13.258 9.16667C13.258 8.75245 12.9222 8.41667 12.508 8.41667V9.91667ZM12.4997 8.41667C12.0855 8.41667 11.7497 8.75245 11.7497 9.16667C11.7497 9.58088 12.0855 9.91667 12.4997 9.91667V8.41667ZM5.64808 7.41667H14.3513V5.91667H5.64808V7.41667ZM16.0961 9.03245L16.5448 14.8658L18.0404 14.7507L17.5917 8.9174L16.0961 9.03245ZM14.8 16.75H5.19937V18.25H14.8V16.75ZM3.45452 14.8658L3.90324 9.03245L2.40766 8.91741L1.95894 14.7507L3.45452 14.8658ZM5.19937 16.75C4.17997 16.75 3.37634 15.8822 3.45452 14.8658L1.95894 14.7507C1.81374 16.6383 3.30621 18.25 5.19937 18.25V16.75ZM16.5448 14.8658C16.623 15.8822 15.8194 16.75 14.8 16.75V18.25C16.6931 18.25 18.1856 16.6383 18.0404 14.7507L16.5448 14.8658ZM14.3513 7.41667C15.2657 7.41667 16.026 8.1207 16.0961 9.03245L17.5917 8.9174C17.4614 7.22416 16.0495 5.91667 14.3513 5.91667V7.41667ZM5.64808 5.91667C3.94984 5.91667 2.53791 7.22417 2.40766 8.91741L3.90324 9.03245C3.97337 8.1207 4.73365 7.41667 5.64808 7.41667V5.91667ZM11.7497 5V6.66667H13.2497V5H11.7497ZM8.24967 6.66667V5H6.74967V6.66667H8.24967ZM9.99967 3.25C10.9662 3.25 11.7497 4.0335 11.7497 5H13.2497C13.2497 3.20507 11.7946 1.75 9.99967 1.75V3.25ZM9.99967 1.75C8.20475 1.75 6.74967 3.20507 6.74967 5H8.24967C8.24967 4.0335 9.03318 3.25 9.99967 3.25V1.75ZM7.50801 8.41667H7.49967V9.91667H7.50801V8.41667ZM12.508 8.41667H12.4997V9.91667H12.508V8.41667Z" fill="#38A169"/>
</svg>
