<svg width="21" height="20" viewBox="0 0 21 20" fill="none" xmlns="http://www.w3.org/2000/svg">
<path d="M10.5 3.06258C12.7958 3.06258 15.0833 3.06547 17.2358 3.06521C17.68 3.14021 18 3.52855 18 3.97855V4.84855C18 5.09478 17.9515 5.3386 17.8573 5.56608C17.7631 5.79357 17.6249 6.00027 17.4508 6.17438L12.9242 10.701C12.7501 10.8752 12.6119 11.0819 12.5177 11.3093C12.4235 11.5368 12.375 11.7807 12.375 12.0269V14.466C12.3751 14.8144 12.2781 15.1558 12.095 15.4521C11.9119 15.7484 11.6499 15.9878 11.3383 16.1435L8.625 17.5002V12.0269C8.625 11.7807 8.57651 11.5368 8.48228 11.3093C8.38805 11.0819 8.24994 10.8752 8.07583 10.701L3.54917 6.17438C3.37506 6.00027 3.23695 5.79357 3.14272 5.56608C3.04849 5.3386 3 5.09478 3 4.84855V3.97855C3 3.52855 3.32 3.14021 3.76417 3.06521C5.91667 3.06744 8.24286 3.06179 10.5 3.06258Z" stroke="#000080" stroke-linecap="round" stroke-linejoin="round"/>
</svg>
