<svg width="40" height="40" viewBox="0 0 40 40" fill="none" xmlns="http://www.w3.org/2000/svg">
<rect x="5" y="24.5195" width="18.9522" height="6.03025" rx="3.01513" fill="white" stroke="#3AC1FF" stroke-width="2"/>
<rect x="8.44141" y="6" width="18.9522" height="6.03025" rx="3.01513" stroke="#3AC1FF" stroke-width="2"/>
<rect x="5" y="12.0273" width="18.9522" height="6.03025" rx="3.01513" stroke="#3AC1FF" stroke-width="2"/>
<rect x="7.58594" y="18.0586" width="18.9522" height="6.03025" rx="3.01513" stroke="#3AC1FF" stroke-width="2"/>
<ellipse cx="25.8845" cy="23.8752" rx="10.1149" ry="10.1252" fill="white" stroke="#3AC1FF" stroke-width="2"/>
<path d="M25.9373 30.5116C25.6816 30.5116 25.4657 30.4214 25.2894 30.2411C25.1131 30.0608 25.0249 29.8355 25.0249 29.565V28.5644L25.4216 28.9295C24.831 28.9024 24.3197 28.8258 23.8877 28.6996C23.4558 28.5734 23.1032 28.4472 22.8299 28.321C22.6007 28.2128 22.4376 28.0596 22.3407 27.8612C22.2525 27.6629 22.2172 27.4601 22.2349 27.2527C22.2613 27.0454 22.3363 26.8561 22.4597 26.6848C22.5831 26.5135 22.7418 26.4008 22.9357 26.3468C23.1384 26.2837 23.372 26.3107 23.6365 26.4279C23.8128 26.5271 24.0773 26.6307 24.4299 26.7389C24.7913 26.8381 25.2365 26.8876 25.7654 26.8876C26.1356 26.8876 26.4265 26.8516 26.6381 26.7795C26.8585 26.7073 27.0127 26.6127 27.1009 26.4955C27.1979 26.3693 27.2463 26.2341 27.2463 26.0898C27.2463 25.9546 27.2111 25.8419 27.1406 25.7518C27.0789 25.6526 26.9731 25.567 26.8232 25.4949C26.6734 25.4137 26.4662 25.3416 26.2017 25.2785L24.7076 24.954C23.8877 24.7647 23.2751 24.4492 22.8696 24.0074C22.4729 23.5567 22.2745 22.9752 22.2745 22.2631C22.2745 21.7222 22.4024 21.2399 22.658 20.8162C22.9225 20.3835 23.2883 20.0319 23.7555 19.7615C24.2315 19.4911 24.7869 19.3198 25.4216 19.2477L25.0249 19.4775V18.5715C25.0249 18.3011 25.1131 18.0757 25.2894 17.8954C25.4657 17.7151 25.6816 17.625 25.9373 17.625C26.2017 17.625 26.4221 17.7151 26.5984 17.8954C26.7747 18.0757 26.8629 18.3011 26.8629 18.5715V19.4775L26.4662 19.2206C26.8012 19.2296 27.1626 19.2882 27.5505 19.3964C27.9383 19.4956 28.2777 19.6353 28.5686 19.8156C28.7714 19.9238 28.9124 20.0725 28.9918 20.2618C29.0799 20.4511 29.1108 20.6449 29.0843 20.8433C29.0667 21.0326 28.9962 21.2038 28.8728 21.3571C28.7582 21.5104 28.5995 21.614 28.3967 21.6681C28.2028 21.7132 27.9692 21.6771 27.6959 21.5599C27.4932 21.4698 27.264 21.3977 27.0083 21.3436C26.7615 21.2805 26.4442 21.2489 26.0563 21.2489C25.5891 21.2489 25.2277 21.3346 24.972 21.5058C24.7252 21.6771 24.6018 21.898 24.6018 22.1684C24.6018 22.3487 24.6723 22.502 24.8133 22.6282C24.9632 22.7454 25.2321 22.849 25.6199 22.9392L27.1273 23.2772C27.9648 23.4665 28.5819 23.7821 28.9785 24.2238C29.384 24.6565 29.5868 25.2199 29.5868 25.914C29.5868 26.4549 29.459 26.9327 29.2033 27.3474C28.9477 27.7621 28.5907 28.1001 28.1323 28.3616C27.6827 28.623 27.1582 28.7943 26.5588 28.8754L26.8629 28.5509V29.565C26.8629 29.8355 26.7747 30.0608 26.5984 30.2411C26.4309 30.4214 26.2106 30.5116 25.9373 30.5116Z" fill="#3AC1FF"/>
</svg>
