<svg width="16" height="16" viewBox="0 0 16 16" fill="none" xmlns="http://www.w3.org/2000/svg">
<path d="M13.8333 1.33301C13.8333 1.05687 13.6095 0.833008 13.3333 0.833008C13.0572 0.833008 12.8333 1.05687 12.8333 1.33301H13.8333ZM12.8333 3.99967C12.8333 4.27582 13.0572 4.49967 13.3333 4.49967C13.6095 4.49967 13.8333 4.27582 13.8333 3.99967H12.8333ZM12 2.16634C11.7239 2.16634 11.5 2.3902 11.5 2.66634C11.5 2.94248 11.7239 3.16634 12 3.16634V2.16634ZM14.6667 3.16634C14.9428 3.16634 15.1667 2.94248 15.1667 2.66634C15.1667 2.3902 14.9428 2.16634 14.6667 2.16634V3.16634ZM14.5 5.99967C14.5 5.72353 14.2761 5.49967 14 5.49967C13.7239 5.49967 13.5 5.72353 13.5 5.99967H14.5ZM4 10.1663C3.72386 10.1663 3.5 10.3902 3.5 10.6663C3.5 10.9425 3.72386 11.1663 4 11.1663V10.1663ZM8.66667 11.1663C8.94281 11.1663 9.16667 10.9425 9.16667 10.6663C9.16667 10.3902 8.94281 10.1663 8.66667 10.1663V11.1663ZM12 11.1663C12.2761 11.1663 12.5 10.9425 12.5 10.6663C12.5 10.3902 12.2761 10.1663 12 10.1663V11.1663ZM10.6667 10.1663C10.3905 10.1663 10.1667 10.3902 10.1667 10.6663C10.1667 10.9425 10.3905 11.1663 10.6667 11.1663V10.1663ZM12.8333 1.33301V2.66634H13.8333V1.33301H12.8333ZM12.8333 2.66634V3.99967H13.8333V2.66634H12.8333ZM12 3.16634H13.3333V2.16634H12V3.16634ZM13.3333 3.16634H14.6667V2.16634H13.3333V3.16634ZM4 3.83301H10V2.83301H4V3.83301ZM13.5 5.99967V10.6663H14.5V5.99967H13.5ZM12 12.1663H4V13.1663H12V12.1663ZM2.5 10.6663V5.33301H1.5V10.6663H2.5ZM4 12.1663C3.17157 12.1663 2.5 11.4948 2.5 10.6663H1.5C1.5 12.0471 2.61929 13.1663 4 13.1663V12.1663ZM13.5 10.6663C13.5 11.4948 12.8284 12.1663 12 12.1663V13.1663C13.3807 13.1663 14.5 12.0471 14.5 10.6663H13.5ZM4 2.83301C2.61929 2.83301 1.5 3.9523 1.5 5.33301H2.5C2.5 4.50458 3.17157 3.83301 4 3.83301V2.83301ZM4 11.1663H8.66667V10.1663H4V11.1663ZM12 10.1663H10.6667V11.1663H12V10.1663Z" fill="white"/>
</svg>
