<svg width="16" height="16" viewBox="0 0 16 16" fill="none" xmlns="http://www.w3.org/2000/svg">
<path d="M9.66667 12.6663H4C2.89543 12.6663 2 11.7709 2 10.6663V5.33301C2 4.22844 2.89543 3.33301 4 3.33301H11.3333C12.4379 3.33301 13.3333 4.22844 13.3333 5.33301V6.33301M13.3333 6.33301H11C10.0795 6.33301 9.33333 7.0792 9.33333 7.99967C9.33333 8.92015 10.0795 9.66634 11 9.66634M13.3333 6.33301H13.9085C13.959 6.33301 14 6.37398 14 6.42451V9.57484M11.34 7.99967H11.3333M12.6667 10.9997V14.6663M12.6667 14.6663L11.3333 13.333M12.6667 14.6663L14 13.333" stroke="white" stroke-linecap="round" stroke-linejoin="round"/>
</svg>
