<svg width="40" height="40" viewBox="0 0 40 40" fill="none" xmlns="http://www.w3.org/2000/svg">
<path d="M34 20C34 19.0597 33.6313 18.1579 32.9749 17.493C32.3185 16.8281 31.4283 16.4545 30.5 16.4545H24.6667C24.6667 17.7083 24.175 18.9107 23.2998 19.7972C22.4247 20.6838 21.2377 21.1818 20 21.1818C18.7623 21.1818 17.5753 20.6838 16.7002 19.7972C15.825 18.9107 15.3333 17.7083 15.3333 16.4545H9.5C8.57174 16.4545 7.6815 16.8281 7.02513 17.493C6.36875 18.1579 6 19.0597 6 20M34 20V29.4545C34 30.3949 33.6313 31.2967 32.9749 31.9616C32.3185 32.6265 31.4283 33 30.5 33H9.5C8.57174 33 7.6815 32.6265 7.02513 31.9616C6.36875 31.2967 6 30.3949 6 29.4545V20M34 20V15.2727V20ZM6 20V15.2727V20ZM34 15.2727C34 14.3324 33.6313 13.4306 32.9749 12.7657C32.3185 12.1008 31.4283 11.7273 30.5 11.7273H9.5C8.57174 11.7273 7.6815 12.1008 7.02513 12.7657C6.36875 13.4306 6 14.3324 6 15.2727M34 15.2727V10.5455C34 9.60514 33.6313 8.70334 32.9749 8.03844C32.3185 7.37354 31.4283 7 30.5 7H9.5C8.57174 7 7.6815 7.37354 7.02513 8.03844C6.36875 8.70334 6 9.60514 6 10.5455V15.2727" fill="#DFF2FF"/>
<path d="M34 20C34 19.0597 33.6313 18.1579 32.9749 17.493C32.3185 16.8281 31.4283 16.4545 30.5 16.4545H24.6667C24.6667 17.7083 24.175 18.9107 23.2998 19.7972C22.4247 20.6838 21.2377 21.1818 20 21.1818C18.7623 21.1818 17.5753 20.6838 16.7002 19.7972C15.825 18.9107 15.3333 17.7083 15.3333 16.4545H9.5C8.57174 16.4545 7.6815 16.8281 7.02513 17.493C6.36875 18.1579 6 19.0597 6 20M34 20V29.4545C34 30.3949 33.6313 31.2967 32.9749 31.9616C32.3185 32.6265 31.4283 33 30.5 33H9.5C8.57174 33 7.6815 32.6265 7.02513 31.9616C6.36875 31.2967 6 30.3949 6 29.4545V20M34 20V15.2727M6 20V15.2727M34 15.2727C34 14.3324 33.6313 13.4306 32.9749 12.7657C32.3185 12.1008 31.4283 11.7273 30.5 11.7273H9.5C8.57174 11.7273 7.6815 12.1008 7.02513 12.7657C6.36875 13.4306 6 14.3324 6 15.2727M34 15.2727V10.5455C34 9.60514 33.6313 8.70334 32.9749 8.03844C32.3185 7.37354 31.4283 7 30.5 7H9.5C8.57174 7 7.6815 7.37354 7.02513 8.03844C6.36875 8.70334 6 9.60514 6 10.5455V15.2727" stroke="#3AC1FF" stroke-width="1.5" stroke-linecap="round" stroke-linejoin="round"/>
</svg>
