<svg width="25" height="24" viewBox="0 0 25 24" fill="none" xmlns="http://www.w3.org/2000/svg">
<path d="M16.7099 6C16.7099 6.99456 16.3148 7.94839 15.6116 8.65165C14.9083 9.35491 13.9545 9.75 12.9599 9.75C11.9654 9.75 11.0115 9.35491 10.3083 8.65165C9.60503 7.94839 9.20994 6.99456 9.20994 6C9.20994 5.00544 9.60503 4.05161 10.3083 3.34835C11.0115 2.64509 11.9654 2.25 12.9599 2.25C13.9545 2.25 14.9083 2.64509 15.6116 3.34835C16.3148 4.05161 16.7099 5.00544 16.7099 6ZM5.46094 20.118C5.49307 18.1504 6.29728 16.2742 7.70011 14.894C9.10295 13.5139 10.992 12.7405 12.9599 12.7405C14.9278 12.7405 16.8169 13.5139 18.2198 14.894C19.6226 16.2742 20.4268 18.1504 20.4589 20.118C17.9609 20.118 15.5481 20.1215 12.9599 20.118C10.2839 20.118 7.96094 20.118 5.46094 20.118Z" stroke="#221D05" stroke-width="1.5" stroke-linecap="round" stroke-linejoin="round"/>
</svg>
