<svg width="25" height="24" viewBox="0 0 25 24" fill="none" xmlns="http://www.w3.org/2000/svg">
<g clip-path="url(#clip0_584_1190)">
<path d="M5.37057 11.7121L5.37066 11.7121C5.53311 11.7247 7.55734 11.8633 9.94703 11.0925C12.3148 10.3287 15.0388 8.67338 16.6712 5.11593L15.5272 4.55157L15.527 4.55146C15.3605 4.4688 15.2564 4.29775 15.2616 4.11022C15.2647 3.92422 15.3796 3.75613 15.5495 3.68408L15.5494 3.68411L15.5887 3.77605L15.5497 3.68396L5.37057 11.7121ZM5.37057 11.7121C5.11814 11.6927 4.90134 11.8708 4.86588 12.1187M5.37057 11.7121L4.86588 12.1187M4.86588 12.1187C4.83059 12.3653 4.98792 12.6012 5.23336 12.6543M4.86588 12.1187L5.23336 12.6543M5.23336 12.6543C6.62601 12.9592 7.88577 13.1 9.03183 13.1M5.23336 12.6543L9.03183 13.1M9.03183 13.1C11.7485 13.1 13.8141 12.3146 15.4504 11.1098M9.03183 13.1L15.4504 11.1098M15.4504 11.1098C17.0563 9.92732 18.2441 8.34419 19.2289 6.71588M15.4504 11.1098L19.2289 6.71588M19.2289 6.71588L20.3435 7.39114L19.2289 6.71588ZM20.8548 7.37708C20.8549 7.377 20.855 7.37692 20.8551 7.37684L20.7979 7.29482L20.8544 7.37732C20.8546 7.37724 20.8547 7.37716 20.8548 7.37708ZM17.7231 5.07503C17.8214 4.84286 17.7204 4.57252 17.4955 4.46174C17.4955 4.46174 17.4955 4.46174 17.4955 4.46173L16.8749 4.15592L19.4504 3.05312L19.9494 6.03681L19.3126 5.65035C19.3124 5.65025 19.3123 5.65016 19.3121 5.65006C19.2048 5.58355 19.073 5.56388 18.9512 5.59702C18.8271 5.62803 18.723 5.70887 18.6602 5.81904L18.7471 5.86853L18.6607 5.81818C17.6626 7.53084 16.5155 9.13847 14.959 10.3052C13.58 11.3389 11.8751 12.0298 9.65812 12.1351C12.4424 11.3604 15.8765 9.49767 17.7231 5.07503Z" fill="#221D05" stroke="#221D05" stroke-width="0.2"/>
<path d="M7.14916 17C6.48415 17 5.96094 17.7033 5.96094 18.5987V21.4013C5.96094 22.2988 6.48216 23 7.14916 23H8.77272C9.43972 23 9.96094 22.2967 9.96094 21.4013V18.5987C9.96094 17.7012 9.43972 17 8.77272 17H7.14916ZM9.26997 18.5987V21.4013C9.26997 21.8565 9.03832 22.2557 8.77272 22.2557H7.14916C6.88355 22.2557 6.6519 21.8565 6.6519 21.4013V18.5987C6.6519 18.1435 6.88355 17.7443 7.14916 17.7443H8.77272C9.03832 17.7443 9.26997 18.1435 9.26997 18.5987Z" fill="#221D05" stroke="#221D05" stroke-width="0.2"/>
<path d="M12.1492 14C11.4842 14 10.9609 14.7337 10.9609 15.6677V21.3323C10.9609 22.2686 11.4822 23 12.1492 23H13.7727C14.4377 23 14.9609 22.2663 14.9609 21.3323V15.6677C14.9609 14.7314 14.4397 14 13.7727 14H12.1492ZM14.27 15.6677V21.3323C14.27 21.8072 14.0383 22.2236 13.7727 22.2236H12.1492C11.8836 22.2236 11.6519 21.8072 11.6519 21.3323V15.6677C11.6519 15.1928 11.8836 14.7764 12.1492 14.7764H13.7727C14.0363 14.7764 14.27 15.1928 14.27 15.6677Z" fill="#221D05" stroke="#221D05" stroke-width="0.2"/>
<path d="M18.7727 11H17.1492C16.4842 11 15.9609 11.7164 15.9609 12.6283V21.3717C15.9609 22.2858 16.4822 23 17.1492 23H18.7727C19.4377 23 19.9609 22.2836 19.9609 21.3717V12.6283C19.9609 11.7164 19.4397 11 18.7727 11ZM19.27 21.3717C19.27 21.8354 19.0383 22.2419 18.7727 22.2419H17.1492C16.8836 22.2419 16.6519 21.8354 16.6519 21.3717V12.6283C16.6519 12.1646 16.8836 11.7581 17.1492 11.7581H18.7727C19.0383 11.7581 19.27 12.1646 19.27 12.6283V21.3717Z" fill="#221D05" stroke="#221D05" stroke-width="0.2"/>
</g>
<defs>
<clipPath id="clip0_584_1190">
<rect width="18" height="24" fill="white" transform="translate(3.96094)"/>
</clipPath>
</defs>
</svg>
