<svg width="25" height="24" viewBox="0 0 25 24" fill="none" xmlns="http://www.w3.org/2000/svg">
<path d="M21.9609 12C21.9609 11.4033 21.7239 10.831 21.3019 10.409C20.88 9.98705 20.3077 9.75 19.7109 9.75H15.9609C15.9609 10.5456 15.6449 11.3087 15.0823 11.8713C14.5196 12.4339 13.7566 12.75 12.9609 12.75C12.1653 12.75 11.4022 12.4339 10.8396 11.8713C10.277 11.3087 9.96094 10.5456 9.96094 9.75H6.21094C5.6142 9.75 5.0419 9.98705 4.61995 10.409C4.19799 10.831 3.96094 11.4033 3.96094 12M21.9609 12V18C21.9609 18.5967 21.7239 19.169 21.3019 19.591C20.88 20.0129 20.3077 20.25 19.7109 20.25H6.21094C5.6142 20.25 5.0419 20.0129 4.61995 19.591C4.19799 19.169 3.96094 18.5967 3.96094 18V12M21.9609 12V9M3.96094 12V9M21.9609 9C21.9609 8.40326 21.7239 7.83097 21.3019 7.40901C20.88 6.98705 20.3077 6.75 19.7109 6.75H6.21094C5.6142 6.75 5.0419 6.98705 4.61995 7.40901C4.19799 7.83097 3.96094 8.40326 3.96094 9M21.9609 9V6C21.9609 5.40326 21.7239 4.83097 21.3019 4.40901C20.88 3.98705 20.3077 3.75 19.7109 3.75H6.21094C5.6142 3.75 5.0419 3.98705 4.61995 4.40901C4.19799 4.83097 3.96094 5.40326 3.96094 6V9" stroke="#221D05" stroke-width="1.5" stroke-linecap="round" stroke-linejoin="round"/>
</svg>
