<svg width="14" height="14" viewBox="0 0 14 14" fill="none" xmlns="http://www.w3.org/2000/svg">
<path d="M4.20804 7.66077L8.20277 5.19957C8.29224 5.14473 8.40678 5.14998 8.49055 5.21474C8.87008 5.507 9.20914 5.80335 9.43538 6.05244C9.43538 6.05244 9.63027 6.25195 9.71461 6.37854C9.85081 6.55122 9.91634 6.77698 9.91634 6.99632C9.91634 7.2425 9.84454 7.47527 9.7015 7.66136C9.66902 7.69461 9.54536 7.84103 9.42854 7.96062C8.74699 8.70499 6.96788 9.93472 6.03216 10.3075C5.89597 10.3676 5.5324 10.493 5.34377 10.5C5.16198 10.5 4.98647 10.4603 4.81779 10.3734C4.61036 10.2538 4.44795 10.0683 4.35677 9.84838C4.29807 9.69554 4.20747 9.23702 4.20747 9.2236C4.14877 8.89634 4.10489 8.43665 4.08324 7.89995C4.07925 7.8037 4.12769 7.71036 4.20804 7.66077Z" fill="#122466"/>
<path d="M4.20804 7.66077L8.20277 5.19957C8.29224 5.14473 8.40678 5.14998 8.49055 5.21474C8.87008 5.507 9.20914 5.80335 9.43538 6.05244C9.43538 6.05244 9.63027 6.25195 9.71461 6.37854C9.85081 6.55122 9.91634 6.77698 9.91634 6.99632C9.91634 7.2425 9.84454 7.47527 9.7015 7.66136C9.66902 7.69461 9.54536 7.84103 9.42854 7.96062C8.74699 8.70499 6.96788 9.93472 6.03216 10.3075C5.89597 10.3676 5.5324 10.493 5.34377 10.5C5.16198 10.5 4.98647 10.4603 4.81779 10.3734C4.61036 10.2538 4.44795 10.0683 4.35677 9.84838C4.29807 9.69554 4.20747 9.23702 4.20747 9.2236C4.14877 8.89634 4.10489 8.43665 4.08324 7.89995C4.07925 7.8037 4.12769 7.71036 4.20804 7.66077Z" fill="black" fill-opacity="0.2"/>
<g opacity="0.4">
<path d="M4.47539 6.33522C4.29931 6.44431 4.07763 6.30489 4.08618 6.09546C4.10726 5.60427 4.14373 5.17141 4.18818 4.8494C4.19502 4.8424 4.28563 4.27129 4.38991 4.07819C4.5717 3.71942 4.92843 3.50008 5.31195 3.50008H5.34386C5.59118 3.5065 6.11716 3.72584 6.11716 3.73926C6.38215 3.84951 6.72806 4.03619 7.10018 4.26079C7.26772 4.36229 7.2717 4.61139 7.10417 4.71464L4.47539 6.33522Z" fill="#122466"/>
<path d="M4.47539 6.33522C4.29931 6.44431 4.07763 6.30489 4.08618 6.09546C4.10726 5.60427 4.14373 5.17141 4.18818 4.8494C4.19502 4.8424 4.28563 4.27129 4.38991 4.07819C4.5717 3.71942 4.92843 3.50008 5.31195 3.50008H5.34386C5.59118 3.5065 6.11716 3.72584 6.11716 3.73926C6.38215 3.84951 6.72806 4.03619 7.10018 4.26079C7.26772 4.36229 7.2717 4.61139 7.10417 4.71464L4.47539 6.33522Z" fill="black" fill-opacity="0.2"/>
</g>
</svg>
