<svg width="23" height="20" viewBox="0 0 23 20" fill="none" xmlns="http://www.w3.org/2000/svg">
<g clip-path="url(#clip0_3503_8698)">
<path d="M5 0.625C5 0.28125 4.71875 0 4.375 0C4.03125 0 3.75 0.28125 3.75 0.625V2.5H2.5C1.12109 2.5 0 3.62109 0 5V6.25V7.5V17.5C0 18.8789 1.12109 20 2.5 20H10.1094C9.98828 19.6562 9.96484 19.2812 10.0547 18.9141L10.0977 18.75H2.5C1.80859 18.75 1.25 18.1914 1.25 17.5V7.5H15H16.25H17.5V6.25V5C17.5 3.62109 16.3789 2.5 15 2.5H13.75V0.625C13.75 0.28125 13.4688 0 13.125 0C12.7812 0 12.5 0.28125 12.5 0.625V2.5H5V0.625ZM2.5 3.75H15C15.6914 3.75 16.25 4.30859 16.25 5V6.25H1.25V5C1.25 4.30859 1.80859 3.75 2.5 3.75ZM4.375 13.75C4.03125 13.75 3.75 14.0312 3.75 14.375C3.75 14.7188 4.03125 15 4.375 15H9.375C9.71875 15 10 14.7188 10 14.375C10 14.0312 9.71875 13.75 9.375 13.75H4.375ZM3.75 10.625C3.75 10.9688 4.03125 11.25 4.375 11.25H13.125C13.4688 11.25 13.75 10.9688 13.75 10.625C13.75 10.2812 13.4688 10 13.125 10H4.375C4.03125 10 3.75 10.2812 3.75 10.625ZM20.2656 10.3125L20.9453 10.9922C21.1875 11.2344 21.1875 11.6328 20.9453 11.875L19.9766 12.8438L18.4141 11.2812L19.3828 10.3125C19.625 10.0703 20.0234 10.0703 20.2656 10.3125ZM13.3789 16.3164L17.5273 12.168L19.0898 13.7305L14.9375 17.8789C14.8555 17.9609 14.7578 18.0156 14.6484 18.043L12.7344 18.5234L13.2148 16.6094C13.2422 16.5 13.3008 16.3984 13.3789 16.3203V16.3164ZM18.4961 9.42969L12.4922 15.4336C12.25 15.6758 12.082 15.9766 12 16.3047L11.2695 19.2305C11.2148 19.4453 11.2773 19.668 11.4336 19.8242C11.5898 19.9805 11.8125 20.043 12.0273 19.9883L14.9531 19.2578C15.2812 19.1758 15.582 19.0039 15.8242 18.7656L21.8281 12.7578C22.5586 12.0273 22.5586 10.8398 21.8281 10.1055L21.1484 9.42578C20.418 8.69531 19.2305 8.69531 18.4961 9.42578V9.42969Z" fill="#46484D"/>
</g>
<defs>
<clipPath id="clip0_3503_8698">
<rect width="22.5" height="20" fill="white"/>
</clipPath>
</defs>
</svg>
