<svg width="20" height="19" viewBox="0 0 20 19" fill="none" xmlns="http://www.w3.org/2000/svg">
<path d="M8.47656 15.1641L13.4766 10.1641C13.8438 9.79688 13.8438 9.20312 13.4766 8.83984L8.47656 3.83594C8.10938 3.46875 7.51563 3.46875 7.15234 3.83594C6.78906 4.20312 6.78516 4.79687 7.15234 5.16016L10.5508 8.55859L0.9375 8.5625C0.417969 8.5625 0 8.98047 0 9.5C0 10.0195 0.417969 10.4375 0.9375 10.4375H10.5508L7.15234 13.8359C6.78516 14.2031 6.78516 14.7969 7.15234 15.1602C7.51953 15.5234 8.11328 15.5273 8.47656 15.1602V15.1641ZM13.4375 2.625H16.5625C17.4258 2.625 18.125 3.32422 18.125 4.1875V14.8125C18.125 15.6758 17.4258 16.375 16.5625 16.375H13.4375C12.918 16.375 12.5 16.793 12.5 17.3125C12.5 17.832 12.918 18.25 13.4375 18.25H16.5625C18.4609 18.25 20 16.7109 20 14.8125V4.1875C20 2.28906 18.4609 0.75 16.5625 0.75H13.4375C12.918 0.75 12.5 1.16797 12.5 1.6875C12.5 2.20703 12.918 2.625 13.4375 2.625Z" fill="#10C477"/>
</svg>
