<svg width="20" height="19" viewBox="0 0 20 19" fill="none" xmlns="http://www.w3.org/2000/svg">
<path d="M19.7246 10.1639C20.0918 9.79673 20.0918 9.20303 19.7246 8.83979L14.7251 3.83637C14.358 3.46922 13.7643 3.46922 13.401 3.83637C13.0378 4.20352 13.0339 4.79721 13.401 5.16046L16.7991 8.55856L7.1868 8.56247C6.66732 8.56247 6.24939 8.9804 6.24939 9.49988C6.24939 10.0194 6.66732 10.4373 7.1868 10.4373H16.7991L13.401 13.8354C13.0339 14.2025 13.0339 14.7962 13.401 15.1595C13.7682 15.5227 14.3619 15.5266 14.7251 15.1595L19.7246 10.1639ZM6.56186 2.62555C7.08134 2.62555 7.49927 2.20762 7.49927 1.68814C7.49927 1.16866 7.08134 0.750732 6.56186 0.750732H3.43716C1.53891 0.750732 0 2.28964 0 4.1879V14.8119C0 16.7101 1.53891 18.249 3.43716 18.249H6.56186C7.08134 18.249 7.49927 17.8311 7.49927 17.3116C7.49927 16.7921 7.08134 16.3742 6.56186 16.3742H3.43716C2.57397 16.3742 1.87482 15.6751 1.87482 14.8119V4.1879C1.87482 3.3247 2.57397 2.62555 3.43716 2.62555H6.56186Z" fill="#ED3024"/>
</svg>
