<svg width="21" height="20" viewBox="0 0 21 20" fill="none" xmlns="http://www.w3.org/2000/svg">
<g clip-path="url(#clip0_4525_3804)">
<path d="M10.5 18.75C12.8206 18.75 15.0462 17.8281 16.6872 16.1872C18.3281 14.5462 19.25 12.3206 19.25 10C19.25 7.67936 18.3281 5.45376 16.6872 3.81282C15.0462 2.17187 12.8206 1.25 10.5 1.25C8.17936 1.25 5.95376 2.17187 4.31282 3.81282C2.67187 5.45376 1.75 7.67936 1.75 10C1.75 12.3206 2.67187 14.5462 4.31282 16.1872C5.95376 17.8281 8.17936 18.75 10.5 18.75ZM10.5 0C13.1522 0 15.6957 1.05357 17.5711 2.92893C19.4464 4.8043 20.5 7.34784 20.5 10C20.5 12.6522 19.4464 15.1957 17.5711 17.0711C15.6957 18.9464 13.1522 20 10.5 20C7.84784 20 5.3043 18.9464 3.42893 17.0711C1.55357 15.1957 0.5 12.6522 0.5 10C0.5 7.34784 1.55357 4.8043 3.42893 2.92893C5.3043 1.05357 7.84784 0 10.5 0ZM11.4375 10C11.4375 10.2486 11.3387 10.4871 11.1629 10.6629C10.9871 10.8387 10.7486 10.9375 10.5 10.9375C10.2514 10.9375 10.0129 10.8387 9.83709 10.6629C9.66127 10.4871 9.5625 10.2486 9.5625 10C9.5625 9.75136 9.66127 9.5129 9.83709 9.33709C10.0129 9.16127 10.2514 9.0625 10.5 9.0625C10.7486 9.0625 10.9871 9.16127 11.1629 9.33709C11.3387 9.5129 11.4375 9.75136 11.4375 10ZM14.25 9.0625C14.4986 9.0625 14.7371 9.16127 14.9129 9.33709C15.0887 9.5129 15.1875 9.75136 15.1875 10C15.1875 10.2486 15.0887 10.4871 14.9129 10.6629C14.7371 10.8387 14.4986 10.9375 14.25 10.9375C14.0014 10.9375 13.7629 10.8387 13.5871 10.6629C13.4113 10.4871 13.3125 10.2486 13.3125 10C13.3125 9.75136 13.4113 9.5129 13.5871 9.33709C13.7629 9.16127 14.0014 9.0625 14.25 9.0625ZM7.6875 10C7.6875 10.2486 7.58873 10.4871 7.41291 10.6629C7.2371 10.8387 6.99864 10.9375 6.75 10.9375C6.50136 10.9375 6.2629 10.8387 6.08709 10.6629C5.91127 10.4871 5.8125 10.2486 5.8125 10C5.8125 9.75136 5.91127 9.5129 6.08709 9.33709C6.2629 9.16127 6.50136 9.0625 6.75 9.0625C6.99864 9.0625 7.2371 9.16127 7.41291 9.33709C7.58873 9.5129 7.6875 9.75136 7.6875 10Z" fill="#0E1B4D"/>
</g>
<defs>
<clipPath id="clip0_4525_3804">
<rect width="20" height="20" fill="white" transform="translate(0.5)"/>
</clipPath>
</defs>
</svg>
