<svg width="25" height="24" viewBox="0 0 25 24" fill="none" xmlns="http://www.w3.org/2000/svg">
<rect x="0.5" width="24" height="24" rx="6" fill="#122466"/>
<rect x="0.5" width="24" height="24" rx="6" fill="black" fill-opacity="0.2"/>
<path d="M18.3127 9.23755H14.8252C14.5814 9.23755 14.3877 9.0438 14.3877 8.80005C14.3877 8.5563 14.5814 8.36255 14.8252 8.36255H18.3127C18.5564 8.36255 18.7502 8.5563 18.7502 8.80005C18.7502 9.0438 18.5564 9.23755 18.3127 9.23755Z" fill="#F9FAFC"/>
<path d="M9.0125 9.23755H6.6875C6.44375 9.23755 6.25 9.0438 6.25 8.80005C6.25 8.5563 6.44375 8.36255 6.6875 8.36255H9.0125C9.25625 8.36255 9.45 8.5563 9.45 8.80005C9.45 9.0438 9.25 9.23755 9.0125 9.23755Z" fill="#F9FAFC"/>
<path d="M11.3379 11.2688C12.7013 11.2688 13.8066 10.1635 13.8066 8.80005C13.8066 7.4366 12.7013 6.3313 11.3379 6.3313C9.97444 6.3313 8.86914 7.4366 8.86914 8.80005C8.86914 10.1635 9.97444 11.2688 11.3379 11.2688Z" fill="#F9FAFC"/>
<path d="M18.3123 15.6313H15.9873C15.7436 15.6313 15.5498 15.4376 15.5498 15.1938C15.5498 14.9501 15.7436 14.7563 15.9873 14.7563H18.3123C18.5561 14.7563 18.7498 14.9501 18.7498 15.1938C18.7498 15.4376 18.5561 15.6313 18.3123 15.6313Z" fill="#F9FAFC"/>
<path d="M10.175 15.6313H6.6875C6.44375 15.6313 6.25 15.4376 6.25 15.1938C6.25 14.9501 6.44375 14.7563 6.6875 14.7563H10.175C10.4187 14.7563 10.6125 14.9501 10.6125 15.1938C10.6125 15.4376 10.4125 15.6313 10.175 15.6313Z" fill="#F9FAFC"/>
<path d="M13.6621 17.6687C15.0256 17.6687 16.1309 16.5634 16.1309 15.2C16.1309 13.8365 15.0256 12.7312 13.6621 12.7312C12.2987 12.7312 11.1934 13.8365 11.1934 15.2C11.1934 16.5634 12.2987 17.6687 13.6621 17.6687Z" fill="#F9FAFC"/>
</svg>
