<svg width="16" height="16" viewBox="0 0 16 16" fill="none" xmlns="http://www.w3.org/2000/svg">
<g clip-path="url(#clip0_3204_8986)">
<path d="M8 15C8.52188 15 9.2625 14.55 9.93437 13.2094C10.2437 12.5906 10.5031 11.8438 10.6875 11H5.3125C5.49687 11.8438 5.75625 12.5906 6.06563 13.2094C6.7375 14.55 7.47813 15 8 15ZM5.13438 10H10.8656C10.9531 9.36875 11 8.69687 11 8C11 7.30312 10.9531 6.63125 10.8656 6H5.13438C5.04688 6.63125 5 7.30312 5 8C5 8.69687 5.04688 9.36875 5.13438 10ZM5.3125 5H10.6875C10.5031 4.15625 10.2437 3.40938 9.93437 2.79063C9.2625 1.45 8.52188 1 8 1C7.47813 1 6.7375 1.45 6.06563 2.79063C5.75625 3.40938 5.49687 4.15625 5.3125 5ZM11.875 6C11.9563 6.64062 12 7.30937 12 8C12 8.69063 11.9563 9.35938 11.875 10H14.7125C14.9 9.36563 15.0031 8.69375 15.0031 8C15.0031 7.30625 14.9031 6.63438 14.7125 6H11.875ZM14.3281 5C13.5188 3.29688 12.0437 1.97187 10.2375 1.36563C10.8938 2.25 11.4125 3.51562 11.7125 5H14.3313H14.3281ZM4.29375 5C4.59375 3.5125 5.1125 2.25 5.76875 1.36563C3.95938 1.97187 2.48125 3.29688 1.675 5H4.29063H4.29375ZM1.29375 6C1.10625 6.63438 1.00312 7.30625 1.00312 8C1.00312 8.69375 1.10313 9.36563 1.29375 10H4.125C4.04375 9.35938 4 8.69063 4 8C4 7.30937 4.04375 6.64062 4.125 6H1.29062H1.29375ZM10.2344 14.6344C12.0406 14.025 13.5156 12.7031 14.325 11H11.7094C11.4094 12.4875 10.8906 13.75 10.2344 14.6344ZM5.76562 14.6344C5.10938 13.75 4.59375 12.4844 4.29063 11H1.675C2.48438 12.7031 3.95937 14.0281 5.76562 14.6344ZM8 16C5.87827 16 3.84344 15.1571 2.34315 13.6569C0.842855 12.1566 0 10.1217 0 8C0 5.87827 0.842855 3.84344 2.34315 2.34315C3.84344 0.842855 5.87827 0 8 0C10.1217 0 12.1566 0.842855 13.6569 2.34315C15.1571 3.84344 16 5.87827 16 8C16 10.1217 15.1571 12.1566 13.6569 13.6569C12.1566 15.1571 10.1217 16 8 16Z" fill="white"/>
</g>
<defs>
<clipPath id="clip0_3204_8986">
<rect width="16" height="16" fill="white"/>
</clipPath>
</defs>
</svg>
