<svg width="9" height="10" viewBox="0 0 9 10" fill="none" xmlns="http://www.w3.org/2000/svg">
<path opacity="0.5" d="M2.61884 9.5H6.38116C7.42009 9.5 8.26232 8.69628 8.26232 7.70485V5.50987C8.26232 5.19117 8.39499 4.88552 8.63114 4.66016C9.17829 4.13803 9.10716 3.27292 8.48137 2.83861L5.60644 0.843348C4.94682 0.385551 4.05319 0.385551 3.39356 0.843348L0.518628 2.83861C-0.107159 3.27292 -0.178288 4.13803 0.36886 4.66016C0.605014 4.88552 0.737684 5.19117 0.737684 5.50987V7.70485C0.737684 8.69628 1.57991 9.5 2.61884 9.5Z" fill="#F9FAFC"/>
<path fill-rule="evenodd" clip-rule="evenodd" d="M4.5 8.5001C5.4 8.5001 6.75 6.59274 6.75 5.3501C6.75 4.10746 5.74264 3.1001 4.5 3.1001C3.25736 3.1001 2.25 4.10746 2.25 5.3501C2.25 6.59274 3.6 8.5001 4.5 8.5001ZM4.5 6.25C4.99706 6.25 5.4 5.84706 5.4 5.35C5.4 4.85294 4.99706 4.45 4.5 4.45C4.00294 4.45 3.6 4.85294 3.6 5.35C3.6 5.84706 4.00294 6.25 4.5 6.25Z" fill="#F9FAFC"/>
</svg>
