<svg width="21" height="20" viewBox="0 0 21 20" fill="none" xmlns="http://www.w3.org/2000/svg">
<path d="M13 14.1666C12.3337 14.6853 11.4585 15 10.5 15C9.54146 15 8.66627 14.6853 8 14.1666" stroke="#0E1B4D" stroke-width="1.2" stroke-linecap="round"/>
<path d="M2.45982 11.0112C2.16563 9.09683 2.01854 8.13966 2.38046 7.29111C2.74238 6.44256 3.54535 5.86199 5.15127 4.70084L6.35115 3.83329C8.3489 2.38885 9.34778 1.66663 10.5003 1.66663C11.6529 1.66663 12.6517 2.38885 14.6495 3.83329L15.8494 4.70084C17.4553 5.86199 18.2583 6.44256 18.6202 7.29111C18.9821 8.13966 18.835 9.09683 18.5408 11.0112L18.29 12.6436C17.8729 15.3574 17.6644 16.7143 16.6912 17.5238C15.7179 18.3333 14.295 18.3333 11.4493 18.3333H9.55131C6.7056 18.3333 5.28275 18.3333 4.30949 17.5238C3.33623 16.7143 3.12772 15.3574 2.71068 12.6436L2.45982 11.0112Z" stroke="#0E1B4D" stroke-width="1.2" stroke-linejoin="round"/>
</svg>
