<svg width="24" height="32" viewBox="0 0 24 32" fill="none" xmlns="http://www.w3.org/2000/svg">
<path d="M12.5112 29.1088V11.1072H4.35981C3.78243 11.112 3.21164 11.2314 2.68004 11.4586C2.14845 11.6858 1.66646 12.0164 1.26162 12.4314C0.856773 12.8464 0.536994 13.3378 0.320551 13.8774C0.104108 14.417 -0.00476145 14.9943 0.000159683 15.5763C-6.5174e-05 16.1997 0.127674 16.8165 0.375348 17.3877C0.623022 17.9589 0.985271 18.4724 1.43931 18.8956L12.5056 29.1178L12.5112 29.1088Z" fill="#ED3024"/>
<path d="M18.7131 11.1068H12.5127V0.869141H18.7139C20.0492 0.881236 21.3252 1.42721 22.2615 2.3871C23.1978 3.34699 23.7177 4.64228 23.7071 5.98839C23.7175 7.33451 23.1973 8.62971 22.2609 9.58945C21.3245 10.5492 20.0484 11.0949 18.7131 11.1068Z" fill="#ED3024"/>
<path d="M17.1759 17.7388H12.5112L12.499 29.1058C13.0913 29.7348 13.8025 30.238 14.5907 30.5857C15.3789 30.9334 16.2282 31.1185 17.0885 31.1301C17.9487 31.1418 18.8026 30.9798 19.5998 30.6536C20.397 30.3274 21.1214 29.8437 21.7302 29.2309C22.9735 27.9825 23.6824 26.2931 23.7051 24.5243C23.7279 22.7555 23.0626 21.0481 21.8519 19.7677C21.2488 19.1287 20.5235 18.6195 19.7199 18.2708C18.9162 17.9221 18.0508 17.7411 17.1759 17.7388ZM17.4809 27.1832C16.9395 27.1923 16.4076 27.0388 15.953 26.7422C15.4984 26.4455 15.1417 26.0193 14.9282 25.5176C14.7147 25.016 14.6542 24.4616 14.7542 23.9251C14.8543 23.3887 15.1105 22.8944 15.4902 22.5052C15.8699 22.116 16.3559 21.8494 16.8863 21.7396C17.4167 21.6297 17.9676 21.6814 18.4688 21.8881C18.9699 22.0949 19.3987 22.4473 19.7006 22.9005C20.0024 23.3537 20.1636 23.8872 20.1637 24.4331C20.1667 24.7912 20.0997 25.1464 19.9665 25.4785C19.8333 25.8105 19.6365 26.1129 19.3874 26.3683C19.1382 26.6236 18.8417 26.827 18.5145 26.9669C18.1874 27.1067 17.8362 27.1802 17.4809 27.1832Z" fill="#122466"/>
<path d="M17.1759 17.7388H12.5112L12.499 29.1058C13.0913 29.7348 13.8025 30.238 14.5907 30.5857C15.3789 30.9334 16.2282 31.1185 17.0885 31.1301C17.9487 31.1418 18.8026 30.9798 19.5998 30.6536C20.397 30.3274 21.1214 29.8437 21.7302 29.2309C22.9735 27.9825 23.6824 26.2931 23.7051 24.5243C23.7279 22.7555 23.0626 21.0481 21.8519 19.7677C21.2488 19.1287 20.5235 18.6195 19.7199 18.2708C18.9162 17.9221 18.0508 17.7411 17.1759 17.7388ZM17.4809 27.1832C16.9395 27.1923 16.4076 27.0388 15.953 26.7422C15.4984 26.4455 15.1417 26.0193 14.9282 25.5176C14.7147 25.016 14.6542 24.4616 14.7542 23.9251C14.8543 23.3887 15.1105 22.8944 15.4902 22.5052C15.8699 22.116 16.3559 21.8494 16.8863 21.7396C17.4167 21.6297 17.9676 21.6814 18.4688 21.8881C18.9699 22.0949 19.3987 22.4473 19.7006 22.9005C20.0024 23.3537 20.1636 23.8872 20.1637 24.4331C20.1667 24.7912 20.0997 25.1464 19.9665 25.4785C19.8333 25.8105 19.6365 26.1129 19.3874 26.3683C19.1382 26.6236 18.8417 26.827 18.5145 26.9669C18.1874 27.1067 17.8362 27.1802 17.4809 27.1832Z" fill="black" fill-opacity="0.2"/>
<path d="M13.1026 17.7388H12.5112L12.499 29.1058L12.6085 29.2056L13.1083 17.7486L13.1026 17.7388Z" fill="#060D24"/>
<path d="M13.1026 17.7388H12.5112L12.499 29.1058L12.6085 29.2056L13.1083 17.7486L13.1026 17.7388Z" fill="black" fill-opacity="0.2"/>
</svg>
