<svg xmlns="http://www.w3.org/2000/svg" xmlns:xlink="http://www.w3.org/1999/xlink" width="83.503" height="85.241" viewBox="0 0 83.503 85.241">
  <defs>
    <linearGradient id="linear-gradient" x1="0.5" x2="0.5" y2="1" gradientUnits="objectBoundingBox">
      <stop offset="0" stop-color="#fff"/>
      <stop offset="1" stop-color="#fff"/>
    </linearGradient>
    <linearGradient id="linear-gradient-2" x1="0.5" x2="0.5" y2="1" gradientUnits="objectBoundingBox">
      <stop offset="0" stop-color="#f8f8f8"/>
      <stop offset="1" stop-color="#fff"/>
    </linearGradient>
  </defs>
  <g id="logo" transform="translate(-107 -336.705)">
    <path id="Path_18330" data-name="Path 18330" d="M428.476-761.432a36.723,36.723,0,0,0-24.022,14.667c-.5.721.044.262,1.639-1.4a32.486,32.486,0,0,1,11.322-7.956,34.229,34.229,0,0,1,23.759-.853,38.909,38.909,0,0,1,9.005,4.831,33.046,33.046,0,0,1,12.677,19.978,37.458,37.458,0,0,1-.022,12.59,31.686,31.686,0,0,1-9.071,16.721A27.645,27.645,0,0,1,445-696.624a30.4,30.4,0,0,1-13.486,3.432,27.9,27.9,0,0,1-9.2-.94,29.478,29.478,0,0,1-11.519-5.29,49.418,49.418,0,0,1-6.863-6.6c-.918-1.158-.415-.306.918,1.53a42.9,42.9,0,0,0,3.628,4.044,36.456,36.456,0,0,0,18.273,9.77c2.011.415,2.907.481,7.213.481,4.262,0,5.2-.066,7.148-.481,11.606-2.536,20.743-9.661,25.639-19.978a35.979,35.979,0,0,0,1.617-26.513,44.286,44.286,0,0,0-4.831-9.508,43.386,43.386,0,0,0-8.372-8.372,40.275,40.275,0,0,0-13.923-6.076A51.963,51.963,0,0,0,428.476-761.432Z" transform="translate(-279.655 1105.209)" fill="url(#linear-gradient)"/>
    <path id="Path_18331" data-name="Path 18331" d="M430.011-681.708,420-675.915v15.956l10.011,5.792L440-648.353l.066-12.35c.022-6.776,0-12.372-.044-12.415-.044-.066-2.186,1.115-4.765,2.6l-4.656,2.732-.066,2.994-.066,3.016,1.268-.721c.7-.393,1.683-.94,2.208-1.246l.918-.525v3.432a13.078,13.078,0,0,1-.2,3.344c-.109-.044-2.186-1.2-4.59-2.579l-4.393-2.514.066-5.333.044-5.355,4.372-2.557c2.4-1.421,4.437-2.579,4.546-2.579a6.787,6.787,0,0,1,.153,2.055v2.055l2.47-1.421c1.333-.787,2.514-1.508,2.623-1.6a46.072,46.072,0,0,0,.109-5.18L440-687.5Z" transform="translate(-292.577 1047.233)" fill="#fff"/>
    <path id="Path_18332" data-name="Path 18332" d="M527-682.753v5.115l2.688,1.552,2.667,1.552.109-2.055.109-2.055,4.415,2.557,4.437,2.557v10.71l-4.437,2.557-4.415,2.557-.066-1.749c-.044-.962-.044-2.47,0-3.344l.066-1.618,1.967,1.18c1.093.634,2.055,1.158,2.142,1.18a14.785,14.785,0,0,0,.109-2.995l-.066-2.994-4.809-2.8-4.809-2.8-.066,12.5c-.022,6.863,0,12.524.044,12.568s4.612-2.557,10.164-5.77l10.076-5.858v-15.956l-9.989-5.792c-5.464-3.191-10.055-5.836-10.142-5.858A31.675,31.675,0,0,0,527-682.753Z" transform="translate(-376.189 1047.47)" fill="#fff"/>
    <g id="Group_41420" data-name="Group 41420" transform="translate(107 336.705)">
      <path id="Path_18329" data-name="Path 18329" d="M363.348-792.643a43.479,43.479,0,0,0-32.109,20.9,44.534,44.534,0,0,0-5.071,13.18c-.546,2.557-.568,3.082-.568,8.306s.022,5.749.568,8.306a42.425,42.425,0,0,0,11.191,21.18A40.706,40.706,0,0,0,349.4-712.01a43.4,43.4,0,0,0,45.464-4.568A48.735,48.735,0,0,0,403.829-726c.787-1.18.787-1.18.066-.328a38.3,38.3,0,0,1-9.18,8.415,37.619,37.619,0,0,1-9.311,4.59,39.416,39.416,0,0,1-47.8-19.563A38.718,38.718,0,0,1,347.829-780.4a42.369,42.369,0,0,1,22.448-8.743,42.447,42.447,0,0,1,20.787,4.262,48.978,48.978,0,0,1,8.5,6.055,45.947,45.947,0,0,1,4.328,4.634c.721.852.721.852-.066-.328a40.081,40.081,0,0,0-5.4-6.251,42.792,42.792,0,0,0-25.093-11.891A63.531,63.531,0,0,0,363.348-792.643Z" transform="translate(-325.6 792.851)" fill="url(#linear-gradient-2)"/>
    </g>
  </g>
</svg>
