<svg width="19" height="24" viewBox="0 0 19 24" fill="none" xmlns="http://www.w3.org/2000/svg">
<path d="M5 1.5C4.17031 1.5 3.5 2.17031 3.5 3V21C3.5 21.8297 4.17031 22.5 5 22.5H14C14.8297 22.5 15.5 21.8297 15.5 21V3C15.5 2.17031 14.8297 1.5 14 1.5H5ZM2 3C2 1.34531 3.34531 0 5 0H14C15.6547 0 17 1.34531 17 3V21C17 22.6547 15.6547 24 14 24H5C3.34531 24 2 22.6547 2 21V3ZM8 18.75H11C11.4125 18.75 11.75 19.0875 11.75 19.5C11.75 19.9125 11.4125 20.25 11 20.25H8C7.5875 20.25 7.25 19.9125 7.25 19.5C7.25 19.0875 7.5875 18.75 8 18.75Z" fill="black"/>
</svg>
