<svg width="74" height="74" viewBox="0 0 74 74" fill="none" xmlns="http://www.w3.org/2000/svg">
  <g filter="url(#filter0_d_127_10168)">
    <path d="M37 63C53.0163 63 66 50.0163 66 34C66 17.9837 53.0163 5 37 5C20.9837 5 8 17.9837 8 34C8 50.0163 20.9837 63 37 63Z" fill="#0D49AE"/>
  </g>
  <path d="M25.872 35.113H45.484L41.81 38.787C41.6001 38.9969 41.4822 39.2816 41.4822 39.5785C41.4822 39.8754 41.6001 40.1601 41.81 40.37C42.0199 40.5799 42.3046 40.6979 42.6015 40.6979C42.8984 40.6979 43.1831 40.5799 43.393 40.37L46.739 37.018L48.973 34.781C49.1808 34.5718 49.2973 34.2889 49.2973 33.994C49.2973 33.6992 49.1808 33.4163 48.973 33.207L43.393 27.62C43.2904 27.5102 43.1668 27.4221 43.0294 27.3611C42.8921 27.3001 42.7439 27.2672 42.5936 27.2647C42.4433 27.2621 42.2941 27.2898 42.1548 27.3462C42.0154 27.4025 41.8888 27.4863 41.7826 27.5926C41.6763 27.6988 41.5925 27.8254 41.5362 27.9648C41.4798 28.1041 41.4521 28.2533 41.4547 28.4036C41.4573 28.5539 41.49 28.7021 41.5511 28.8394C41.6121 28.9768 41.7002 29.1004 41.81 29.203L45.493 32.877H25.814C25.6658 32.8787 25.5194 32.9097 25.3833 32.9685C25.2472 33.0272 25.1242 33.1124 25.0213 33.2192C24.9185 33.3259 24.8379 33.452 24.7842 33.5902C24.7306 33.7283 24.7049 33.8758 24.7088 34.0239C24.7126 34.1721 24.7459 34.318 24.8066 34.4532C24.8674 34.5884 24.9544 34.7102 25.0627 34.8114C25.1709 34.9127 25.2982 34.9914 25.4371 35.043C25.5761 35.0946 25.7239 35.1181 25.872 35.112V35.113Z" fill="white"/>
  <defs>
    <filter id="filter0_d_127_10168" x="0" y="0" width="74" height="74" filterUnits="userSpaceOnUse" color-interpolation-filters="sRGB">
      <feFlood flood-opacity="0" result="BackgroundImageFix"/>
      <feColorMatrix in="SourceAlpha" type="matrix" values="0 0 0 0 0 0 0 0 0 0 0 0 0 0 0 0 0 0 127 0" result="hardAlpha"/>
      <feOffset dy="3"/>
      <feGaussianBlur stdDeviation="4"/>
      <feColorMatrix type="matrix" values="0 0 0 0 0 0 0 0 0 0 0 0 0 0 0 0 0 0 0.098 0"/>
      <feBlend mode="normal" in2="BackgroundImageFix" result="effect1_dropShadow_127_10168"/>
      <feBlend mode="normal" in="SourceGraphic" in2="effect1_dropShadow_127_10168" result="shape"/>
    </filter>
  </defs>
</svg>
