<svg width="18" height="20" viewBox="0 0 18 20" fill="none" xmlns="http://www.w3.org/2000/svg">
<path d="M5.37456 1.875C5.37456 1.37772 5.5721 0.900805 5.92373 0.549175C6.27536 0.197544 6.75228 0 7.24956 0C7.74684 0 8.22375 0.197544 8.57538 0.549175C8.92701 0.900805 9.12456 1.37772 9.12456 1.875C9.12456 2.37228 8.92701 2.84919 8.57538 3.20083C8.22375 3.55246 7.74684 3.75 7.24956 3.75C6.75228 3.75 6.27536 3.55246 5.92373 3.20083C5.5721 2.84919 5.37456 2.37228 5.37456 1.875ZM6.62456 6.87891V11.875H7.87456V6.87891C7.84721 6.87891 7.81596 6.875 7.78471 6.875H6.7144C6.68315 6.875 6.65581 6.875 6.62456 6.87891ZM6.62456 13.75V19.0625C6.62456 19.582 6.20659 20 5.68706 20C5.16753 20 4.74956 19.582 4.74956 19.0625V8.73438L3.06596 11.7109C2.81206 12.1602 2.23784 12.3203 1.78862 12.0664C1.3394 11.8125 1.17925 11.2383 1.43315 10.7891L3.72221 6.74609C4.33159 5.66797 5.47612 5 6.7144 5H7.78862C9.0269 5 10.1714 5.66797 10.7808 6.74609L13.066 10.7891C13.3199 11.2383 13.1636 11.8125 12.7105 12.0664C12.2574 12.3203 11.6871 12.1641 11.4332 11.7109L9.74956 8.73438V19.0625C9.74956 19.582 9.33159 20 8.81206 20C8.29253 20 7.87456 19.582 7.87456 19.0625V13.75H6.62456Z" fill="#46484D"/>
</svg>
