<svg width="16" height="16" viewBox="0 0 16 16" fill="none" xmlns="http://www.w3.org/2000/svg">
<g clip-path="url(#clip0_441_11967)">
<path d="M15.6408 12.6591L13.1666 10.1793C12.6717 9.69058 11.8613 9.70495 11.3521 10.2153L10.1043 11.466C10.0254 11.4228 9.94649 11.3797 9.86043 11.3294C9.07154 10.8909 7.99579 10.2943 6.86267 9.15868C5.73671 8.01582 5.13429 6.93766 4.69682 6.147C4.65379 6.06793 4.61076 5.98168 4.56773 5.9098L5.40682 5.07602L5.80843 4.65913C6.31762 4.1488 6.33196 3.32939 5.84429 2.84062L3.37006 0.360837C2.88239 -0.127932 2.06482 -0.113556 1.55563 0.396776L0.859978 1.09399L0.881493 1.11555C0.644828 1.41744 0.451193 1.75527 0.307759 2.12903C0.171498 2.48123 0.0926091 2.81906 0.0495791 3.15688C-0.273146 5.86668 0.960381 8.34646 4.31672 11.7103C8.95679 16.3608 12.6932 16.0086 12.851 15.9871C13.2024 15.9439 13.5395 15.8577 13.8837 15.7283C14.2495 15.5846 14.5937 15.3905 14.8949 15.1533L14.9093 15.1677L15.6121 14.4776C16.1213 13.9673 16.1356 13.1479 15.6408 12.6591Z" fill="#000080"/>
</g>
<defs>
<clipPath id="clip0_441_11967">
<rect width="16" height="16" fill="white"/>
</clipPath>
</defs>
</svg>
