<svg width="25" height="20" viewBox="0 0 25 20" fill="none" xmlns="http://www.w3.org/2000/svg">
<path d="M19.9824 1.66669V3.33335M9.98242 1.66669V3.33335" stroke="#ED3024" stroke-width="1.2" stroke-linecap="round" stroke-linejoin="round"/>
<path d="M14.979 10.8334H14.9865M14.979 14.1667H14.9865M18.3086 10.8334H18.3161M11.6494 10.8334H11.6569M11.6494 14.1667H11.6569" stroke="#ED3024" stroke-width="1.2" stroke-linecap="round" stroke-linejoin="round"/>
<path d="M7.89941 6.66669H22.0661" stroke="#ED3024" stroke-width="1.2" stroke-linecap="round" stroke-linejoin="round"/>
<path d="M7.06592 10.2027C7.06592 6.57161 7.06592 4.75607 8.10935 3.62803C9.15278 2.5 10.8322 2.5 14.1909 2.5H15.7743C19.133 2.5 20.8124 2.5 21.8558 3.62803C22.8993 4.75607 22.8993 6.57161 22.8993 10.2027V10.6306C22.8993 14.2617 22.8993 16.0773 21.8558 17.2053C20.8124 18.3333 19.133 18.3333 15.7743 18.3333H14.1909C10.8322 18.3333 9.15278 18.3333 8.10935 17.2053C7.06592 16.0773 7.06592 14.2617 7.06592 10.6306V10.2027Z" stroke="#ED3024" stroke-width="1.2" stroke-linecap="round" stroke-linejoin="round"/>
<path d="M7.48242 6.66669H22.4824" stroke="#ED3024" stroke-width="1.2" stroke-linecap="round" stroke-linejoin="round"/>
<path opacity="0.15" d="M2.82967 7.40254C3.65053 5.46698 4.06095 4.4992 4.76106 3.89207C5.30973 3.41628 5.97758 3.09883 6.69296 2.97379C7.60581 2.81424 8.61543 3.10704 10.6347 3.69265L12.7586 4.30863C15.1055 4.98926 16.279 5.32957 17.0142 6.08091C17.52 6.59783 17.8762 7.2422 18.0449 7.94547C18.2901 8.96768 17.9541 10.1424 17.2822 12.4918C16.5392 15.0896 16.1677 16.3886 15.3346 17.1518C14.7629 17.6756 14.0513 18.0219 13.2863 18.1486C12.1717 18.3333 10.9203 17.8242 8.41746 16.8059L6.36901 15.9725C4.16989 15.0779 3.07034 14.6305 2.42619 13.8456C1.9225 13.2319 1.61286 12.4821 1.53668 11.6918C1.43927 10.6811 1.90274 9.58826 2.82967 7.40254Z" fill="#ED3024"/>
</svg>
