<svg width="24" height="22" viewBox="0 0 24 22" fill="none" xmlns="http://www.w3.org/2000/svg">
<path opacity="0.15" d="M2.98592 7.24581C3.80678 5.31024 4.2172 4.34246 4.91731 3.73534C5.46598 3.25954 6.13383 2.94209 6.84921 2.81705C7.76206 2.6575 8.77168 2.9503 10.7909 3.53591L12.9149 4.15189C15.2618 4.83252 16.4352 5.17283 17.1704 5.92418C17.6762 6.44109 18.0324 7.08546 18.2011 7.78873C18.4463 8.81095 18.1103 9.98564 17.4384 12.335C16.6954 14.9329 16.3239 16.2318 15.4909 16.995C14.9192 17.5188 14.2075 17.8652 13.4426 17.9919C12.3279 18.1765 11.0765 17.6674 8.57371 16.6492L6.52526 15.8158C4.32614 14.9211 3.22659 14.4738 2.58244 13.6889C2.07875 13.0751 1.76911 12.3254 1.69293 11.5351C1.59552 10.5244 2.05899 9.43152 2.98592 7.24581Z" fill="#ED3024"/>
<g clip-path="url(#clip0_4525_9247)">
<path d="M13.8252 19.9065C16.1458 19.9065 18.3714 18.9846 20.0124 17.3437C21.6533 15.7027 22.5752 13.4771 22.5752 11.1565C22.5752 8.83585 21.6533 6.61025 20.0124 4.96931C18.3714 3.32837 16.1458 2.40649 13.8252 2.40649C11.5046 2.40649 9.27895 3.32837 7.63801 4.96931C5.99707 6.61025 5.0752 8.83585 5.0752 11.1565C5.0752 13.4771 5.99707 15.7027 7.63801 17.3437C9.27895 18.9846 11.5046 19.9065 13.8252 19.9065ZM13.8252 1.15649C16.4774 1.15649 19.0209 2.21006 20.8963 4.08543C22.7716 5.96079 23.8252 8.50433 23.8252 11.1565C23.8252 13.8087 22.7716 16.3522 20.8963 18.2276C19.0209 20.1029 16.4774 21.1565 13.8252 21.1565C11.173 21.1565 8.62949 20.1029 6.75413 18.2276C4.87876 16.3522 3.8252 13.8087 3.8252 11.1565C3.8252 8.50433 4.87876 5.96079 6.75413 4.08543C8.62949 2.21006 11.173 1.15649 13.8252 1.15649ZM14.7627 11.1565C14.7627 11.4051 14.6639 11.6436 14.4881 11.8194C14.3123 11.9952 14.0738 12.094 13.8252 12.094C13.5766 12.094 13.3381 11.9952 13.1623 11.8194C12.9865 11.6436 12.8877 11.4051 12.8877 11.1565C12.8877 10.9079 12.9865 10.6694 13.1623 10.4936C13.3381 10.3178 13.5766 10.219 13.8252 10.219C14.0738 10.219 14.3123 10.3178 14.4881 10.4936C14.6639 10.6694 14.7627 10.9079 14.7627 11.1565ZM17.5752 10.219C17.8238 10.219 18.0623 10.3178 18.2381 10.4936C18.4139 10.6694 18.5127 10.9079 18.5127 11.1565C18.5127 11.4051 18.4139 11.6436 18.2381 11.8194C18.0623 11.9952 17.8238 12.094 17.5752 12.094C17.3266 12.094 17.0881 11.9952 16.9123 11.8194C16.7365 11.6436 16.6377 11.4051 16.6377 11.1565C16.6377 10.9079 16.7365 10.6694 16.9123 10.4936C17.0881 10.3178 17.3266 10.219 17.5752 10.219ZM11.0127 11.1565C11.0127 11.4051 10.9139 11.6436 10.7381 11.8194C10.5623 11.9952 10.3238 12.094 10.0752 12.094C9.82655 12.094 9.5881 11.9952 9.41228 11.8194C9.23647 11.6436 9.1377 11.4051 9.1377 11.1565C9.1377 10.9079 9.23647 10.6694 9.41228 10.4936C9.5881 10.3178 9.82655 10.219 10.0752 10.219C10.3238 10.219 10.5623 10.3178 10.7381 10.4936C10.9139 10.6694 11.0127 10.9079 11.0127 11.1565Z" fill="#ED3024"/>
</g>
<defs>
<clipPath id="clip0_4525_9247">
<rect width="20" height="20" fill="white" transform="translate(3.8252 1.15649)"/>
</clipPath>
</defs>
</svg>
