<svg width="25" height="20" viewBox="0 0 25 20" fill="none" xmlns="http://www.w3.org/2000/svg">
<path d="M14.5671 17.5C18.9393 17.5 22.4837 13.9555 22.4837 9.58329C22.4837 5.21104 18.9393 1.66663 14.5671 1.66663C10.1948 1.66663 6.65039 5.21104 6.65039 9.58329C6.65039 13.9555 10.1948 17.5 14.5671 17.5Z" stroke="#ED3024" stroke-width="1.2" stroke-linecap="round" stroke-linejoin="round"/>
<path d="M23.3171 18.3333L21.6504 16.6666" stroke="#ED3024" stroke-width="1.2" stroke-linecap="round" stroke-linejoin="round"/>
<path opacity="0.15" d="M2.8287 7.10909C3.64955 5.17352 4.05998 4.20574 4.76008 3.59862C5.30875 3.12282 5.9766 2.80538 6.69199 2.68033C7.60484 2.52078 8.61445 2.81358 10.6337 3.39919L12.7576 4.01517C15.1045 4.6958 16.278 5.03612 17.0132 5.78746C17.519 6.30437 17.8752 6.94875 18.0439 7.65201C18.2891 8.67423 17.9531 9.84892 17.2812 12.1983C16.5382 14.7962 16.1667 16.0951 15.3337 16.8583C14.7619 17.3821 14.0503 17.7284 13.2853 17.8552C12.1707 18.0398 10.9193 17.5307 8.41648 16.5125L6.36803 15.6791C4.16892 14.7844 3.06936 14.3371 2.42521 13.5522C1.92152 12.9384 1.61188 12.1887 1.53571 11.3983C1.43829 10.3877 1.90176 9.2948 2.8287 7.10909Z" fill="#ED3024"/>
</svg>
