<svg width="24" height="20" viewBox="0 0 24 20" fill="none" xmlns="http://www.w3.org/2000/svg">
<path opacity="0.15" d="M2.82674 7.15059C3.6476 5.21503 4.05802 4.24724 4.75813 3.64012C5.3068 3.16433 5.97465 2.84688 6.69004 2.72184C7.60288 2.56228 8.6125 2.85509 10.6317 3.44069L12.7557 4.05667C15.1026 4.7373 16.276 5.07762 17.0112 5.82896C17.517 6.34587 17.8732 6.99025 18.0419 7.69352C18.2871 8.71573 17.9512 9.89043 17.2792 12.2398C16.5363 14.8377 16.1648 16.1366 15.3317 16.8998C14.76 17.4236 14.0483 17.7699 13.2834 17.8967C12.1688 18.0813 10.9174 17.5722 8.41453 16.554L6.36608 15.7206C4.16696 14.8259 3.06741 14.3786 2.42326 13.5937C1.91957 12.9799 1.60993 12.2302 1.53375 11.4399C1.43634 10.4292 1.89981 9.3363 2.82674 7.15059Z" fill="#ED3024"/>
<path d="M16.4854 14.1667C15.8191 14.6854 14.9439 15.0001 13.9854 15.0001C13.0268 15.0001 12.1516 14.6854 11.4854 14.1667" stroke="#ED3024" stroke-width="1.2" stroke-linecap="round"/>
<path d="M5.94517 11.0113C5.65099 9.09695 5.50389 8.13978 5.86581 7.29123C6.22773 6.44268 7.0307 5.86211 8.63663 4.70097L9.8365 3.83341C11.8343 2.38897 12.8331 1.66675 13.9857 1.66675C15.1382 1.66675 16.1371 2.38897 18.1349 3.83341L19.3347 4.70097C20.9407 5.86211 21.7436 6.44268 22.1055 7.29123C22.4675 8.13978 22.3204 9.09695 22.0262 11.0113L21.7753 12.6437C21.3583 15.3575 21.1498 16.7144 20.1765 17.5239C19.2033 18.3334 17.7804 18.3334 14.9347 18.3334H13.0367C10.191 18.3334 8.7681 18.3334 7.79484 17.5239C6.82159 16.7144 6.61307 15.3575 6.19603 12.6437L5.94517 11.0113Z" stroke="#ED3024" stroke-width="1.2" stroke-linejoin="round"/>
</svg>
