<svg width="106" height="18" viewBox="0 0 106 18" fill="none" xmlns="http://www.w3.org/2000/svg">
<g clip-path="url(#clip0_3442_14791)">
<path d="M9.44071 15.0436C9.16931 14.8792 8.829 14.8792 8.55761 15.0437L4.39532 17.5665C3.75017 17.9575 2.95263 17.3789 3.12406 16.6443L4.22755 11.9153C4.29924 11.6081 4.19529 11.2864 3.95739 11.0792L0.293637 7.88862C-0.273874 7.3944 0.031211 6.46092 0.781053 6.39724L5.60934 5.98723C5.92375 5.96053 6.19766 5.76223 6.3212 5.47188L8.21605 1.0184C8.51015 0.327199 9.48985 0.327199 9.78395 1.0184L11.6788 5.47188C11.8023 5.76224 12.0762 5.96053 12.3907 5.98723L17.2189 6.39724C17.9688 6.46092 18.2739 7.3944 17.7064 7.88862L14.0426 11.0792C13.8047 11.2864 13.7008 11.6081 13.7725 11.9153L14.876 16.6446C15.0474 17.3792 14.25 17.9578 13.6048 17.5668L9.44071 15.0436Z" fill="#FEBC2E"/>
</g>
<g clip-path="url(#clip1_3442_14791)">
<path d="M31.4407 15.0436C31.1693 14.8792 30.829 14.8792 30.5576 15.0437L26.3953 17.5665C25.7502 17.9575 24.9526 17.3789 25.1241 16.6443L26.2275 11.9153C26.2992 11.6081 26.1953 11.2864 25.9574 11.0792L22.2936 7.88862C21.7261 7.3944 22.0312 6.46092 22.7811 6.39724L27.6093 5.98723C27.9238 5.96053 28.1977 5.76223 28.3212 5.47188L30.2161 1.0184C30.5101 0.327199 31.4899 0.327199 31.7839 1.0184L33.6788 5.47188C33.8023 5.76224 34.0762 5.96053 34.3907 5.98723L39.2189 6.39724C39.9688 6.46092 40.2739 7.3944 39.7064 7.88862L36.0426 11.0792C35.8047 11.2864 35.7008 11.6081 35.7725 11.9153L36.876 16.6446C37.0474 17.3792 36.25 17.9578 35.6048 17.5668L31.4407 15.0436Z" fill="#FEBC2E"/>
</g>
<g clip-path="url(#clip2_3442_14791)">
<path d="M53.4407 15.0436C53.1693 14.8792 52.829 14.8792 52.5576 15.0437L48.3953 17.5665C47.7502 17.9575 46.9526 17.3789 47.1241 16.6443L48.2275 11.9153C48.2992 11.6081 48.1953 11.2864 47.9574 11.0792L44.2936 7.88862C43.7261 7.3944 44.0312 6.46092 44.7811 6.39724L49.6093 5.98723C49.9238 5.96053 50.1977 5.76223 50.3212 5.47188L52.2161 1.0184C52.5101 0.327199 53.4899 0.327199 53.7839 1.0184L55.6788 5.47188C55.8023 5.76224 56.0762 5.96053 56.3907 5.98723L61.2189 6.39724C61.9688 6.46092 62.2739 7.3944 61.7064 7.88862L58.0426 11.0792C57.8047 11.2864 57.7008 11.6081 57.7725 11.9153L58.876 16.6446C59.0474 17.3792 58.25 17.9578 57.6048 17.5668L53.4407 15.0436Z" fill="#FEBC2E"/>
</g>
<g clip-path="url(#clip3_3442_14791)">
<path d="M75.4407 15.0436C75.1693 14.8792 74.829 14.8792 74.5576 15.0437L70.3953 17.5665C69.7502 17.9575 68.9526 17.3789 69.1241 16.6443L70.2275 11.9153C70.2992 11.6081 70.1953 11.2864 69.9574 11.0792L66.2936 7.88862C65.7261 7.3944 66.0312 6.46092 66.7811 6.39724L71.6093 5.98723C71.9238 5.96053 72.1977 5.76223 72.3212 5.47188L74.2161 1.0184C74.5101 0.327199 75.4899 0.327199 75.7839 1.0184L77.6788 5.47188C77.8023 5.76224 78.0762 5.96053 78.3907 5.98723L83.2189 6.39724C83.9688 6.46092 84.2739 7.3944 83.7064 7.88862L80.0426 11.0792C79.8047 11.2864 79.7008 11.6081 79.7725 11.9153L80.876 16.6446C81.0474 17.3792 80.25 17.9578 79.6048 17.5668L75.4407 15.0436Z" fill="#DBDEE8"/>
</g>
<g clip-path="url(#clip4_3442_14791)">
<path d="M97.4407 14.7091C97.1693 14.5447 96.829 14.5447 96.5576 14.7092L92.3953 17.232C91.7502 17.623 90.9526 17.0445 91.1241 16.3098L92.2275 11.5808C92.2992 11.2736 92.1953 10.9519 91.9574 10.7447L88.2936 7.55415C87.7261 7.05993 88.0312 6.12644 88.7811 6.06277L93.6093 5.65275C93.9238 5.62605 94.1977 5.42776 94.3212 5.13741L96.2161 0.68393C96.5101 -0.00727415 97.4899 -0.0072732 97.7839 0.683931L99.6788 5.13741C99.8023 5.42776 100.076 5.62606 100.391 5.65275L105.219 6.06277C105.969 6.12644 106.274 7.05993 105.706 7.55415L102.043 10.7447C101.805 10.9519 101.701 11.2736 101.772 11.5808L102.876 16.3101C103.047 17.0447 102.25 17.6233 101.605 17.2324L97.4407 14.7091Z" fill="#DBDEE8"/>
</g>
<defs>
<clipPath id="clip0_3442_14791">
<rect width="18" height="17.25" fill="white" transform="translate(0 0.5)"/>
</clipPath>
<clipPath id="clip1_3442_14791">
<rect width="18" height="17.25" fill="white" transform="translate(22 0.5)"/>
</clipPath>
<clipPath id="clip2_3442_14791">
<rect width="18" height="17.25" fill="white" transform="translate(44 0.5)"/>
</clipPath>
<clipPath id="clip3_3442_14791">
<rect width="18" height="17.25" fill="white" transform="translate(66 0.5)"/>
</clipPath>
<clipPath id="clip4_3442_14791">
<rect width="18" height="17.25" fill="white" transform="translate(88 0.5)"/>
</clipPath>
</defs>
</svg>
