<svg width="106" height="18" viewBox="0 0 106 18" fill="none" xmlns="http://www.w3.org/2000/svg">
<g clip-path="url(#clip0_3442_14795)">
<path d="M9.44071 15.2936C9.16931 15.1292 8.829 15.1292 8.55761 15.2937L4.39532 17.8165C3.75017 18.2075 2.95263 17.6289 3.12406 16.8943L4.22755 12.1653C4.29924 11.8581 4.19529 11.5364 3.95739 11.3292L0.293637 8.13862C-0.273874 7.6444 0.031211 6.71092 0.781053 6.64724L5.60934 6.23723C5.92375 6.21053 6.19766 6.01223 6.3212 5.72188L8.21605 1.2684C8.51015 0.577199 9.48985 0.577199 9.78395 1.2684L11.6788 5.72188C11.8023 6.01224 12.0762 6.21053 12.3907 6.23723L17.2189 6.64724C17.9688 6.71092 18.2739 7.6444 17.7064 8.13862L14.0426 11.3292C13.8047 11.5364 13.7008 11.8581 13.7725 12.1653L14.876 16.8946C15.0474 17.6292 14.25 18.2078 13.6048 17.8168L9.44071 15.2936Z" fill="#FEBC2E"/>
</g>
<g clip-path="url(#clip1_3442_14795)">
<path d="M31.4407 15.2936C31.1693 15.1292 30.829 15.1292 30.5576 15.2937L26.3953 17.8165C25.7502 18.2075 24.9526 17.6289 25.1241 16.8943L26.2275 12.1653C26.2992 11.8581 26.1953 11.5364 25.9574 11.3292L22.2936 8.13862C21.7261 7.6444 22.0312 6.71092 22.7811 6.64724L27.6093 6.23723C27.9238 6.21053 28.1977 6.01223 28.3212 5.72188L30.2161 1.2684C30.5101 0.577199 31.4899 0.577199 31.7839 1.2684L33.6788 5.72188C33.8023 6.01224 34.0762 6.21053 34.3907 6.23723L39.2189 6.64724C39.9688 6.71092 40.2739 7.6444 39.7064 8.13862L36.0426 11.3292C35.8047 11.5364 35.7008 11.8581 35.7725 12.1653L36.876 16.8946C37.0474 17.6292 36.25 18.2078 35.6048 17.8168L31.4407 15.2936Z" fill="#FEBC2E"/>
</g>
<g clip-path="url(#clip2_3442_14795)">
<path d="M53.4407 15.2936C53.1693 15.1292 52.829 15.1292 52.5576 15.2937L48.3953 17.8165C47.7502 18.2075 46.9526 17.6289 47.1241 16.8943L48.2275 12.1653C48.2992 11.8581 48.1953 11.5364 47.9574 11.3292L44.2936 8.13862C43.7261 7.6444 44.0312 6.71092 44.7811 6.64724L49.6093 6.23723C49.9238 6.21053 50.1977 6.01223 50.3212 5.72188L52.2161 1.2684C52.5101 0.577199 53.4899 0.577199 53.7839 1.2684L55.6788 5.72188C55.8023 6.01224 56.0762 6.21053 56.3907 6.23723L61.2189 6.64724C61.9688 6.71092 62.2739 7.6444 61.7064 8.13862L58.0426 11.3292C57.8047 11.5364 57.7008 11.8581 57.7725 12.1653L58.876 16.8946C59.0474 17.6292 58.25 18.2078 57.6048 17.8168L53.4407 15.2936Z" fill="#DBDEE8"/>
</g>
<g clip-path="url(#clip3_3442_14795)">
<path d="M75.4407 15.2936C75.1693 15.1292 74.829 15.1292 74.5576 15.2937L70.3953 17.8165C69.7502 18.2075 68.9526 17.6289 69.1241 16.8943L70.2275 12.1653C70.2992 11.8581 70.1953 11.5364 69.9574 11.3292L66.2936 8.13862C65.7261 7.6444 66.0312 6.71092 66.7811 6.64724L71.6093 6.23723C71.9238 6.21053 72.1977 6.01223 72.3212 5.72188L74.2161 1.2684C74.5101 0.577199 75.4899 0.577199 75.7839 1.2684L77.6788 5.72188C77.8023 6.01224 78.0762 6.21053 78.3907 6.23723L83.2189 6.64724C83.9688 6.71092 84.2739 7.6444 83.7064 8.13862L80.0426 11.3292C79.8047 11.5364 79.7008 11.8581 79.7725 12.1653L80.876 16.8946C81.0474 17.6292 80.25 18.2078 79.6048 17.8168L75.4407 15.2936Z" fill="#DBDEE8"/>
<mask id="mask0_3442_14795" style="mask-type:alpha" maskUnits="userSpaceOnUse" x="66" y="0" width="18" height="18">
<path d="M75.4407 15.2936C75.1693 15.1292 74.829 15.1292 74.5576 15.2937L70.3953 17.8165C69.7502 18.2075 68.9526 17.6289 69.1241 16.8943L70.2275 12.1653C70.2992 11.8581 70.1953 11.5364 69.9574 11.3292L66.2936 8.13862C65.7261 7.6444 66.0312 6.71092 66.7811 6.64724L71.6093 6.23723C71.9238 6.21053 72.1977 6.01223 72.3212 5.72188L74.2161 1.2684C74.5101 0.577199 75.4899 0.577199 75.7839 1.2684L77.6788 5.72188C77.8023 6.01224 78.0762 6.21053 78.3907 6.23723L83.2189 6.64724C83.9688 6.71092 84.2739 7.6444 83.7064 8.13862L80.0426 11.3292C79.8047 11.5364 79.7008 11.8581 79.7725 12.1653L80.876 16.8946C81.0474 17.6292 80.25 18.2078 79.6048 17.8168L75.4407 15.2936Z" fill="#E0E8F1"/>
</mask>
<g mask="url(#mask0_3442_14795)">
<rect x="66" y="0.75" width="9" height="17.1907" fill="#DBDEE8"/>
</g>
</g>
<g clip-path="url(#clip4_3442_14795)">
<path d="M97.4407 14.9591C97.1693 14.7947 96.829 14.7947 96.5576 14.9592L92.3953 17.482C91.7502 17.873 90.9526 17.2945 91.1241 16.5598L92.2275 11.8308C92.2992 11.5236 92.1953 11.2019 91.9574 10.9947L88.2936 7.80415C87.7261 7.30993 88.0312 6.37644 88.7811 6.31277L93.6093 5.90275C93.9238 5.87605 94.1977 5.67776 94.3212 5.38741L96.2161 0.93393C96.5101 0.242726 97.4899 0.242727 97.7839 0.933931L99.6788 5.38741C99.8023 5.67776 100.076 5.87606 100.391 5.90275L105.219 6.31277C105.969 6.37644 106.274 7.30993 105.706 7.80415L102.043 10.9947C101.805 11.2019 101.701 11.5236 101.772 11.8308L102.876 16.5601C103.047 17.2947 102.25 17.8733 101.605 17.4824L97.4407 14.9591Z" fill="#DBDEE8"/>
</g>
<defs>
<clipPath id="clip0_3442_14795">
<rect width="18" height="17.25" fill="white" transform="translate(0 0.75)"/>
</clipPath>
<clipPath id="clip1_3442_14795">
<rect width="18" height="17.25" fill="white" transform="translate(22 0.75)"/>
</clipPath>
<clipPath id="clip2_3442_14795">
<rect width="18" height="17.25" fill="white" transform="translate(44 0.75)"/>
</clipPath>
<clipPath id="clip3_3442_14795">
<rect width="18" height="17.25" fill="white" transform="translate(66 0.75)"/>
</clipPath>
<clipPath id="clip4_3442_14795">
<rect width="18" height="17.25" fill="white" transform="translate(88 0.75)"/>
</clipPath>
</defs>
</svg>
