<svg width="106" height="18" viewBox="0 0 106 18" fill="none" xmlns="http://www.w3.org/2000/svg">
<g clip-path="url(#clip0_3442_14787)">
<path d="M9.44071 14.7936C9.16931 14.6292 8.829 14.6292 8.55761 14.7937L4.39532 17.3165C3.75017 17.7075 2.95263 17.1289 3.12406 16.3943L4.22755 11.6653C4.29924 11.3581 4.19529 11.0364 3.95739 10.8292L0.293637 7.63862C-0.273874 7.1444 0.031211 6.21092 0.781053 6.14724L5.60934 5.73723C5.92375 5.71053 6.19766 5.51223 6.3212 5.22188L8.21605 0.768403C8.51015 0.0771985 9.48985 0.0771995 9.78395 0.768404L11.6788 5.22188C11.8023 5.51224 12.0762 5.71053 12.3907 5.73723L17.2189 6.14724C17.9688 6.21092 18.2739 7.1444 17.7064 7.63862L14.0426 10.8292C13.8047 11.0364 13.7008 11.3581 13.7725 11.6653L14.876 16.3946C15.0474 17.1292 14.25 17.7078 13.6048 17.3168L9.44071 14.7936Z" fill="#FEBC2E"/>
</g>
<g clip-path="url(#clip1_3442_14787)">
<path d="M31.4407 14.7936C31.1693 14.6292 30.829 14.6292 30.5576 14.7937L26.3953 17.3165C25.7502 17.7075 24.9526 17.1289 25.1241 16.3943L26.2275 11.6653C26.2992 11.3581 26.1953 11.0364 25.9574 10.8292L22.2936 7.63862C21.7261 7.1444 22.0312 6.21092 22.7811 6.14724L27.6093 5.73723C27.9238 5.71053 28.1977 5.51223 28.3212 5.22188L30.2161 0.768403C30.5101 0.0771985 31.4899 0.0771995 31.7839 0.768404L33.6788 5.22188C33.8023 5.51224 34.0762 5.71053 34.3907 5.73723L39.2189 6.14724C39.9688 6.21092 40.2739 7.1444 39.7064 7.63862L36.0426 10.8292C35.8047 11.0364 35.7008 11.3581 35.7725 11.6653L36.876 16.3946C37.0474 17.1292 36.25 17.7078 35.6048 17.3168L31.4407 14.7936Z" fill="#FEBC2E"/>
</g>
<g clip-path="url(#clip2_3442_14787)">
<path d="M53.4407 14.7936C53.1693 14.6292 52.829 14.6292 52.5576 14.7937L48.3953 17.3165C47.7502 17.7075 46.9526 17.1289 47.1241 16.3943L48.2275 11.6653C48.2992 11.3581 48.1953 11.0364 47.9574 10.8292L44.2936 7.63862C43.7261 7.1444 44.0312 6.21092 44.7811 6.14724L49.6093 5.73723C49.9238 5.71053 50.1977 5.51223 50.3212 5.22188L52.2161 0.768403C52.5101 0.0771985 53.4899 0.0771995 53.7839 0.768404L55.6788 5.22188C55.8023 5.51224 56.0762 5.71053 56.3907 5.73723L61.2189 6.14724C61.9688 6.21092 62.2739 7.1444 61.7064 7.63862L58.0426 10.8292C57.8047 11.0364 57.7008 11.3581 57.7725 11.6653L58.876 16.3946C59.0474 17.1292 58.25 17.7078 57.6048 17.3168L53.4407 14.7936Z" fill="#FEBC2E"/>
</g>
<g clip-path="url(#clip3_3442_14787)">
<path d="M75.4407 14.7936C75.1693 14.6292 74.829 14.6292 74.5576 14.7937L70.3953 17.3165C69.7502 17.7075 68.9526 17.1289 69.1241 16.3943L70.2275 11.6653C70.2992 11.3581 70.1953 11.0364 69.9574 10.8292L66.2936 7.63862C65.7261 7.1444 66.0312 6.21092 66.7811 6.14724L71.6093 5.73723C71.9238 5.71053 72.1977 5.51223 72.3212 5.22188L74.2161 0.768403C74.5101 0.0771985 75.4899 0.0771995 75.7839 0.768404L77.6788 5.22188C77.8023 5.51224 78.0762 5.71053 78.3907 5.73723L83.2189 6.14724C83.9688 6.21092 84.2739 7.1444 83.7064 7.63862L80.0426 10.8292C79.8047 11.0364 79.7008 11.3581 79.7725 11.6653L80.876 16.3946C81.0474 17.1292 80.25 17.7078 79.6048 17.3168L75.4407 14.7936Z" fill="#FEBC2E"/>
</g>
<g clip-path="url(#clip4_3442_14787)">
<path d="M97.4407 14.7936C97.1693 14.6292 96.829 14.6292 96.5576 14.7937L92.3953 17.3165C91.7502 17.7075 90.9526 17.1289 91.1241 16.3943L92.2275 11.6653C92.2992 11.3581 92.1953 11.0364 91.9574 10.8292L88.2936 7.63862C87.7261 7.1444 88.0312 6.21092 88.7811 6.14724L93.6093 5.73723C93.9238 5.71053 94.1977 5.51223 94.3212 5.22188L96.2161 0.768403C96.5101 0.0771985 97.4899 0.0771995 97.7839 0.768404L99.6788 5.22188C99.8023 5.51224 100.076 5.71053 100.391 5.73723L105.219 6.14724C105.969 6.21092 106.274 7.1444 105.706 7.63862L102.043 10.8292C101.805 11.0364 101.701 11.3581 101.772 11.6653L102.876 16.3946C103.047 17.1292 102.25 17.7078 101.605 17.3168L97.4407 14.7936Z" fill="#DBDEE8"/>
<mask id="mask0_3442_14787" style="mask-type:alpha" maskUnits="userSpaceOnUse" x="88" y="0" width="18" height="18">
<path d="M97.4407 14.7936C97.1693 14.6292 96.829 14.6292 96.5576 14.7937L92.3953 17.3165C91.7502 17.7075 90.9526 17.1289 91.1241 16.3943L92.2275 11.6653C92.2992 11.3581 92.1953 11.0364 91.9574 10.8292L88.2936 7.63862C87.7261 7.1444 88.0312 6.21092 88.7811 6.14724L93.6093 5.73723C93.9238 5.71053 94.1977 5.51223 94.3212 5.22188L96.2161 0.768403C96.5101 0.0771985 97.4899 0.0771995 97.7839 0.768404L99.6788 5.22188C99.8023 5.51224 100.076 5.71053 100.391 5.73723L105.219 6.14724C105.969 6.21092 106.274 7.1444 105.706 7.63862L102.043 10.8292C101.805 11.0364 101.701 11.3581 101.772 11.6653L102.876 16.3946C103.047 17.1292 102.25 17.7078 101.605 17.3168L97.4407 14.7936Z" fill="#E0E8F1"/>
</mask>
<g mask="url(#mask0_3442_14787)">
</g>
</g>
<defs>
<clipPath id="clip0_3442_14787">
<rect width="18" height="17.25" fill="white" transform="translate(0 0.25)"/>
</clipPath>
<clipPath id="clip1_3442_14787">
<rect width="18" height="17.25" fill="white" transform="translate(22 0.25)"/>
</clipPath>
<clipPath id="clip2_3442_14787">
<rect width="18" height="17.25" fill="white" transform="translate(44 0.25)"/>
</clipPath>
<clipPath id="clip3_3442_14787">
<rect width="18" height="17.25" fill="white" transform="translate(66 0.25)"/>
</clipPath>
<clipPath id="clip4_3442_14787">
<rect width="18" height="17.25" fill="white" transform="translate(88 0.25)"/>
</clipPath>
</defs>
</svg>
