<svg width="15" height="13" viewBox="0 0 15 13" fill="none" xmlns="http://www.w3.org/2000/svg">
<path d="M2.4375 3.6875C2.4375 3.51514 2.47145 3.34447 2.53741 3.18523C2.60337 3.02599 2.70005 2.8813 2.82192 2.75942C2.9438 2.63755 3.08849 2.54087 3.24773 2.47491C3.40697 2.40895 3.57764 2.375 3.75 2.375C3.92236 2.375 4.09303 2.40895 4.25227 2.47491C4.41151 2.54087 4.5562 2.63755 4.67808 2.75942C4.79995 2.8813 4.89663 3.02599 4.96259 3.18523C5.02855 3.34447 5.0625 3.51514 5.0625 3.6875C5.0625 3.85986 5.02855 4.03053 4.96259 4.18977C4.89663 4.34901 4.79995 4.4937 4.67808 4.61558C4.5562 4.73745 4.41151 4.83413 4.25227 4.90009C4.09303 4.96605 3.92236 5 3.75 5C3.57764 5 3.40697 4.96605 3.24773 4.90009C3.08849 4.83413 2.9438 4.73745 2.82192 4.61558C2.70005 4.4937 2.60337 4.34901 2.53741 4.18977C2.47145 4.03053 2.4375 3.85986 2.4375 3.6875ZM6.1875 3.6875C6.1875 3.04103 5.93069 2.42105 5.47357 1.96393C5.01645 1.50681 4.39647 1.25 3.75 1.25C3.10353 1.25 2.48355 1.50681 2.02643 1.96393C1.56931 2.42105 1.3125 3.04103 1.3125 3.6875C1.3125 4.33397 1.56931 4.95395 2.02643 5.41107C2.48355 5.86819 3.10353 6.125 3.75 6.125C4.39647 6.125 5.01645 5.86819 5.47357 5.41107C5.93069 4.95395 6.1875 4.33397 6.1875 3.6875ZM11.25 5.75C11.5455 5.75 11.8381 5.6918 12.111 5.57873C12.384 5.46566 12.6321 5.29992 12.841 5.09099C13.0499 4.88206 13.2157 4.63402 13.3287 4.36104C13.4418 4.08806 13.5 3.79547 13.5 3.5C13.5 3.20453 13.4418 2.91194 13.3287 2.63896C13.2157 2.36598 13.0499 2.11794 12.841 1.90901C12.6321 1.70008 12.384 1.53434 12.111 1.42127C11.8381 1.3082 11.5455 1.25 11.25 1.25C10.9545 1.25 10.6619 1.3082 10.389 1.42127C10.116 1.53434 9.86794 1.70008 9.65901 1.90901C9.45008 2.11794 9.28434 2.36598 9.17127 2.63896C9.0582 2.91194 9 3.20453 9 3.5C9 3.79547 9.0582 4.08806 9.17127 4.36104C9.28434 4.63402 9.45008 4.88206 9.65901 5.09099C9.86794 5.29992 10.116 5.46566 10.389 5.57873C10.6619 5.6918 10.9545 5.75 11.25 5.75ZM3 8.375H4.5C5.53594 8.375 6.375 9.21406 6.375 10.25V10.625H1.125V10.25C1.125 9.21406 1.96406 8.375 3 8.375ZM3 7.25C1.34297 7.25 0 8.59297 0 10.25V10.625C0 11.2461 0.503906 11.75 1.125 11.75H6.375C6.99609 11.75 7.5 11.2461 7.5 10.625V10.25C7.5 8.59297 6.15703 7.25 4.5 7.25H3ZM10.5 11.75H12C13.657 11.75 15 10.407 15 8.75V8.375C15 7.75391 14.4961 7.25 13.875 7.25H8.625C8.11406 7.25 7.68047 7.59219 7.54453 8.06094C7.9875 8.67734 8.25 9.43203 8.25 10.25V10.625C8.25 10.6602 8.25 10.6953 8.24766 10.7305C8.79609 11.3562 9.60234 11.75 10.5 11.75Z" fill="#46484D"/>
</svg>
