<svg width="17" height="16" viewBox="0 0 17 16" fill="none" xmlns="http://www.w3.org/2000/svg">
<path d="M14.3333 1.33325C14.3333 1.05711 14.1095 0.833252 13.8333 0.833252C13.5572 0.833252 13.3333 1.05711 13.3333 1.33325H14.3333ZM13.3333 3.99992C13.3333 4.27606 13.5572 4.49992 13.8333 4.49992C14.1095 4.49992 14.3333 4.27606 14.3333 3.99992H13.3333ZM12.5 2.16659C12.2239 2.16659 12 2.39044 12 2.66659C12 2.94273 12.2239 3.16659 12.5 3.16659V2.16659ZM15.1667 3.16659C15.4428 3.16659 15.6667 2.94273 15.6667 2.66659C15.6667 2.39044 15.4428 2.16659 15.1667 2.16659V3.16659ZM15 5.99992C15 5.72378 14.7761 5.49992 14.5 5.49992C14.2239 5.49992 14 5.72378 14 5.99992H15ZM4.5 10.1666C4.22386 10.1666 4 10.3904 4 10.6666C4 10.9427 4.22386 11.1666 4.5 11.1666V10.1666ZM9.16667 11.1666C9.44281 11.1666 9.66667 10.9427 9.66667 10.6666C9.66667 10.3904 9.44281 10.1666 9.16667 10.1666V11.1666ZM12.5 11.1666C12.7761 11.1666 13 10.9427 13 10.6666C13 10.3904 12.7761 10.1666 12.5 10.1666V11.1666ZM11.1667 10.1666C10.8905 10.1666 10.6667 10.3904 10.6667 10.6666C10.6667 10.9427 10.8905 11.1666 11.1667 11.1666V10.1666ZM13.3333 1.33325V2.66659H14.3333V1.33325H13.3333ZM13.3333 2.66659V3.99992H14.3333V2.66659H13.3333ZM12.5 3.16659H13.8333V2.16659H12.5V3.16659ZM13.8333 3.16659H15.1667V2.16659H13.8333V3.16659ZM4.5 3.83325H10.5V2.83325H4.5V3.83325ZM14 5.99992V10.6666H15V5.99992H14ZM12.5 12.1666H4.5V13.1666H12.5V12.1666ZM3 10.6666V5.33325H2V10.6666H3ZM4.5 12.1666C3.67157 12.1666 3 11.495 3 10.6666H2C2 12.0473 3.11929 13.1666 4.5 13.1666V12.1666ZM14 10.6666C14 11.495 13.3284 12.1666 12.5 12.1666V13.1666C13.8807 13.1666 15 12.0473 15 10.6666H14ZM4.5 2.83325C3.11929 2.83325 2 3.95254 2 5.33325H3C3 4.50482 3.67157 3.83325 4.5 3.83325V2.83325ZM4.5 11.1666H9.16667V10.1666H4.5V11.1666ZM12.5 10.1666H11.1667V11.1666H12.5V10.1666Z" fill="white"/>
</svg>
