<svg width="20" height="20" viewBox="0 0 20 20" fill="none" xmlns="http://www.w3.org/2000/svg">
<path d="M12.858 15.082C14.7212 14.8614 16.5519 14.4217 18.312 13.772C16.8214 12.1208 15.9977 9.9745 16.001 7.75V7C16.001 5.4087 15.3689 3.88258 14.2436 2.75736C13.1184 1.63214 11.5923 1 10.001 1C8.4097 1 6.88358 1.63214 5.75836 2.75736C4.63314 3.88258 4.001 5.4087 4.001 7V7.75C4.00402 9.97463 3.17999 12.121 1.689 13.772C3.422 14.412 5.249 14.857 7.144 15.082M12.858 15.082C10.96 15.3071 9.04201 15.3071 7.144 15.082M12.858 15.082C13.0021 15.5319 13.0379 16.0094 12.9626 16.4757C12.8872 16.942 12.7028 17.384 12.4244 17.7656C12.1459 18.1472 11.7813 18.4576 11.3602 18.6716C10.9391 18.8856 10.4734 18.9972 10.001 18.9972C9.52862 18.9972 9.06292 18.8856 8.64181 18.6716C8.22069 18.4576 7.85607 18.1472 7.57762 17.7656C7.29917 17.384 7.11476 16.942 7.03941 16.4757C6.96406 16.0094 6.9999 15.5319 7.144 15.082M1.125 5.5C1.40697 3.82497 2.1588 2.26444 3.293 1M16.709 1C17.8432 2.26444 18.595 3.82497 18.877 5.5" stroke="#000080" stroke-linecap="round" stroke-linejoin="round"/>
</svg>
