<svg width="17" height="16" viewBox="0 0 17 16" fill="none" xmlns="http://www.w3.org/2000/svg">
<path d="M10.1667 12.6666H4.5C3.39543 12.6666 2.5 11.7712 2.5 10.6666V5.33325C2.5 4.22868 3.39543 3.33325 4.5 3.33325H11.8333C12.9379 3.33325 13.8333 4.22868 13.8333 5.33325V6.33325M13.8333 6.33325H11.5C10.5795 6.33325 9.83333 7.07944 9.83333 7.99992C9.83333 8.92039 10.5795 9.66659 11.5 9.66659M13.8333 6.33325H14.4085C14.459 6.33325 14.5 6.37422 14.5 6.42476V9.57508M11.84 7.99992H11.8333M13.1667 10.9999V14.6666M13.1667 14.6666L11.8333 13.3333M13.1667 14.6666L14.5 13.3333" stroke="white" stroke-linecap="round" stroke-linejoin="round"/>
</svg>
