<svg width="104" height="104" viewBox="0 0 104 104" fill="none" xmlns="http://www.w3.org/2000/svg">
<path d="M39.9335 0.200821C38.4101 0.668007 37.171 1.98832 35.0179 5.46176C33.4132 8.08207 32.0116 9.54457 30.4882 10.2352C29.8179 10.5399 28.0101 11.1086 26.4663 11.4946C19.9663 13.1805 19.0523 14.4602 19.4991 21.1227C19.8445 26.3024 19.5398 27.2368 16.3101 31.1368C15.2741 32.3758 14.096 34.0618 13.6898 34.8743C13.0195 36.1946 12.9585 36.4586 13.0398 37.6165C13.1413 39.4039 13.8116 40.6227 16.2491 43.568C19.5195 47.4883 19.8241 48.4633 19.4991 53.5821C19.032 60.5086 19.8851 61.6055 27.2179 63.4946C31.5445 64.6118 32.2757 65.1805 35.2616 69.6899C37.3945 72.9602 38.1054 73.7321 39.507 74.3618C41.1523 75.1133 42.7163 74.8493 47.1241 73.1024C49.8257 72.0258 49.8866 72.0055 51.9991 72.0055C53.9898 72.0258 54.2538 72.0665 56.0616 72.7774C59.7179 74.2399 60.8351 74.6055 62.196 74.7071C63.3945 74.7883 63.6991 74.7274 64.6741 74.2602C66.0757 73.5696 66.9085 72.6352 69.021 69.304C71.6616 65.1399 72.3116 64.693 77.7351 63.2508C81.8382 62.1743 83.2195 61.3821 83.9913 59.6352C84.6413 58.2133 84.7632 56.8321 84.5195 53.5008C84.1538 48.5243 84.5195 47.4477 87.7491 43.568C90.2476 40.5821 90.9991 39.1805 90.9991 37.5758C90.9991 35.5039 90.471 34.5086 87.4851 30.893C84.4991 27.2774 84.1741 26.3024 84.5195 21.3664C84.8241 16.9383 84.5195 15.2727 83.1179 13.8711C82.1835 12.9368 80.721 12.3274 77.4913 11.4743C74.1195 10.6008 72.6976 9.99145 71.621 8.97582C71.1945 8.56957 69.9757 6.92426 68.9398 5.33988C66.2179 1.19613 65.2023 0.282066 63.0898 0.0586319C61.8101 -0.0632401 60.6523 0.22113 57.1788 1.58207C52.446 3.41019 51.5523 3.41019 46.8398 1.58207C42.8382 0.0180054 41.4773 -0.246056 39.9335 0.200821ZM56.8741 14.7243C67.1726 16.9789 74.607 25.7946 75.0945 36.3774C75.521 45.579 70.5241 54.0696 62.2163 58.1727C50.9226 63.7586 37.0085 59.1274 31.3616 47.9149C24.2929 33.8383 32.682 17.2633 48.282 14.5008C50.2929 14.1555 54.782 14.2774 56.8741 14.7243Z" fill="url(#paint0_linear_125_5821)"/>
<path d="M49.3572 25.0826C47.976 27.9263 46.8181 30.2622 46.7775 30.2622C46.5744 30.2622 35.4431 31.9279 35.4025 31.9685C35.3822 31.9888 37.1697 33.8372 39.4041 36.0513C42.065 38.6919 43.4666 40.2357 43.4666 40.4997C43.4666 40.7435 43.0603 43.3029 42.5525 46.1872C42.065 49.0919 41.6791 51.5091 41.7197 51.5497C41.7603 51.5904 44.0556 50.4326 46.8181 48.9701C49.5806 47.5076 51.9166 46.3091 52.0181 46.3091C52.0994 46.3091 54.4353 47.5076 57.1978 48.9701C59.94 50.4122 62.2353 51.5904 62.2759 51.5497C62.3166 51.5091 61.9103 48.9497 61.3822 45.8419L60.4275 40.2154L64.5916 36.0513C66.8869 33.756 68.6947 31.8872 68.6134 31.8872C68.5322 31.8872 65.9525 31.5216 62.8853 31.0747C59.8181 30.6279 57.2791 30.2622 57.2384 30.2622C57.1978 30.2622 56.0197 27.9263 54.6385 25.0826C53.2572 22.2388 52.0791 19.9029 51.9978 19.9029C51.9166 19.9029 50.7385 22.2388 49.3572 25.0826Z" fill="url(#paint1_linear_125_5821)"/>
<path d="M22.3637 79.8247C18.9715 87.4216 16.2294 93.6778 16.27 93.7185C16.3106 93.7591 19.784 93.2513 23.9684 92.581C30.3262 91.5653 31.6059 91.4231 31.7887 91.6466C33.1497 93.4544 42.1481 103.773 42.27 103.651C42.4325 103.448 48.5465 74.8888 48.445 74.7872C48.4044 74.7466 47.4293 75.0716 46.2715 75.5185C40.1575 77.9153 37.6997 77.0013 33.6168 70.7856C32.5809 69.2216 31.5247 67.6981 31.2403 67.3935C30.7122 66.845 29.2497 66.0122 28.8028 66.0122C28.6403 66.0122 25.9184 71.8825 22.3637 79.8247Z" fill="url(#paint2_linear_125_5821)"/>
<path d="M73.7938 66.6233C72.8391 67.1718 72.4938 67.5983 70.6251 70.4421C66.2579 77.0437 64.0032 77.9374 57.7469 75.5202C56.5891 75.0733 55.5938 74.7483 55.5532 74.789C55.411 74.9312 61.6469 103.795 61.8094 103.734C61.8907 103.714 64.3079 100.951 67.1516 97.5999C70.0157 94.2483 72.4532 91.4858 72.5954 91.4655C72.7172 91.4249 76.1501 91.953 80.2329 92.603C84.3157 93.253 87.6875 93.7608 87.7282 93.7202C87.7688 93.6796 85.0266 87.4437 81.6344 79.8265C77.4297 70.4015 75.3579 66.014 75.1547 66.014C74.9922 66.014 74.3626 66.2983 73.7938 66.6233Z" fill="url(#paint3_linear_125_5821)"/>
<defs>
<linearGradient id="paint0_linear_125_5821" x1="50.1401" y1="35.279" x2="54.7829" y2="80.779" gradientUnits="userSpaceOnUse">
<stop stop-color="#FFCB62"/>
<stop offset="1" stop-color="#F8B93A"/>
</linearGradient>
<linearGradient id="paint1_linear_125_5821" x1="51.2148" y1="34.8366" x2="53.1691" y2="54.1023" gradientUnits="userSpaceOnUse">
<stop stop-color="#FFCB62"/>
<stop offset="1" stop-color="#F8B93A"/>
</linearGradient>
<linearGradient id="paint2_linear_125_5821" x1="31.5883" y1="83.7735" x2="34.4271" y2="106.569" gradientUnits="userSpaceOnUse">
<stop stop-color="#FFCB62"/>
<stop offset="1" stop-color="#F8B93A"/>
</linearGradient>
<linearGradient id="paint3_linear_125_5821" x1="70.87" y1="83.8131" x2="73.7207" y2="106.656" gradientUnits="userSpaceOnUse">
<stop stop-color="#FFCB62"/>
<stop offset="1" stop-color="#F8B93A"/>
</linearGradient>
</defs>
</svg>
