<svg width="54" height="47" viewBox="0 0 54 47" fill="none" xmlns="http://www.w3.org/2000/svg">
<path fill-rule="evenodd" clip-rule="evenodd" d="M13.5006 16.8676H8.8272L5.32275 3.67951C5.15642 3.07285 4.80324 2.53654 4.28372 2.28376C2.98721 1.64854 1.55855 1.14299 0 0.888022V0.38028H7.52842C8.56745 0.38028 9.34672 1.14299 9.4766 2.02879L11.2949 11.5418L15.966 0.38028H20.5095L13.5006 16.8676ZM23.1071 16.8676H18.6935L22.3278 0.38028H26.7414L23.1071 16.8676ZM32.4515 4.94774C32.5814 4.05974 33.3606 3.552 34.2698 3.552C35.6985 3.42451 37.2547 3.67948 38.5535 4.31251L39.3328 0.762713C38.034 0.25497 36.6053 0 35.3088 0C31.0251 0 27.908 2.28374 27.908 5.45329C27.908 7.86451 30.116 9.13057 31.6745 9.89328C33.3606 10.6538 34.01 11.1615 33.8802 11.9221C33.8802 13.0628 32.5814 13.5706 31.2849 13.5706C29.7263 13.5706 28.1678 13.1903 26.7414 12.5551L25.9621 16.1071C27.5207 16.7401 29.2068 16.9951 30.7653 16.9951C35.5686 17.1204 38.5535 14.8388 38.5535 11.4143C38.5535 7.1018 32.4515 6.84903 32.4515 4.94774ZM54 16.8676L50.4955 0.38028H46.7313C45.9521 0.38028 45.1728 0.888022 44.913 1.64854L38.4236 16.8676H42.9671L43.874 14.4586H49.4565L49.976 16.8676H54ZM47.3807 4.82032L48.6772 11.0341H45.0429L47.3807 4.82032Z" fill="#172B85"/>
<path d="M31.4621 44.2443H22.5391V28.1836H31.4621V44.2443Z" fill="#FF5F00"/>
<path d="M23.1046 36.2135C23.1046 32.9555 24.6276 30.0534 26.9994 28.1832C25.265 26.8155 23.0761 25.9993 20.6971 25.9993C15.0653 25.9993 10.5 30.5723 10.5 36.2135C10.5 41.8547 15.0653 46.4277 20.6971 46.4277C23.0761 46.4277 25.265 45.6115 26.9994 44.2438C24.6276 42.3736 23.1046 39.4715 23.1046 36.2135Z" fill="#EB001B"/>
<path d="M43.5001 36.2135C43.5001 41.8547 38.9348 46.4277 33.3029 46.4277C30.924 46.4277 28.7351 45.6115 27 44.2438C29.3724 42.3736 30.8955 39.4715 30.8955 36.2135C30.8955 32.9555 29.3724 30.0534 27 28.1832C28.7351 26.8155 30.924 25.9993 33.3029 25.9993C38.9348 25.9993 43.5001 30.5723 43.5001 36.2135Z" fill="#F79E1B"/>
</svg>
