<svg width="24" height="22" viewBox="0 0 24 22" fill="none" xmlns="http://www.w3.org/2000/svg">
<g clip-path="url(#clip0_74_1718)">
<path d="M21.5151 14.4952C21.0867 14.2932 20.5756 14.4769 20.3735 14.9053C19.6357 16.4709 18.4757 17.7966 17.0188 18.7392C15.5244 19.7062 13.7889 20.2174 12.0001 20.2174C10.7508 20.2174 9.53927 19.9728 8.39917 19.4907C7.29764 19.0248 6.30816 18.3576 5.45812 17.5077C4.60822 16.6578 3.94098 15.6683 3.47507 14.5666C2.99294 13.4266 2.74839 12.2151 2.74839 10.9657H3.37338C3.70952 10.9657 3.90077 10.5814 3.69835 10.3132L2.21569 8.34934C2.0528 8.13355 1.72865 8.13355 1.56576 8.34934L0.0829695 10.3134C-0.119589 10.5817 0.071792 10.966 0.407935 10.966H1.03292C1.03292 12.4462 1.32299 13.8825 1.89509 15.2351C2.44756 16.5412 3.23816 17.7139 4.24509 18.7208C5.25202 19.7278 6.42484 20.5184 7.73083 21.0708C9.08345 21.6429 10.5198 21.933 12 21.933C14.1203 21.933 16.178 21.3267 17.9506 20.1796C19.6763 19.063 21.0507 17.4921 21.9252 15.6368C22.1273 15.2082 21.9436 14.6972 21.5151 14.4952Z" fill="#3AC1FF"/>
<path d="M23.5915 10.967H22.9665C22.9665 9.48683 22.6765 8.05053 22.1044 6.69791C21.5519 5.39192 20.7613 4.2191 19.7544 3.21217C18.7474 2.20524 17.5746 1.41464 16.2686 0.862167C14.916 0.29007 13.4797 0 11.9995 0C9.87918 0 7.82157 0.606311 6.04884 1.75337C4.32314 2.87003 2.94872 4.44087 2.07429 6.2962C1.87227 6.72476 2.05588 7.2358 2.48445 7.43781C2.91301 7.63982 3.42404 7.45607 3.62605 7.02765C4.36404 5.46212 5.52404 4.13636 6.9808 3.19363C8.47518 2.22664 10.2106 1.71547 11.9995 1.71547C13.2488 1.71547 14.4603 1.96002 15.6004 2.44215C16.702 2.90806 17.6914 3.5753 18.5415 4.4252C19.3914 5.2751 20.0586 6.26458 20.5245 7.36624C21.0067 8.50621 21.2512 9.71774 21.2512 10.9672H20.6262C20.2901 10.9672 20.0988 11.3514 20.3012 11.6197L21.784 13.5838C21.9469 13.7996 22.2711 13.7996 22.434 13.5838L23.9168 11.6197C24.119 11.3513 23.9277 10.967 23.5915 10.967Z" fill="#3AC1FF"/>
<path d="M11.9987 4.44452C12.1015 4.44452 12.1849 4.36123 12.1849 4.25832V3.50261C12.1849 3.39983 12.1016 3.31641 11.9987 3.31641C11.8958 3.31641 11.8125 3.39969 11.8125 3.50261V4.25832C11.8125 4.36109 11.8959 4.44452 11.9987 4.44452Z" fill="#A1B1C9"/>
<path d="M8.46411 5.09182C8.48715 5.13162 8.52886 5.15384 8.57166 5.15384C8.59266 5.15384 8.61406 5.14853 8.63355 5.13721C8.69284 5.103 8.71329 5.02707 8.67894 4.96764L8.44258 4.55816C8.40823 4.49887 8.33244 4.47842 8.27301 4.51277C8.21371 4.54699 8.19326 4.62291 8.22762 4.68234L8.46411 5.09182Z" fill="#A1B1C9"/>
<path d="M5.58948 7.41127L5.99896 7.64763C6.01845 7.65894 6.03986 7.66426 6.06085 7.66426C6.10379 7.66426 6.1455 7.64204 6.1684 7.60224C6.20261 7.54294 6.1823 7.46702 6.12301 7.43267L5.71353 7.1963C5.65423 7.16209 5.57831 7.1824 5.54396 7.2417C5.50974 7.30099 5.53005 7.37692 5.58948 7.41127Z" fill="#A1B1C9"/>
<path d="M5.54397 14.6961C5.567 14.7359 5.60871 14.7581 5.65152 14.7581C5.67251 14.7581 5.69391 14.7528 5.7134 14.7415L6.12288 14.5051C6.18217 14.4709 6.20262 14.395 6.16827 14.3355C6.13392 14.2761 6.05813 14.2558 5.9987 14.2901L5.58922 14.5265C5.53006 14.5609 5.50975 14.6366 5.54397 14.6961Z" fill="#A1B1C9"/>
<path d="M8.27308 17.4223C8.29257 17.4336 8.31397 17.4389 8.33496 17.4389C8.3779 17.4389 8.41961 17.4167 8.44251 17.3769L8.67888 16.9674C8.71309 16.9081 8.69278 16.8322 8.63348 16.7979C8.57405 16.7637 8.49826 16.784 8.46391 16.8433L8.22755 17.2527C8.19334 17.3122 8.21365 17.3881 8.27308 17.4223Z" fill="#A1B1C9"/>
<path d="M15.3668 16.7979C15.3075 16.8321 15.287 16.908 15.3214 16.9674L15.5577 17.3769C15.5808 17.4167 15.6225 17.4389 15.6653 17.4389C15.6863 17.4389 15.7077 17.4336 15.7272 17.4223C15.7865 17.3881 15.8069 17.3122 15.7726 17.2527L15.5362 16.8433C15.502 16.784 15.4261 16.7637 15.3668 16.7979Z" fill="#A1B1C9"/>
<path d="M17.8746 14.505L18.2841 14.7414C18.3036 14.7527 18.325 14.758 18.346 14.758C18.3889 14.758 18.4307 14.7358 18.4536 14.696C18.4878 14.6367 18.4675 14.5608 18.4082 14.5264L17.9987 14.2901C17.9393 14.2558 17.8635 14.2762 17.8291 14.3354C17.7949 14.3949 17.8152 14.4707 17.8746 14.505Z" fill="#A1B1C9"/>
<path d="M17.9369 7.66432C17.9579 7.66432 17.9793 7.659 17.9987 7.64769L18.4082 7.41133C18.4675 7.37711 18.488 7.30119 18.4536 7.24176C18.4193 7.18246 18.3435 7.16201 18.284 7.19637L17.8746 7.43273C17.8153 7.46694 17.7948 7.54287 17.8292 7.6023C17.8522 7.6421 17.8939 7.66432 17.9369 7.66432Z" fill="#A1B1C9"/>
<path d="M15.4287 5.15378C15.4717 5.15378 15.5134 5.13156 15.5363 5.09176L15.7726 4.68228C15.8068 4.62299 15.7865 4.54706 15.7272 4.51271C15.6679 4.4785 15.592 4.49881 15.5577 4.5581L15.3213 4.96758C15.2871 5.02688 15.3074 5.1028 15.3667 5.13715C15.3863 5.14847 15.4077 5.15378 15.4287 5.15378Z" fill="#A1B1C9"/>
<path d="M5.29347 11.1537C5.39625 11.1537 5.47967 11.0704 5.47967 10.9675C5.47967 10.8647 5.39639 10.7812 5.29347 10.7812H4.53776C4.43498 10.7812 4.35156 10.8645 4.35156 10.9675C4.35156 11.0702 4.43485 11.1537 4.53776 11.1537H5.29347Z" fill="#A1B1C9"/>
<path d="M11.8125 17.6745V18.4302C11.8125 18.533 11.8958 18.6164 11.9987 18.6164C12.1016 18.6164 12.1849 18.5331 12.1849 18.4302V17.6745C12.1849 17.5717 12.1016 17.4883 11.9987 17.4883C11.8958 17.4883 11.8125 17.5717 11.8125 17.6745Z" fill="#A1B1C9"/>
<path d="M18.7096 11.1537H19.4653C19.5681 11.1537 19.6515 11.0704 19.6515 10.9675C19.6515 10.8647 19.5683 10.7812 19.4653 10.7812H18.7096C18.6069 10.7812 18.5234 10.8645 18.5234 10.9675C18.5236 11.0704 18.6069 11.1537 18.7096 11.1537Z" fill="#A1B1C9"/>
<path d="M11.1055 10.969C11.1055 11.4631 11.5061 11.8637 12.0002 11.8637C12.1991 11.8637 12.3827 11.7988 12.5311 11.6891L15.5754 13.15C15.6599 13.1906 15.7632 13.1621 15.8141 13.0807C15.8687 12.9935 15.8421 12.8784 15.7549 12.8238L12.8924 11.0324C12.8939 11.0114 12.8948 10.9902 12.8948 10.9688C12.8948 10.6132 12.6872 10.306 12.3867 10.1617L12.1864 5.34656C12.1822 5.25101 12.1053 5.17222 12.008 5.16813C11.9052 5.1639 11.8184 5.24378 11.8141 5.34656C11.8141 5.34656 11.6785 8.60671 11.6138 10.1619C11.3131 10.3061 11.1055 10.6133 11.1055 10.969Z" fill="#3AC1FF"/>
</g>
<defs>
<clipPath id="clip0_74_1718">
<rect width="24" height="21.9342" fill="white"/>
</clipPath>
</defs>
</svg>
