<svg width="24" height="25" viewBox="0 0 24 25" fill="none" xmlns="http://www.w3.org/2000/svg">
<path d="M20.9201 16.6275L20.9202 16.6274C21.1653 16.0366 21.5786 15.4892 21.9176 15.0401C21.9306 15.0229 21.9434 15.0059 21.9562 14.989L21.9565 14.9886C22.6171 14.1138 23 13.547 23 12.9333C23 12.3196 22.6172 11.7533 21.9566 10.8779L20.9201 16.6275ZM20.9201 16.6275C20.6627 17.2484 20.5572 17.9744 20.476 18.5335M20.9201 16.6275L20.476 18.5335M19.7778 20.7117L19.778 20.7116C20.1795 20.3101 20.3117 19.6583 20.4688 18.5835L19.7778 20.7117ZM19.7778 20.7117C19.3766 21.1129 18.7249 21.245 17.6497 21.4022L19.7778 20.7117ZM8.3058 21.8535L8.30591 21.8535C8.89892 22.0995 9.44775 22.5144 9.89836 22.855C9.91383 22.8667 9.92918 22.8783 9.94441 22.8898C10.8196 23.5502 11.3859 23.9331 12 23.9331C12.6138 23.9331 13.1807 23.5503 14.0554 22.89C14.0711 22.8781 14.0869 22.8662 14.1028 22.8541C14.553 22.5138 15.1013 22.0993 15.6942 21.8535C15.6942 21.8534 15.6942 21.8534 15.6943 21.8534L16.0772 22.7772L8.3058 21.8535ZM8.3058 21.8535C7.68674 21.5968 6.96286 21.4914 6.40517 21.4102M8.3058 21.8535L6.40517 21.4102M6.35027 21.4022C5.27478 21.245 4.62305 21.1129 4.22151 20.7116C3.82038 20.3103 3.68798 19.6581 3.53118 18.5831L3.53117 18.5831C3.52853 18.565 3.52586 18.5467 3.52317 18.5282C3.44197 17.9705 3.33658 17.2466 3.07988 16.6275L3.07983 16.6274C2.83385 16.0344 2.41896 15.4856 2.07832 15.035C2.06662 15.0195 2.05501 15.0042 2.0435 14.9889L6.35027 21.4022ZM6.35027 21.4022C6.36838 21.4048 6.38669 21.4075 6.40517 21.4102M6.35027 21.4022L6.40517 21.4102M3.08014 9.23913L3.08009 9.23925C2.83411 9.83225 2.41922 10.3811 2.07858 10.8317C2.06684 10.8472 2.05519 10.8626 2.04364 10.8779L3.08014 9.23913ZM3.08014 9.23913C3.33684 8.62008 3.44223 7.89619 3.52343 7.3385C3.52612 7.32002 3.52879 7.30172 3.53143 7.28361L3.53143 7.28358M3.08014 9.23913L3.53143 7.28358M3.53143 7.28358C3.68824 6.20882 3.82064 5.5564 4.22204 5.15485M3.53143 7.28358L4.22204 5.15485M8.30617 4.01317L8.30605 4.01322C7.687 4.26991 6.96312 4.37531 6.40543 4.45651C6.38699 4.45919 6.36874 4.46185 6.35068 4.46448L8.30617 4.01317ZM8.30617 4.01317C8.89917 3.76719 9.44801 3.35229 9.89861 3.01165M8.30617 4.01317L9.89861 3.01165M19.7782 5.15512L19.7781 5.15498C19.3769 4.75375 18.7251 4.62166 17.65 4.46451L19.7782 5.15512ZM19.7782 5.15512C20.1795 5.55627 20.3116 6.2079 20.469 7.28319C20.4714 7.29969 20.4738 7.31635 20.4763 7.33316C20.5575 7.89225 20.6629 8.61824 20.9204 9.23913L20.9204 9.23925M19.7782 5.15512L20.9204 9.23925M20.9204 9.23925C21.1661 9.83148 21.5803 10.3798 21.9204 10.8299M20.9204 9.23925L21.9204 10.8299M20.476 18.5335C20.4736 18.5501 20.4712 18.5666 20.4689 18.5828L20.476 18.5335ZM1 12.9333C1 13.5471 1.38304 14.1136 2.04344 14.9888L1 12.9333ZM1 12.9333C1 12.3197 1.38295 11.7532 2.04342 10.8782L1 12.9333ZM4.22204 5.15485C4.62317 4.75356 5.27462 4.62169 6.35053 4.46451L4.22204 5.15485ZM9.89861 3.01165C9.91424 2.99984 9.92974 2.98812 9.94512 2.9765M9.89861 3.01165L9.94512 2.9765M9.94512 2.9765C10.8201 2.31634 11.3861 1.93359 12.0003 1.93359M9.94512 2.9765L12.0003 1.93359M12.0003 1.93359C12.614 1.93359 13.1805 2.31642 14.0554 2.9765M12.0003 1.93359L14.0554 2.9765M14.0554 2.9765C14.0712 2.98842 14.0871 3.00044 14.1031 3.01257C14.5533 3.3529 15.1016 3.76742 15.6945 4.01322L14.0554 2.9765ZM17.5951 4.45651C17.0374 4.37531 16.3136 4.26992 15.6945 4.01324L17.5951 4.45651ZM17.5951 4.45651C17.6135 4.45919 17.6317 4.46184 17.6498 4.46447L17.5951 4.45651ZM21.9204 10.8299C21.9325 10.846 21.9446 10.862 21.9565 10.8778L21.9204 10.8299Z" fill="white" stroke="#3AC1FF" stroke-width="2"/>
<path d="M17.9321 11.097L17.9321 11.097L11.2263 17.8028C10.967 18.0621 10.5468 18.0621 10.2876 17.8028L6.06866 13.5839C5.80941 13.3246 5.80941 12.9044 6.06866 12.6452L7.09581 11.618C7.35506 11.3588 7.77526 11.3588 8.03451 11.618L10.7217 14.3052L10.7571 14.3406L10.7924 14.3052L15.9665 9.13116C16.2258 8.87191 16.646 8.87191 16.9052 9.13116L17.9324 10.1583C17.9324 10.1583 17.9324 10.1583 17.9324 10.1583C18.1914 10.4176 18.1913 10.838 17.9321 11.097Z" fill="#3AC1FF" stroke="#3AC1FF" stroke-width="0.1"/>
</svg>
