<svg width="24" height="25" viewBox="0 0 24 25" fill="none" xmlns="http://www.w3.org/2000/svg">
<path d="M4.04507 1.93359L6.46369 2.71381L5.77017 3.40535L10.8191 8.30698L15.1236 7.30597L21.1719 14.3313L20.5581 14.8234L14.8592 8.04402L10.5948 9.1324L5.41121 3.76307L4.78738 4.3842L4.04507 1.93359Z" fill="#3AC1FF"/>
<path d="M2.50066 21.9752H1.5V22.4336H22.5V21.9747H21.5578H21.0578V21.4747V17.2846H17.6489V21.4747V21.9747H17.1489H16.675H16.175V21.4747V13.6988H12.7661V21.4752V21.9752H12.2661H11.7923H11.2923V21.4752V10.6796H7.8834V21.4752V21.9752H7.3834H6.90953H6.40953V21.4752V6.43359H3.00066V21.4752V21.9752H2.50066Z" stroke="#3AC1FF"/>
</svg>
