<svg width="20" height="20" viewBox="0 0 20 20" fill="none" xmlns="http://www.w3.org/2000/svg">
<path d="M12.4793 15.4567C13.3118 15.4567 13.9482 15.4574 14.6883 15.4567C15.8787 15.4584 17.0833 15.4167 18.1225 15.4567C18.1541 14.7098 17.9414 13.9729 17.5165 13.3578C17.0916 12.7427 16.4778 12.2828 15.7681 12.0479C15.0584 11.813 14.2914 11.8159 13.5835 12.0562C12.8755 12.2964 12.2652 12.7609 11.845 13.3792M12.4793 15.4567L12.5008 15.9375C12.5008 15.01 12.2625 14.1375 11.845 13.3792M12.4793 15.4567L12.5008 16.0283C10.6667 16.0283 9.06051 16.0315 7.18833 16.0283C5.24583 16.0283 3.75 16.0283 1.87583 16.0283L1.875 15.9375C1.87436 14.7579 2.26634 13.6116 2.98915 12.6794C3.71196 11.7472 4.72448 11.082 5.86707 10.7888C7.00967 10.4956 8.21735 10.5911 9.29972 11.0601C10.3821 11.5291 11.2776 12.345 11.845 13.3792M10.0008 5.3125C10.0008 6.05842 9.70452 6.77379 9.17707 7.30124C8.64963 7.82868 7.93426 8.125 7.18833 8.125C6.44241 8.125 5.72704 7.82868 5.1996 7.30124C4.67215 6.77379 4.37583 6.05842 4.37583 5.3125C4.37583 4.56658 4.67215 3.85121 5.1996 3.32376C5.72704 2.79632 6.44241 2.5 7.18833 2.5C7.93426 2.5 8.64963 2.79632 9.17707 3.32376C9.70452 3.85121 10.0008 4.56658 10.0008 5.3125ZM16.8758 7.1875C16.8758 7.76766 16.6454 8.32406 16.2351 8.7343C15.8249 9.14453 15.2685 9.375 14.6883 9.375C14.1082 9.375 13.5518 9.14453 13.1415 8.7343C12.7313 8.32406 12.5008 7.76766 12.5008 7.1875C12.5008 6.60734 12.7313 6.05094 13.1415 5.6407C13.5518 5.23047 14.1082 5 14.6883 5C15.2685 5 15.8249 5.23047 16.2351 5.6407C16.6454 6.05094 16.8758 6.60734 16.8758 7.1875Z" fill="white"/>
<path d="M12.4793 15.4567C13.3118 15.4567 13.9482 15.4574 14.6883 15.4567C15.8787 15.4584 17.0833 15.4167 18.1225 15.4567C18.1541 14.7098 17.9414 13.9729 17.5165 13.3578C17.0916 12.7427 16.4778 12.2828 15.7681 12.0479C15.0584 11.813 14.2914 11.8159 13.5835 12.0562C12.8755 12.2964 12.2652 12.7609 11.845 13.3792M12.4793 15.4567L12.5008 15.9375C12.5008 15.01 12.2625 14.1375 11.845 13.3792M12.4793 15.4567L12.5008 16.0283C10.6667 16.0283 9.06051 16.0315 7.18833 16.0283C5.24583 16.0283 3.75 16.0283 1.87583 16.0283L1.875 15.9375C1.87436 14.7579 2.26634 13.6116 2.98915 12.6794C3.71196 11.7472 4.72448 11.082 5.86707 10.7888C7.00967 10.4956 8.21735 10.5911 9.29972 11.0601C10.3821 11.5291 11.2776 12.345 11.845 13.3792M10.0008 5.3125C10.0008 6.05842 9.70452 6.77379 9.17707 7.30124C8.64963 7.82868 7.93426 8.125 7.18833 8.125C6.44241 8.125 5.72704 7.82868 5.1996 7.30124C4.67215 6.77379 4.37583 6.05842 4.37583 5.3125C4.37583 4.56658 4.67215 3.85121 5.1996 3.32376C5.72704 2.79632 6.44241 2.5 7.18833 2.5C7.93426 2.5 8.64963 2.79632 9.17707 3.32376C9.70452 3.85121 10.0008 4.56658 10.0008 5.3125ZM16.8758 7.1875C16.8758 7.76766 16.6454 8.32406 16.2351 8.7343C15.8249 9.14453 15.2685 9.375 14.6883 9.375C14.1082 9.375 13.5518 9.14453 13.1415 8.7343C12.7313 8.32406 12.5008 7.76766 12.5008 7.1875C12.5008 6.60734 12.7313 6.05094 13.1415 5.6407C13.5518 5.23047 14.1082 5 14.6883 5C15.2685 5 15.8249 5.23047 16.2351 5.6407C16.6454 6.05094 16.8758 6.60734 16.8758 7.1875Z" stroke="#3AC1FF" stroke-linecap="round" stroke-linejoin="round"/>
</svg>
