<svg width="20" height="20" viewBox="0 0 20 20" fill="none" xmlns="http://www.w3.org/2000/svg">
<g clip-path="url(#clip0_74_2294)">
<path d="M5.17818 0.0888233C5.09224 0.135698 4.99068 0.221636 4.95161 0.276323C4.84224 0.420855 3.97505 2.64742 3.95161 2.83882C3.92036 3.11617 4.01021 3.35054 4.23286 3.5732L4.43208 3.77242L5.65474 4.15523C6.71724 4.48726 6.90474 4.53804 7.08443 4.52242C7.33443 4.50289 7.51021 4.38961 7.61568 4.17867C7.76411 3.88961 7.67818 3.50289 7.43208 3.3271C7.33833 3.2607 6.96724 3.12789 6.29927 2.92085C6.22896 2.90132 6.17036 2.87789 6.17036 2.86617C6.17036 2.83492 6.62349 2.62398 6.99068 2.48726C8.63911 1.85835 10.3657 1.75679 12.0688 2.18648C12.6704 2.33492 13.0766 2.48726 13.6899 2.78804C15.9907 3.91695 17.6625 6.08101 18.1782 8.59664C18.6743 11.0068 18.0727 13.5224 16.5336 15.4834C16.2133 15.8896 15.4633 16.6201 15.0297 16.9443C11.9086 19.2841 7.62739 19.1748 4.63911 16.6787C1.75239 14.2724 0.834426 10.1748 2.41646 6.76851C2.63911 6.28804 2.65864 6.15132 2.52974 5.89742C2.32661 5.49507 1.83443 5.39351 1.49068 5.68257C1.18208 5.94429 0.596144 7.55757 0.412551 8.65132C-0.189012 12.2568 1.24458 15.8505 4.15864 18.0459C5.52583 19.0732 7.01411 19.6787 8.80708 19.9287C9.27193 19.9951 10.7368 19.9912 11.2094 19.9248C12.3735 19.7646 13.2602 19.499 14.2758 19.0029C16.8032 17.7724 18.7133 15.4326 19.4125 12.706C19.6274 11.8544 19.7016 11.2568 19.6977 10.2724C19.6977 9.2607 19.6235 8.65523 19.3891 7.77242C18.6821 5.09273 16.768 2.7607 14.2758 1.54585C11.7993 0.334917 8.93989 0.233355 6.35786 1.2646C6.12349 1.35835 5.93599 1.42867 5.93599 1.42867C5.93599 1.42476 5.99068 1.28414 6.05318 1.12007C6.11958 0.952105 6.17036 0.752886 6.17036 0.678667C6.17036 0.170855 5.61177 -0.161177 5.17818 0.0888233Z" fill="#3AC1FF"/>
<path d="M8.57129 6.34375C8.42285 6.41016 8.25879 6.58594 8.2041 6.73047C8.14551 6.88672 8.14551 10.8242 8.2041 11.1016C8.35645 11.8203 8.99707 12.4453 9.71973 12.5781C9.83301 12.6016 10.5518 12.6172 11.3135 12.6172C12.8135 12.6172 12.8486 12.6133 13.0518 12.3984C13.3057 12.125 13.3057 11.7422 13.0518 11.4688C12.8486 11.2539 12.8135 11.25 11.3369 11.25C9.82129 11.25 9.79395 11.2461 9.61816 10.9805L9.52832 10.8477V8.85156C9.52832 6.60938 9.53223 6.64844 9.23535 6.42578C9.06738 6.29297 8.75879 6.25391 8.57129 6.34375Z" fill="#3AC1FF"/>
</g>
<defs>
<clipPath id="clip0_74_2294">
<rect width="20" height="20" fill="white"/>
</clipPath>
</defs>
</svg>
