<svg width="88" height="88" viewBox="0 0 88 88" fill="none" xmlns="http://www.w3.org/2000/svg">
<g filter="url(#filter0_dd_384_5646)">
<circle cx="20" cy="20" r="19.5" transform="matrix(-1 0 0 1 64 8)" fill="white" stroke="#000080"/>
<path d="M40.5 26.5C40.5 26.5 42.7065 25.9828 44 25.5C45.5737 24.9126 47.5 23.5 47.5 23.5M40.5 29.5C40.5 29.5 42.7065 30.0172 44 30.5C45.5737 31.0874 47.5 32.5 47.5 32.5M41 28C41 26.3431 39.6569 25 38 25C36.3431 25 35 26.3431 35 28C35 29.6569 36.3431 31 38 31C39.6569 31 41 29.6569 41 28ZM53 22C53 20.3431 51.6569 19 50 19C48.3431 19 47 20.3431 47 22C47 23.6569 48.3431 25 50 25C51.6569 25 53 23.6569 53 22ZM53 34C53 32.3431 51.6569 31 50 31C48.3431 31 47 32.3431 47 34C47 35.6569 48.3431 37 50 37C51.6569 37 53 35.6569 53 34Z" stroke="#000080" stroke-linejoin="round"/>
</g>
<defs>
<filter id="filter0_dd_384_5646" x="0" y="0" width="88" height="88" filterUnits="userSpaceOnUse" color-interpolation-filters="sRGB">
<feFlood flood-opacity="0" result="BackgroundImageFix"/>
<feColorMatrix in="SourceAlpha" type="matrix" values="0 0 0 0 0 0 0 0 0 0 0 0 0 0 0 0 0 0 127 0" result="hardAlpha"/>
<feOffset dy="16"/>
<feGaussianBlur stdDeviation="12"/>
<feColorMatrix type="matrix" values="0 0 0 0 0 0 0 0 0 0 0 0 0 0 0.501961 0 0 0 0.08 0"/>
<feBlend mode="normal" in2="BackgroundImageFix" result="effect1_dropShadow_384_5646"/>
<feColorMatrix in="SourceAlpha" type="matrix" values="0 0 0 0 0 0 0 0 0 0 0 0 0 0 0 0 0 0 127 0" result="hardAlpha"/>
<feMorphology radius="4" operator="erode" in="SourceAlpha" result="effect2_dropShadow_384_5646"/>
<feOffset dy="4"/>
<feGaussianBlur stdDeviation="4"/>
<feColorMatrix type="matrix" values="0 0 0 0 0 0 0 0 0 0 0 0 0 0 0.501961 0 0 0 0.08 0"/>
<feBlend mode="normal" in2="effect1_dropShadow_384_5646" result="effect2_dropShadow_384_5646"/>
<feBlend mode="normal" in="SourceGraphic" in2="effect2_dropShadow_384_5646" result="shape"/>
</filter>
</defs>
</svg>
