<svg width="20" height="20" viewBox="0 0 20 20" fill="none" xmlns="http://www.w3.org/2000/svg">
<g clip-path="url(#clip0_584_3515)">
<path fill-rule="evenodd" clip-rule="evenodd" d="M4.36249 4.23556C4.82817 2.49763 6.5573 1.38301 8.2795 1.84447L16.2522 3.98075C17.9744 4.44222 18.9146 6.27208 18.4489 8.01001L17.0521 13.2229C16.7478 14.3588 15.9134 15.2182 14.8924 15.5586L14.4971 14.3728C15.1154 14.1667 15.6478 13.6341 15.8447 12.8994L17.2415 7.68648C17.5473 6.54538 16.9162 5.45275 15.9287 5.18816L7.95598 3.05188C6.96852 2.78729 5.87566 3.41799 5.5699 4.55908L4.71784 7.73901L3.51043 7.41549L4.36249 4.23556Z" fill="#3AC1FF"/>
<path fill-rule="evenodd" clip-rule="evenodd" d="M0.832031 10.1984C0.832031 8.36294 2.23954 6.875 3.9758 6.875H12.2716C14.0079 6.875 15.4154 8.36294 15.4154 10.1984V15.5952C15.4154 17.4307 14.0079 18.9187 12.2716 18.9187H3.9758C2.23954 18.9187 0.832031 17.4307 0.832031 15.5952V10.1984ZM3.9758 8.125C2.89258 8.125 2.01446 9.0533 2.01446 10.1984V10.9226L14.2329 10.9226V10.1984C14.2329 9.0533 13.3548 8.125 12.2716 8.125H3.9758ZM14.2329 12.1726L2.01446 12.1726V15.5952C2.01446 16.7404 2.89258 17.6687 3.9758 17.6687H12.2716C13.3548 17.6687 14.2329 16.7404 14.2329 15.5952V12.1726Z" fill="#3AC1FF"/>
</g>
<defs>
<clipPath id="clip0_584_3515">
<rect width="20" height="20" fill="white"/>
</clipPath>
</defs>
</svg>
