<svg width="20" height="20" viewBox="0 0 20 20" fill="none" xmlns="http://www.w3.org/2000/svg">
<g clip-path="url(#clip0_584_5251)">
<path fill-rule="evenodd" clip-rule="evenodd" d="M1.04297 6.66732C1.04297 4.48119 2.73641 2.70898 4.82538 2.70898H15.1772C17.2662 2.70898 18.9596 4.48119 18.9596 6.66732V13.334C18.9596 15.5201 17.2662 17.2923 15.1772 17.2923H4.82538C2.73641 17.2923 1.04297 15.5201 1.04297 13.334V6.66732ZM4.82538 3.95898C3.39608 3.95898 2.23741 5.17155 2.23741 6.66732V13.334C2.23741 14.8298 3.39608 16.0423 4.82538 16.0423H15.1772C16.6065 16.0423 17.7652 14.8298 17.7652 13.334V6.66732C17.7652 5.17155 16.6065 3.95898 15.1772 3.95898H4.82538Z" fill="#3AC1FF"/>
<path fill-rule="evenodd" clip-rule="evenodd" d="M3.82812 13.75C3.82812 13.4048 4.09551 13.125 4.42535 13.125H8.00868C8.33852 13.125 8.6059 13.4048 8.6059 13.75C8.6059 14.0952 8.33852 14.375 8.00868 14.375H4.42535C4.09551 14.375 3.82812 14.0952 3.82812 13.75Z" fill="#3AC1FF"/>
<path fill-rule="evenodd" clip-rule="evenodd" d="M9.00781 13.75C9.00781 13.4048 9.2752 13.125 9.60503 13.125H10.7995C11.1293 13.125 11.3967 13.4048 11.3967 13.75C11.3967 14.0952 11.1293 14.375 10.7995 14.375H9.60503C9.2752 14.375 9.00781 14.0952 9.00781 13.75Z" fill="#3AC1FF"/>
<path fill-rule="evenodd" clip-rule="evenodd" d="M1.64062 7.70898L18.3628 7.70899L18.3628 8.95899L1.64062 8.95898L1.64062 7.70898Z" fill="#3AC1FF"/>
</g>
<defs>
<clipPath id="clip0_584_5251">
<rect width="20" height="20" fill="white"/>
</clipPath>
</defs>
</svg>
