<svg width="17" height="16" viewBox="0 0 17 16" fill="none" xmlns="http://www.w3.org/2000/svg">
<path d="M3.83333 13.3327L6.31597 9.75769C6.87903 8.94688 8.09727 9.00778 8.57667 9.87069L8.76892 10.2167M6.5 13.3327L10.6205 7.66705C11.1895 6.88457 12.3764 6.9497 12.8564 7.78977L14.5 10.666M4.5 13.3327H12.5C13.6046 13.3327 14.5 12.4373 14.5 11.3327V4.66602C14.5 3.56145 13.6046 2.66602 12.5 2.66602H4.5C3.39543 2.66602 2.5 3.56145 2.5 4.66602V11.3327C2.5 12.4373 3.39543 13.3327 4.5 13.3327ZM6.16667 5.16602C6.16667 5.44216 5.94281 5.66602 5.66667 5.66602C5.39052 5.66602 5.16667 5.44216 5.16667 5.16602C5.16667 4.88987 5.39052 4.66602 5.66667 4.66602C5.94281 4.66602 6.16667 4.88987 6.16667 5.16602Z" stroke="white" stroke-linejoin="round"/>
</svg>
