<svg width="41" height="40" viewBox="0 0 41 40" fill="none" xmlns="http://www.w3.org/2000/svg">
<path d="M13 12.5H11.75C10.7554 12.5 9.80161 12.8951 9.09835 13.5983C8.39509 14.3016 8 15.2554 8 16.25V28.75C8 29.7446 8.39509 30.6984 9.09835 31.4016C9.80161 32.1049 10.7554 32.5 11.75 32.5H24.25C25.2446 32.5 26.1984 32.1049 26.9016 31.4016C27.6049 30.6984 28 29.7446 28 28.75V16.25C28 15.2554 27.6049 14.3016 26.9016 13.5983C26.1984 12.8951 25.2446 12.5 24.25 12.5H23M23 7.5L18 2.5M18 2.5L13 7.5M18 2.5V21.25M28 17.5H29.25C30.2446 17.5 31.1984 17.8951 31.9016 18.5983C32.6049 19.3016 33 20.2554 33 21.25V33.75C33 34.7446 32.6049 35.6984 31.9016 36.4016C31.1984 37.1049 30.2446 37.5 29.25 37.5H16.75C15.7554 37.5 14.8016 37.1049 14.0983 36.4016C13.3951 35.6984 13 34.7446 13 33.75V32.5" stroke="#000080" stroke-width="1.5" stroke-linecap="round" stroke-linejoin="round"/>
</svg>
