<svg width="16" height="16" viewBox="0 0 16 16" fill="none" xmlns="http://www.w3.org/2000/svg">
<path d="M8.16406 6.54688V9.64506H12.5572C12.3643 10.6414 11.7854 11.4851 10.9172 12.0523L13.5664 14.0669C15.1099 12.6706 16.0004 10.6197 16.0004 8.18332C16.0004 7.61605 15.9485 7.07055 15.852 6.54696L8.16406 6.54688Z" fill="#4285F4"/>
<path d="M3.58748 9.52344L2.98997 9.97169L0.875 11.5862C2.21817 14.1971 4.9711 16.0007 8.16203 16.0007C10.366 16.0007 12.2137 15.288 13.5644 14.0662L10.9151 12.0517C10.1879 12.5317 9.26027 12.8226 8.16203 12.8226C6.03969 12.8226 4.23647 11.419 3.59081 9.52806L3.58748 9.52344Z" fill="#34A853"/>
<path d="M0.875596 4.41406C0.319063 5.49038 0 6.70494 0 7.99946C0 9.29398 0.319063 10.5085 0.875596 11.5849C0.875596 11.5921 3.59167 9.51941 3.59167 9.51941C3.42841 9.03942 3.33191 8.53036 3.33191 7.99938C3.33191 7.4684 3.42841 6.95934 3.59167 6.47935L0.875596 4.41406Z" fill="#FBBC05"/>
<path d="M8.1622 3.18545C9.3644 3.18545 10.433 3.59271 11.2864 4.37817L13.6239 2.0873C12.2065 0.792775 10.3662 0 8.1622 0C4.97127 0 2.21817 1.79636 0.875 4.41454L3.59099 6.48C4.23657 4.58907 6.03985 3.18545 8.1622 3.18545Z" fill="#EA4335"/>
</svg>
